<svg id="my-svg" width="100%" xmlns="http://www.w3.org/2000/svg" xmlns:xlink="http://www.w3.org/1999/xlink" class="classDiagram" style="max-width: 540.539px; background-color: white;" viewBox="0 0 540.5390625 498" role="graphics-document document" aria-roledescription="class"><style>#my-svg{font-family:"trebuchet ms",verdana,arial,sans-serif;font-size:16px;fill:#333;}@keyframes edge-animation-frame{from{stroke-dashoffset:0;}}@keyframes dash{to{stroke-dashoffset:0;}}#my-svg .edge-animation-slow{stroke-dasharray:9,5!important;stroke-dashoffset:900;animation:dash 50s linear infinite;stroke-linecap:round;}#my-svg .edge-animation-fast{stroke-dasharray:9,5!important;stroke-dashoffset:900;animation:dash 20s linear infinite;stroke-linecap:round;}#my-svg .error-icon{fill:#552222;}#my-svg .error-text{fill:#552222;stroke:#552222;}#my-svg .edge-thickness-normal{stroke-width:1px;}#my-svg .edge-thickness-thick{stroke-width:3.5px;}#my-svg .edge-pattern-solid{stroke-dasharray:0;}#my-svg .edge-thickness-invisible{stroke-width:0;fill:none;}#my-svg .edge-pattern-dashed{stroke-dasharray:3;}#my-svg .edge-pattern-dotted{stroke-dasharray:2;}#my-svg .marker{fill:#333333;stroke:#333333;}#my-svg .marker.cross{stroke:#333333;}#my-svg svg{font-family:"trebuchet ms",verdana,arial,sans-serif;font-size:16px;}#my-svg p{margin:0;}#my-svg g.classGroup text{fill:#9370DB;stroke:none;font-family:"trebuchet ms",verdana,arial,sans-serif;font-size:10px;}#my-svg g.classGroup text .title{font-weight:bolder;}#my-svg .cluster-label text{fill:#333;}#my-svg .cluster-label span{color:#333;}#my-svg .cluster-label span p{background-color:transparent;}#my-svg .cluster rect{fill:#ffffde;stroke:#aaaa33;stroke-width:1px;}#my-svg .cluster text{fill:#333;}#my-svg .cluster span{color:#333;}#my-svg .nodeLabel,#my-svg .edgeLabel{color:#131300;}#my-svg .edgeLabel .label rect{fill:#ECECFF;}#my-svg .label text{fill:#131300;}#my-svg .labelBkg{background:#ECECFF;}#my-svg .edgeLabel .label span{background:#ECECFF;}#my-svg .classTitle{font-weight:bolder;}#my-svg .node rect,#my-svg .node circle,#my-svg .node ellipse,#my-svg .node polygon,#my-svg .node path{fill:#ECECFF;stroke:#9370DB;stroke-width:1px;}#my-svg .divider{stroke:#9370DB;stroke-width:1;}#my-svg g.clickable{cursor:pointer;}#my-svg g.classGroup rect{fill:#ECECFF;stroke:#9370DB;}#my-svg g.classGroup line{stroke:#9370DB;stroke-width:1;}#my-svg .classLabel .box{stroke:none;stroke-width:0;fill:#ECECFF;opacity:0.5;}#my-svg .classLabel .label{fill:#9370DB;font-size:10px;}#my-svg .relation{stroke:#333333;stroke-width:1;fill:none;}#my-svg .dashed-line{stroke-dasharray:3;}#my-svg .dotted-line{stroke-dasharray:1 2;}#my-svg #compositionStart,#my-svg .composition{fill:#333333!important;stroke:#333333!important;stroke-width:1;}#my-svg #compositionEnd,#my-svg .composition{fill:#333333!important;stroke:#333333!important;stroke-width:1;}#my-svg #dependencyStart,#my-svg .dependency{fill:#333333!important;stroke:#333333!important;stroke-width:1;}#my-svg #dependencyStart,#my-svg .dependency{fill:#333333!important;stroke:#333333!important;stroke-width:1;}#my-svg #extensionStart,#my-svg .extension{fill:transparent!important;stroke:#333333!important;stroke-width:1;}#my-svg #extensionEnd,#my-svg .extension{fill:transparent!important;stroke:#333333!important;stroke-width:1;}#my-svg #aggregationStart,#my-svg .aggregation{fill:transparent!important;stroke:#333333!important;stroke-width:1;}#my-svg #aggregationEnd,#my-svg .aggregation{fill:transparent!important;stroke:#333333!important;stroke-width:1;}#my-svg #lollipopStart,#my-svg .lollipop{fill:#ECECFF!important;stroke:#333333!important;stroke-width:1;}#my-svg #lollipopEnd,#my-svg .lollipop{fill:#ECECFF!important;stroke:#333333!important;stroke-width:1;}#my-svg .edgeTerminals{font-size:11px;line-height:initial;}#my-svg .classTitleText{text-anchor:middle;font-size:18px;fill:#333;}#my-svg .label-icon{display:inline-block;height:1em;overflow:visible;vertical-align:-0.125em;}#my-svg .node .label-icon path{fill:currentColor;stroke:revert;stroke-width:revert;}#my-svg :root{--mermaid-font-family:"trebuchet ms",verdana,arial,sans-serif;}</style><g><defs><marker id="my-svg_class-aggregationStart" class="marker aggregation class" refX="18" refY="7" markerWidth="190" markerHeight="240" orient="auto"><path d="M 18,7 L9,13 L1,7 L9,1 Z"/></marker></defs><defs><marker id="my-svg_class-aggregationEnd" class="marker aggregation class" refX="1" refY="7" markerWidth="20" markerHeight="28" orient="auto"><path d="M 18,7 L9,13 L1,7 L9,1 Z"/></marker></defs><defs><marker id="my-svg_class-extensionStart" class="marker extension class" refX="18" refY="7" markerWidth="190" markerHeight="240" orient="auto"><path d="M 1,7 L18,13 V 1 Z"/></marker></defs><defs><marker id="my-svg_class-extensionEnd" class="marker extension class" refX="1" refY="7" markerWidth="20" markerHeight="28" orient="auto"><path d="M 1,1 V 13 L18,7 Z"/></marker></defs><defs><marker id="my-svg_class-compositionStart" class="marker composition class" refX="18" refY="7" markerWidth="190" markerHeight="240" orient="auto"><path d="M 18,7 L9,13 L1,7 L9,1 Z"/></marker></defs><defs><marker id="my-svg_class-compositionEnd" class="marker composition class" refX="1" refY="7" markerWidth="20" markerHeight="28" orient="auto"><path d="M 18,7 L9,13 L1,7 L9,1 Z"/></marker></defs><defs><marker id="my-svg_class-dependencyStart" class="marker dependency class" refX="6" refY="7" markerWidth="190" markerHeight="240" orient="auto"><path d="M 5,7 L9,13 L1,7 L9,1 Z"/></marker></defs><defs><marker id="my-svg_class-dependencyEnd" class="marker dependency class" refX="13" refY="7" markerWidth="20" markerHeight="28" orient="auto"><path d="M 18,7 L9,13 L14,7 L9,1 Z"/></marker></defs><defs><marker id="my-svg_class-lollipopStart" class="marker lollipop class" refX="13" refY="7" markerWidth="190" markerHeight="240" orient="auto"><circle fill="transparent" cx="7" cy="7" r="6"/></marker></defs><defs><marker id="my-svg_class-lollipopEnd" class="marker lollipop class" refX="1" refY="7" markerWidth="190" markerHeight="240" orient="auto"><circle fill="transparent" cx="7" cy="7" r="6"/></marker></defs><g class="root"><g class="clusters"/><g class="edgePaths"><path d="M91.483,214.332L88.952,218.11C86.422,221.888,81.361,229.444,80.725,239.389C80.089,249.333,83.878,261.667,85.772,267.833L87.666,274" id="id_Shape_Rectangle_1" class="edge-thickness-normal edge-pattern-solid relation" style=";;;" data-edge="true" data-et="edge" data-id="id_Shape_Rectangle_1" data-points="W3sieCI6MTAxLjA4MTkxMzc2ODc5NywieSI6MjAwfSx7IngiOjc2LjMwMDc4MTI1LCJ5IjoyMzd9LHsieCI6ODcuNjY1OTIxMzM2MjA2OSwieSI6Mjc0fV0=" marker-start="url(#my-svg_class-extensionStart)"/><path d="M280.755,203.698L287.179,209.248C293.602,214.798,306.448,225.899,319.032,239.616C331.616,253.333,343.936,269.667,350.096,277.833L356.257,286" id="id_Shape_Circle_2" class="edge-thickness-normal edge-pattern-solid relation" style=";;;" data-edge="true" data-et="edge" data-id="id_Shape_Circle_2" data-points="W3sieCI6MjY3LjcwMzEyNSwieSI6MTkyLjQxOTEzNTg0MTYzNDQxfSx7IngiOjMxOS4yOTQ5MjE4NzUsInkiOjIzN30seyJ4IjozNTYuMjU2Nzg4NzkzMTAzNDUsInkiOjI4Nn1d" marker-start="url(#my-svg_class-extensionStart)"/><path d="M304.651,172.681L292.245,183.401C279.84,194.121,255.028,215.56,237.971,232.447C220.913,249.333,211.61,261.667,206.958,267.833L202.307,274" id="id_Drawable_Rectangle_3" class="edge-thickness-normal edge-pattern-dashed relation" style=";;;" data-edge="true" data-et="edge" data-id="id_Drawable_Rectangle_3" data-points="W3sieCI6MzE3LjcwMzEyNSwieSI6MTYxLjQwMjM5ODMyNDk3OTM3fSx7IngiOjIzMC4yMTY3OTY4NzUsInkiOjIzN30seyJ4IjoyMDIuMzA2ODE1NzMyNzU4NjIsInkiOjI3NH1d" marker-start="url(#my-svg_class-extensionStart)"/><path d="M452.001,205.332L455.536,210.61C459.071,215.888,466.141,226.444,467.167,239.889C468.194,253.333,463.177,269.667,460.668,277.833L458.16,286" id="id_Drawable_Circle_4" class="edge-thickness-normal edge-pattern-dashed relation" style=";;;" data-edge="true" data-et="edge" data-id="id_Drawable_Circle_4" data-points="W3sieCI6NDQyLjQwMTk2MTkzNjA5MDIzLCJ5IjoxOTF9LHsieCI6NDczLjIxMDkzNzUsInkiOjIzN30seyJ4Ijo0NTguMTU5ODA2MDM0NDgyNzYsInkiOjI4Nn1d" marker-start="url(#my-svg_class-extensionStart)"/></g><g class="edgeLabels"><g class="edgeLabel" transform="translate(77.92178, 234.57974)"><g class="label" data-id="id_Shape_Rectangle_1" transform="translate(-27.1875, -12)"><foreignObject width="54.375" height="24"><div xmlns="http://www.w3.org/1999/xhtml" class="labelBkg" style="display: table-cell; white-space: nowrap; line-height: 1.5; max-width: 200px; text-align: center;"><span class="edgeLabel"><p>inherits</p></span></div></foreignObject></g></g><g class="edgeLabel" transform="translate(319.294921875, 237)"><g class="label" data-id="id_Shape_Circle_2" transform="translate(-27.1875, -12)"><foreignObject width="54.375" height="24"><div xmlns="http://www.w3.org/1999/xhtml" class="labelBkg" style="display: table-cell; white-space: nowrap; line-height: 1.5; max-width: 200px; text-align: center;"><span class="edgeLabel"><p>inherits</p></span></div></foreignObject></g></g><g class="edgeLabel" transform="translate(256.42613, 214.35232)"><g class="label" data-id="id_Drawable_Rectangle_3" transform="translate(-41.890625, -12)"><foreignObject width="83.78125" height="24"><div xmlns="http://www.w3.org/1999/xhtml" class="labelBkg" style="display: table-cell; white-space: nowrap; line-height: 1.5; max-width: 200px; text-align: center;"><span class="edgeLabel"><p>implements</p></span></div></foreignObject></g></g><g class="edgeLabel" transform="translate(472.06885, 235.29479)"><g class="label" data-id="id_Drawable_Circle_4" transform="translate(-41.890625, -12)"><foreignObject width="83.78125" height="24"><div xmlns="http://www.w3.org/1999/xhtml" class="labelBkg" style="display: table-cell; white-space: nowrap; line-height: 1.5; max-width: 200px; text-align: center;"><span class="edgeLabel"><p>implements</p></span></div></foreignObject></g></g></g><g class="nodes"><g class="node default" id="classId-Shape-0" transform="translate(165.37890625, 104)"><g class="basic label-container"><path d="M-102.32421875 -96 L102.32421875 -96 L102.32421875 96 L-102.32421875 96" stroke="none" stroke-width="0" fill="#ECECFF" style=""/><path d="M-102.32421875 -96 C-42.29071277015967 -96, 17.742793209680656 -96, 102.32421875 -96 M-102.32421875 -96 C-50.8757644508355 -96, 0.5726898483290057 -96, 102.32421875 -96 M102.32421875 -96 C102.32421875 -52.75115148599469, 102.32421875 -9.50230297198938, 102.32421875 96 M102.32421875 -96 C102.32421875 -27.553847416707328, 102.32421875 40.892305166585345, 102.32421875 96 M102.32421875 96 C34.092716819857884 96, -34.13878511028423 96, -102.32421875 96 M102.32421875 96 C59.25800193390123 96, 16.191785117802453 96, -102.32421875 96 M-102.32421875 96 C-102.32421875 40.48612346958351, -102.32421875 -15.027753060832978, -102.32421875 -96 M-102.32421875 96 C-102.32421875 41.09516185943145, -102.32421875 -13.8096762811371, -102.32421875 -96" stroke="#9370DB" stroke-width="1.3" fill="none" stroke-dasharray="0 0" style=""/></g><g class="annotation-group text" transform="translate(0, -72)"/><g class="label-group text" transform="translate(-22.3515625, -72)"><g class="label" style="font-weight: bolder" transform="translate(0,-12)"><foreignObject width="44.703125" height="24"><div xmlns="http://www.w3.org/1999/xhtml" style="display: table-cell; white-space: nowrap; line-height: 1.5; max-width: 89px; text-align: center;"><span class="nodeLabel markdown-node-label" style=""><p>Shape</p></span></div></foreignObject></g></g><g class="members-group text" transform="translate(-90.32421875, -24)"><g class="label" style="" transform="translate(0,-12)"><foreignObject width="90.84375" height="24"><div xmlns="http://www.w3.org/1999/xhtml" style="display: table-cell; white-space: nowrap; line-height: 1.5; max-width: 140px; text-align: center;"><span class="nodeLabel markdown-node-label" style=""><p>+String color</p></span></div></foreignObject></g><g class="label" style="" transform="translate(0,12)"><foreignObject width="67.671875" height="24"><div xmlns="http://www.w3.org/1999/xhtml" style="display: table-cell; white-space: nowrap; line-height: 1.5; max-width: 116px; text-align: center;"><span class="nodeLabel markdown-node-label" style=""><p>+f64 area</p></span></div></foreignObject></g></g><g class="methods-group text" transform="translate(-90.32421875, 48)"><g class="label" style="font-style:italic;" transform="translate(0,-12)"><foreignObject width="158.296875" height="24"><div xmlns="http://www.w3.org/1999/xhtml" style="display: table-cell; white-space: nowrap; line-height: 1.5; max-width: 196px; text-align: center;"><span class="nodeLabel markdown-node-label" style=""><p>+calculateArea() : f64</p></span></div></foreignObject></g><g class="label" style="" transform="translate(0,12)"><foreignObject width="137.71875" height="24"><div xmlns="http://www.w3.org/1999/xhtml" style="display: table-cell; white-space: nowrap; line-height: 1.5; max-width: 179px; text-align: center;"><span class="nodeLabel markdown-node-label" style=""><p>+describe() : String</p></span></div></foreignObject></g></g><g class="divider" style=""><path d="M-102.32421875 -48 C-31.812890408148945 -48, 38.69843793370211 -48, 102.32421875 -48 M-102.32421875 -48 C-52.02923738968381 -48, -1.7342560293676144 -48, 102.32421875 -48" stroke="#9370DB" stroke-width="1.3" fill="none" stroke-dasharray="0 0" style=""/></g><g class="divider" style=""><path d="M-102.32421875 24 C-32.67089412970489 24, 36.98243049059022 24, 102.32421875 24 M-102.32421875 24 C-46.185692399215334 24, 9.952833951569332 24, 102.32421875 24" stroke="#9370DB" stroke-width="1.3" fill="none" stroke-dasharray="0 0" style=""/></g></g><g class="node default" id="classId-Rectangle-1" transform="translate(120.83984375, 382)"><g class="basic label-container"><path d="M-112.83984375 -108 L112.83984375 -108 L112.83984375 108 L-112.83984375 108" stroke="none" stroke-width="0" fill="#ECECFF" style=""/><path d="M-112.83984375 -108 C-37.750009501126996 -108, 37.33982474774601 -108, 112.83984375 -108 M-112.83984375 -108 C-64.24713551923594 -108, -15.65442728847188 -108, 112.83984375 -108 M112.83984375 -108 C112.83984375 -25.4259488783798, 112.83984375 57.1481022432404, 112.83984375 108 M112.83984375 -108 C112.83984375 -30.858766987218345, 112.83984375 46.28246602556331, 112.83984375 108 M112.83984375 108 C23.397978248194306 108, -66.04388725361139 108, -112.83984375 108 M112.83984375 108 C40.71814451971845 108, -31.4035547105631 108, -112.83984375 108 M-112.83984375 108 C-112.83984375 22.112919893516604, -112.83984375 -63.77416021296679, -112.83984375 -108 M-112.83984375 108 C-112.83984375 25.909865338286025, -112.83984375 -56.18026932342795, -112.83984375 -108" stroke="#9370DB" stroke-width="1.3" fill="none" stroke-dasharray="0 0" style=""/></g><g class="annotation-group text" transform="translate(0, -84)"/><g class="label-group text" transform="translate(-36.7109375, -84)"><g class="label" style="font-weight: bolder" transform="translate(0,-12)"><foreignObject width="73.421875" height="24"><div xmlns="http://www.w3.org/1999/xhtml" style="display: table-cell; white-space: nowrap; line-height: 1.5; max-width: 114px; text-align: center;"><span class="nodeLabel markdown-node-label" style=""><p>Rectangle</p></span></div></foreignObject></g></g><g class="members-group text" transform="translate(-100.83984375, -36)"><g class="label" style="" transform="translate(0,-12)"><foreignObject width="76.375" height="24"><div xmlns="http://www.w3.org/1999/xhtml" style="display: table-cell; white-space: nowrap; line-height: 1.5; max-width: 125px; text-align: center;"><span class="nodeLabel markdown-node-label" style=""><p>+f64 width</p></span></div></foreignObject></g><g class="label" style="" transform="translate(0,12)"><foreignObject width="81.0625" height="24"><div xmlns="http://www.w3.org/1999/xhtml" style="display: table-cell; white-space: nowrap; line-height: 1.5; max-width: 129px; text-align: center;"><span class="nodeLabel markdown-node-label" style=""><p>+f64 height</p></span></div></foreignObject></g></g><g class="methods-group text" transform="translate(-100.83984375, 36)"><g class="label" style="" transform="translate(0,-12)"><foreignObject width="164.96875" height="24"><div xmlns="http://www.w3.org/1999/xhtml" style="display: table-cell; white-space: nowrap; line-height: 1.5; max-width: 204px; text-align: center;"><span class="nodeLabel markdown-node-label" style=""><p>+new(w, h) : Rectangle</p></span></div></foreignObject></g><g class="label" style="" transform="translate(0,12)"><foreignObject width="90.109375" height="24"><div xmlns="http://www.w3.org/1999/xhtml" style="display: table-cell; white-space: nowrap; line-height: 1.5; max-width: 135px; text-align: center;"><span class="nodeLabel markdown-node-label" style=""><p>+area() : f64</p></span></div></foreignObject></g><g class="label" style="" transform="translate(0,36)"><foreignObject width="130.078125" height="24"><div xmlns="http://www.w3.org/1999/xhtml" style="display: table-cell; white-space: nowrap; line-height: 1.5; max-width: 169px; text-align: center;"><span class="nodeLabel markdown-node-label" style=""><p>+perimeter() : f64</p></span></div></foreignObject></g></g><g class="divider" style=""><path d="M-112.83984375 -60 C-34.809110876358005 -60, 43.22162199728399 -60, 112.83984375 -60 M-112.83984375 -60 C-39.29659558286748 -60, 34.246652584265036 -60, 112.83984375 -60" stroke="#9370DB" stroke-width="1.3" fill="none" stroke-dasharray="0 0" style=""/></g><g class="divider" style=""><path d="M-112.83984375 12 C-35.591158627445 12, 41.657526495110005 12, 112.83984375 12 M-112.83984375 12 C-60.99659172779462 12, -9.153339705589246 12, 112.83984375 12" stroke="#9370DB" stroke-width="1.3" fill="none" stroke-dasharray="0 0" style=""/></g></g><g class="node default" id="classId-Circle-2" transform="translate(428.671875, 382)"><g class="basic label-container"><path d="M-103.8671875 -96 L103.8671875 -96 L103.8671875 96 L-103.8671875 96" stroke="none" stroke-width="0" fill="#ECECFF" style=""/><path d="M-103.8671875 -96 C-56.086783134316356 -96, -8.306378768632712 -96, 103.8671875 -96 M-103.8671875 -96 C-38.418290776531805 -96, 27.03060594693639 -96, 103.8671875 -96 M103.8671875 -96 C103.8671875 -56.222907113126766, 103.8671875 -16.445814226253532, 103.8671875 96 M103.8671875 -96 C103.8671875 -51.36964112794735, 103.8671875 -6.739282255894693, 103.8671875 96 M103.8671875 96 C29.249279906095026 96, -45.36862768780995 96, -103.8671875 96 M103.8671875 96 C21.39366525709849 96, -61.07985698580302 96, -103.8671875 96 M-103.8671875 96 C-103.8671875 20.197683000545027, -103.8671875 -55.60463399890995, -103.8671875 -96 M-103.8671875 96 C-103.8671875 27.15730843909438, -103.8671875 -41.68538312181124, -103.8671875 -96" stroke="#9370DB" stroke-width="1.3" fill="none" stroke-dasharray="0 0" style=""/></g><g class="annotation-group text" transform="translate(0, -72)"/><g class="label-group text" transform="translate(-21.75, -72)"><g class="label" style="font-weight: bolder" transform="translate(0,-12)"><foreignObject width="43.5" height="24"><div xmlns="http://www.w3.org/1999/xhtml" style="display: table-cell; white-space: nowrap; line-height: 1.5; max-width: 89px; text-align: center;"><span class="nodeLabel markdown-node-label" style=""><p>Circle</p></span></div></foreignObject></g></g><g class="members-group text" transform="translate(-91.8671875, -24)"><g class="label" style="" transform="translate(0,-12)"><foreignObject width="79.234375" height="24"><div xmlns="http://www.w3.org/1999/xhtml" style="display: table-cell; white-space: nowrap; line-height: 1.5; max-width: 128px; text-align: center;"><span class="nodeLabel markdown-node-label" style=""><p>+f64 radius</p></span></div></foreignObject></g></g><g class="methods-group text" transform="translate(-91.8671875, 24)"><g class="label" style="" transform="translate(0,-12)"><foreignObject width="112.96875" height="24"><div xmlns="http://www.w3.org/1999/xhtml" style="display: table-cell; white-space: nowrap; line-height: 1.5; max-width: 158px; text-align: center;"><span class="nodeLabel markdown-node-label" style=""><p>+new(r) : Circle</p></span></div></foreignObject></g><g class="label" style="" transform="translate(0,12)"><foreignObject width="90.109375" height="24"><div xmlns="http://www.w3.org/1999/xhtml" style="display: table-cell; white-space: nowrap; line-height: 1.5; max-width: 135px; text-align: center;"><span class="nodeLabel markdown-node-label" style=""><p>+area() : f64</p></span></div></foreignObject></g><g class="label" style="" transform="translate(0,36)"><foreignObject width="161.984375" height="24"><div xmlns="http://www.w3.org/1999/xhtml" style="display: table-cell; white-space: nowrap; line-height: 1.5; max-width: 199px; text-align: center;"><span class="nodeLabel markdown-node-label" style=""><p>+circumference() : f64</p></span></div></foreignObject></g></g><g class="divider" style=""><path d="M-103.8671875 -48 C-20.94452877629213 -48, 61.97812994741574 -48, 103.8671875 -48 M-103.8671875 -48 C-46.58587485687173 -48, 10.695437786256534 -48, 103.8671875 -48" stroke="#9370DB" stroke-width="1.3" fill="none" stroke-dasharray="0 0" style=""/></g><g class="divider" style=""><path d="M-103.8671875 0 C-39.43981941695968 0, 24.98754866608064 0, 103.8671875 0 M-103.8671875 0 C-34.00733513993757 0, 35.85251722012487 0, 103.8671875 0" stroke="#9370DB" stroke-width="1.3" fill="none" stroke-dasharray="0 0" style=""/></g></g><g class="node default" id="classId-Drawable-3" transform="translate(384.1328125, 104)"><g class="basic label-container"><path d="M-66.4296875 -87 L66.4296875 -87 L66.4296875 87 L-66.4296875 87" stroke="none" stroke-width="0" fill="#ECECFF" style=""/><path d="M-66.4296875 -87 C-18.834190344156973 -87, 28.761306811686055 -87, 66.4296875 -87 M-66.4296875 -87 C-38.5625723996705 -87, -10.695457299341001 -87, 66.4296875 -87 M66.4296875 -87 C66.4296875 -44.86193958816374, 66.4296875 -2.723879176327486, 66.4296875 87 M66.4296875 -87 C66.4296875 -31.823910110189736, 66.4296875 23.352179779620528, 66.4296875 87 M66.4296875 87 C24.650048873283474 87, -17.129589753433052 87, -66.4296875 87 M66.4296875 87 C25.667980544128767 87, -15.093726411742466 87, -66.4296875 87 M-66.4296875 87 C-66.4296875 28.800690874422926, -66.4296875 -29.398618251154147, -66.4296875 -87 M-66.4296875 87 C-66.4296875 26.54053517548178, -66.4296875 -33.91892964903644, -66.4296875 -87" stroke="#9370DB" stroke-width="1.3" fill="none" stroke-dasharray="0 0" style=""/></g><g class="annotation-group text" transform="translate(-41.171875, -63)"><g class="label" style="" transform="translate(0,-12)"><foreignObject width="82.34375" height="24"><div xmlns="http://www.w3.org/1999/xhtml" style="display: table-cell; white-space: nowrap; line-height: 1.5; max-width: 122px; text-align: center;"><span class="nodeLabel markdown-node-label" style=""><p>«interface»</p></span></div></foreignObject></g></g><g class="label-group text" transform="translate(-34.7109375, -39)"><g class="label" style="font-weight: bolder" transform="translate(0,-12)"><foreignObject width="69.421875" height="24"><div xmlns="http://www.w3.org/1999/xhtml" style="display: table-cell; white-space: nowrap; line-height: 1.5; max-width: 112px; text-align: center;"><span class="nodeLabel markdown-node-label" style=""><p>Drawable</p></span></div></foreignObject></g></g><g class="members-group text" transform="translate(-54.4296875, 9)"/><g class="methods-group text" transform="translate(-54.4296875, 39)"><g class="label" style="font-style:italic;" transform="translate(0,-12)"><foreignObject width="56.03125" height="24"><div xmlns="http://www.w3.org/1999/xhtml" style="display: table-cell; white-space: nowrap; line-height: 1.5; max-width: 106px; text-align: center;"><span class="nodeLabel markdown-node-label" style=""><p>+draw()</p></span></div></foreignObject></g><g class="label" style="" transform="translate(0,12)"><foreignObject width="67.6875" height="24"><div xmlns="http://www.w3.org/1999/xhtml" style="display: table-cell; white-space: nowrap; line-height: 1.5; max-width: 115px; text-align: center;"><span class="nodeLabel markdown-node-label" style=""><p>+render()</p></span></div></foreignObject></g></g><g class="divider" style=""><path d="M-66.4296875 -15 C-20.537691060462173 -15, 25.354305379075655 -15, 66.4296875 -15 M-66.4296875 -15 C-37.91957811283474 -15, -9.409468725669477 -15, 66.4296875 -15" stroke="#9370DB" stroke-width="1.3" fill="none" stroke-dasharray="0 0" style=""/></g><g class="divider" style=""><path d="M-66.4296875 9 C-15.372135748036747 9, 35.685416003926505 9, 66.4296875 9 M-66.4296875 9 C-28.69642127948736 9, 9.03684494102528 9, 66.4296875 9" stroke="#9370DB" stroke-width="1.3" fill="none" stroke-dasharray="0 0" style=""/></g></g></g></g></g></svg>