<svg id="my-svg" width="100%" xmlns="http://www.w3.org/2000/svg" xmlns:xlink="http://www.w3.org/1999/xlink" class="classDiagram" style="max-width: 1931.95px; background-color: white;" viewBox="0 0 1931.953125 624" role="graphics-document document" aria-roledescription="class"><style>#my-svg{font-family:"trebuchet ms",verdana,arial,sans-serif;font-size:16px;fill:#333;}@keyframes edge-animation-frame{from{stroke-dashoffset:0;}}@keyframes dash{to{stroke-dashoffset:0;}}#my-svg .edge-animation-slow{stroke-dasharray:9,5!important;stroke-dashoffset:900;animation:dash 50s linear infinite;stroke-linecap:round;}#my-svg .edge-animation-fast{stroke-dasharray:9,5!important;stroke-dashoffset:900;animation:dash 20s linear infinite;stroke-linecap:round;}#my-svg .error-icon{fill:#552222;}#my-svg .error-text{fill:#552222;stroke:#552222;}#my-svg .edge-thickness-normal{stroke-width:1px;}#my-svg .edge-thickness-thick{stroke-width:3.5px;}#my-svg .edge-pattern-solid{stroke-dasharray:0;}#my-svg .edge-thickness-invisible{stroke-width:0;fill:none;}#my-svg .edge-pattern-dashed{stroke-dasharray:3;}#my-svg .edge-pattern-dotted{stroke-dasharray:2;}#my-svg .marker{fill:#333333;stroke:#333333;}#my-svg .marker.cross{stroke:#333333;}#my-svg svg{font-family:"trebuchet ms",verdana,arial,sans-serif;font-size:16px;}#my-svg p{margin:0;}#my-svg g.classGroup text{fill:#9370DB;stroke:none;font-family:"trebuchet ms",verdana,arial,sans-serif;font-size:10px;}#my-svg g.classGroup text .title{font-weight:bolder;}#my-svg .cluster-label text{fill:#333;}#my-svg .cluster-label span{color:#333;}#my-svg .cluster-label span p{background-color:transparent;}#my-svg .cluster rect{fill:#ffffde;stroke:#aaaa33;stroke-width:1px;}#my-svg .cluster text{fill:#333;}#my-svg .cluster span{color:#333;}#my-svg .nodeLabel,#my-svg .edgeLabel{color:#131300;}#my-svg .edgeLabel .label rect{fill:#ECECFF;}#my-svg .label text{fill:#131300;}#my-svg .labelBkg{background:#ECECFF;}#my-svg .edgeLabel .label span{background:#ECECFF;}#my-svg .classTitle{font-weight:bolder;}#my-svg .node rect,#my-svg .node circle,#my-svg .node ellipse,#my-svg .node polygon,#my-svg .node path{fill:#ECECFF;stroke:#9370DB;stroke-width:1px;}#my-svg .divider{stroke:#9370DB;stroke-width:1;}#my-svg g.clickable{cursor:pointer;}#my-svg g.classGroup rect{fill:#ECECFF;stroke:#9370DB;}#my-svg g.classGroup line{stroke:#9370DB;stroke-width:1;}#my-svg .classLabel .box{stroke:none;stroke-width:0;fill:#ECECFF;opacity:0.5;}#my-svg .classLabel .label{fill:#9370DB;font-size:10px;}#my-svg .relation{stroke:#333333;stroke-width:1;fill:none;}#my-svg .dashed-line{stroke-dasharray:3;}#my-svg .dotted-line{stroke-dasharray:1 2;}#my-svg #compositionStart,#my-svg .composition{fill:#333333!important;stroke:#333333!important;stroke-width:1;}#my-svg #compositionEnd,#my-svg .composition{fill:#333333!important;stroke:#333333!important;stroke-width:1;}#my-svg #dependencyStart,#my-svg .dependency{fill:#333333!important;stroke:#333333!important;stroke-width:1;}#my-svg #dependencyStart,#my-svg .dependency{fill:#333333!important;stroke:#333333!important;stroke-width:1;}#my-svg #extensionStart,#my-svg .extension{fill:transparent!important;stroke:#333333!important;stroke-width:1;}#my-svg #extensionEnd,#my-svg .extension{fill:transparent!important;stroke:#333333!important;stroke-width:1;}#my-svg #aggregationStart,#my-svg .aggregation{fill:transparent!important;stroke:#333333!important;stroke-width:1;}#my-svg #aggregationEnd,#my-svg .aggregation{fill:transparent!important;stroke:#333333!important;stroke-width:1;}#my-svg #lollipopStart,#my-svg .lollipop{fill:#ECECFF!important;stroke:#333333!important;stroke-width:1;}#my-svg #lollipopEnd,#my-svg .lollipop{fill:#ECECFF!important;stroke:#333333!important;stroke-width:1;}#my-svg .edgeTerminals{font-size:11px;line-height:initial;}#my-svg .classTitleText{text-anchor:middle;font-size:18px;fill:#333;}#my-svg .label-icon{display:inline-block;height:1em;overflow:visible;vertical-align:-0.125em;}#my-svg .node .label-icon path{fill:currentColor;stroke:revert;stroke-width:revert;}#my-svg :root{--mermaid-font-family:"trebuchet ms",verdana,arial,sans-serif;}</style><g><defs><marker id="my-svg_class-aggregationStart" class="marker aggregation class" refX="18" refY="7" markerWidth="190" markerHeight="240" orient="auto"><path d="M 18,7 L9,13 L1,7 L9,1 Z"/></marker></defs><defs><marker id="my-svg_class-aggregationEnd" class="marker aggregation class" refX="1" refY="7" markerWidth="20" markerHeight="28" orient="auto"><path d="M 18,7 L9,13 L1,7 L9,1 Z"/></marker></defs><defs><marker id="my-svg_class-extensionStart" class="marker extension class" refX="18" refY="7" markerWidth="190" markerHeight="240" orient="auto"><path d="M 1,7 L18,13 V 1 Z"/></marker></defs><defs><marker id="my-svg_class-extensionEnd" class="marker extension class" refX="1" refY="7" markerWidth="20" markerHeight="28" orient="auto"><path d="M 1,1 V 13 L18,7 Z"/></marker></defs><defs><marker id="my-svg_class-compositionStart" class="marker composition class" refX="18" refY="7" markerWidth="190" markerHeight="240" orient="auto"><path d="M 18,7 L9,13 L1,7 L9,1 Z"/></marker></defs><defs><marker id="my-svg_class-compositionEnd" class="marker composition class" refX="1" refY="7" markerWidth="20" markerHeight="28" orient="auto"><path d="M 18,7 L9,13 L1,7 L9,1 Z"/></marker></defs><defs><marker id="my-svg_class-dependencyStart" class="marker dependency class" refX="6" refY="7" markerWidth="190" markerHeight="240" orient="auto"><path d="M 5,7 L9,13 L1,7 L9,1 Z"/></marker></defs><defs><marker id="my-svg_class-dependencyEnd" class="marker dependency class" refX="13" refY="7" markerWidth="20" markerHeight="28" orient="auto"><path d="M 18,7 L9,13 L14,7 L9,1 Z"/></marker></defs><defs><marker id="my-svg_class-lollipopStart" class="marker lollipop class" refX="13" refY="7" markerWidth="190" markerHeight="240" orient="auto"><circle fill="transparent" cx="7" cy="7" r="6"/></marker></defs><defs><marker id="my-svg_class-lollipopEnd" class="marker lollipop class" refX="1" refY="7" markerWidth="190" markerHeight="240" orient="auto"><circle fill="transparent" cx="7" cy="7" r="6"/></marker></defs><g class="root"><g class="clusters"/><g class="edgePaths"><path d="M458.595,339.572L457.466,343.477C456.338,347.381,454.081,355.191,452.953,376.262C451.824,397.333,451.824,431.667,451.824,448.833L451.824,466" id="id_Option_Some_1" class="edge-thickness-normal edge-pattern-solid relation" style=";;;" data-edge="true" data-et="edge" data-id="id_Option_Some_1" data-points="W3sieCI6NDYzLjM4MzUyOTk3NDQ4OTgsInkiOjMyM30seyJ4Ijo0NTEuODI0MjE4NzUsInkiOjM2M30seyJ4Ijo0NTEuODI0MjE4NzUsInkiOjQ2Nn1d" marker-start="url(#my-svg_class-extensionStart)"/><path d="M598.457,338.27L600.623,342.392C602.789,346.514,607.12,354.757,609.286,376.045C611.451,397.333,611.451,431.667,611.451,448.833L611.451,466" id="id_Option_None_2" class="edge-thickness-normal edge-pattern-solid relation" style=";;;" data-edge="true" data-et="edge" data-id="id_Option_None_2" data-points="W3sieCI6NTkwLjQzMzU1Mzg5MDMwNjEsInkiOjMyM30seyJ4Ijo2MTEuNDUxMTcxODc1LCJ5IjozNjN9LHsieCI6NjExLjQ1MTE3MTg3NSwieSI6NDY2fV0=" marker-start="url(#my-svg_class-extensionStart)"/><path d="M726.064,341.27L724.161,344.892C722.258,348.514,718.452,355.757,716.549,376.545C714.646,397.333,714.646,431.667,714.646,448.833L714.646,466" id="id_Result_Ok_3" class="edge-thickness-normal edge-pattern-solid relation" style=";;;" data-edge="true" data-et="edge" data-id="id_Result_Ok_3" data-points="W3sieCI6NzM0LjA4Nzc4MTAxMDg0MTgsInkiOjMyNn0seyJ4Ijo3MTQuNjQ2NDg0Mzc1LCJ5IjozNjN9LHsieCI6NzE0LjY0NjQ4NDM3NSwieSI6NDY2fV0=" marker-start="url(#my-svg_class-extensionStart)"/><path d="M860.407,342.761L861.227,346.134C862.048,349.507,863.69,356.254,864.511,376.793C865.332,397.333,865.332,431.667,865.332,448.833L865.332,466" id="id_Result_Err_4" class="edge-thickness-normal edge-pattern-solid relation" style=";;;" data-edge="true" data-et="edge" data-id="id_Result_Err_4" data-points="W3sieCI6ODU2LjMyNzU4Njg5NDEzMjcsInkiOjMyNn0seyJ4Ijo4NjUuMzMyMDMxMjUsInkiOjM2M30seyJ4Ijo4NjUuMzMyMDMxMjUsInkiOjQ2Nn1d" marker-start="url(#my-svg_class-extensionStart)"/><path d="M1145.715,271.25L1145.715,286.542C1145.715,301.833,1145.715,332.417,1145.715,353.875C1145.715,375.333,1145.715,387.667,1145.715,393.833L1145.715,400" id="id_GenericTrait_GenericStruct_5" class="edge-thickness-normal edge-pattern-dashed relation" style=";;;" data-edge="true" data-et="edge" data-id="id_GenericTrait_GenericStruct_5" data-points="W3sieCI6MTE0NS43MTQ4NDM3NSwieSI6MjU0fSx7IngiOjExNDUuNzE0ODQzNzUsInkiOjM2M30seyJ4IjoxMTQ1LjcxNDg0Mzc1LCJ5Ijo0MDB9XQ==" marker-start="url(#my-svg_class-extensionStart)"/></g><g class="edgeLabels"><g class="edgeLabel" transform="translate(451.82421875, 363)"><g class="label" data-id="id_Option_Some_1" transform="translate(-25.2578125, -12)"><foreignObject width="50.515625" height="24"><div xmlns="http://www.w3.org/1999/xhtml" class="labelBkg" style="display: table-cell; white-space: nowrap; line-height: 1.5; max-width: 200px; text-align: center;"><span class="edgeLabel"><p>variant</p></span></div></foreignObject></g></g><g class="edgeLabel" transform="translate(611.451171875, 363)"><g class="label" data-id="id_Option_None_2" transform="translate(-25.2578125, -12)"><foreignObject width="50.515625" height="24"><div xmlns="http://www.w3.org/1999/xhtml" class="labelBkg" style="display: table-cell; white-space: nowrap; line-height: 1.5; max-width: 200px; text-align: center;"><span class="edgeLabel"><p>variant</p></span></div></foreignObject></g></g><g class="edgeLabel" transform="translate(714.646484375, 363)"><g class="label" data-id="id_Result_Ok_3" transform="translate(-25.2578125, -12)"><foreignObject width="50.515625" height="24"><div xmlns="http://www.w3.org/1999/xhtml" class="labelBkg" style="display: table-cell; white-space: nowrap; line-height: 1.5; max-width: 200px; text-align: center;"><span class="edgeLabel"><p>variant</p></span></div></foreignObject></g></g><g class="edgeLabel" transform="translate(865.33203125, 363)"><g class="label" data-id="id_Result_Err_4" transform="translate(-25.2578125, -12)"><foreignObject width="50.515625" height="24"><div xmlns="http://www.w3.org/1999/xhtml" class="labelBkg" style="display: table-cell; white-space: nowrap; line-height: 1.5; max-width: 200px; text-align: center;"><span class="edgeLabel"><p>variant</p></span></div></foreignObject></g></g><g class="edgeLabel" transform="translate(1145.71484375, 363)"><g class="label" data-id="id_GenericTrait_GenericStruct_5" transform="translate(-41.890625, -12)"><foreignObject width="83.78125" height="24"><div xmlns="http://www.w3.org/1999/xhtml" class="labelBkg" style="display: table-cell; white-space: nowrap; line-height: 1.5; max-width: 200px; text-align: center;"><span class="edgeLabel"><p>implements</p></span></div></foreignObject></g></g></g><g class="nodes"><g class="node default" id="classId-titleChapter6-0" transform="translate(169.328125, 167)"><g class="basic label-container"><path d="M-161.328125 -60 L161.328125 -60 L161.328125 60 L-161.328125 60" stroke="none" stroke-width="0" fill="#ECECFF" style=""/><path d="M-161.328125 -60 C-80.77731807269664 -60, -0.22651114539328887 -60, 161.328125 -60 M-161.328125 -60 C-82.64994558539031 -60, -3.9717661707806258 -60, 161.328125 -60 M161.328125 -60 C161.328125 -12.015730032658354, 161.328125 35.96853993468329, 161.328125 60 M161.328125 -60 C161.328125 -23.19681235222197, 161.328125 13.606375295556063, 161.328125 60 M161.328125 60 C69.75840347783047 60, -21.81131804433906 60, -161.328125 60 M161.328125 60 C82.70132702178404 60, 4.074529043568077 60, -161.328125 60 M-161.328125 60 C-161.328125 25.089432848661303, -161.328125 -9.821134302677393, -161.328125 -60 M-161.328125 60 C-161.328125 12.794782555775079, -161.328125 -34.41043488844984, -161.328125 -60" stroke="#9370DB" stroke-width="1.3" fill="none" stroke-dasharray="0 0" style=""/></g><g class="annotation-group text" transform="translate(0, -36)"/><g class="label-group text" transform="translate(-50.125, -36)"><g class="label" style="font-weight: bolder" transform="translate(0,-12)"><foreignObject width="100.25" height="24"><div xmlns="http://www.w3.org/1999/xhtml" style="display: table-cell; white-space: nowrap; line-height: 1.5; max-width: 134px; text-align: center;"><span class="nodeLabel markdown-node-label" style=""><p>titleChapter6</p></span></div></foreignObject></g></g><g class="members-group text" transform="translate(-149.328125, 12)"><g class="label" style="" transform="translate(0,-12)"><foreignObject width="248.53125" height="24"><div xmlns="http://www.w3.org/1999/xhtml" style="display: table-cell; white-space: nowrap; line-height: 1.5; max-width: 276px; text-align: center;"><span class="nodeLabel markdown-node-label" style=""><p>Generics and Option/Result Enums</p></span></div></foreignObject></g></g><g class="methods-group text" transform="translate(-149.328125, 60)"/><g class="divider" style=""><path d="M-161.328125 -12 C-37.72570057406048 -12, 85.87672385187904 -12, 161.328125 -12 M-161.328125 -12 C-68.52539680731527 -12, 24.27733138536945 -12, 161.328125 -12" stroke="#9370DB" stroke-width="1.3" fill="none" stroke-dasharray="0 0" style=""/></g><g class="divider" style=""><path d="M-161.328125 36 C-92.06537245091451 36, -22.80261990182902 36, 161.328125 36 M-161.328125 36 C-89.83870928805611 36, -18.349293576112217 36, 161.328125 36" stroke="#9370DB" stroke-width="1.3" fill="none" stroke-dasharray="0 0" style=""/></g></g><g class="node default" id="classId-Option-1" transform="translate(508.46484375, 167)"><g class="basic label-container"><path d="M-127.80859375 -156 L127.80859375 -156 L127.80859375 156 L-127.80859375 156" stroke="none" stroke-width="0" fill="#ECECFF" style=""/><path d="M-127.80859375 -156 C-55.08655275492565 -156, 17.635488240148703 -156, 127.80859375 -156 M-127.80859375 -156 C-46.7442632700553 -156, 34.3200672098894 -156, 127.80859375 -156 M127.80859375 -156 C127.80859375 -57.450924140121714, 127.80859375 41.09815171975657, 127.80859375 156 M127.80859375 -156 C127.80859375 -56.30518727600156, 127.80859375 43.38962544799688, 127.80859375 156 M127.80859375 156 C47.22481229563681 156, -33.35896915872638 156, -127.80859375 156 M127.80859375 156 C57.17454924632878 156, -13.45949525734244 156, -127.80859375 156 M-127.80859375 156 C-127.80859375 62.72549427916995, -127.80859375 -30.5490114416601, -127.80859375 -156 M-127.80859375 156 C-127.80859375 73.04453858407882, -127.80859375 -9.910922831842356, -127.80859375 -156" stroke="#9370DB" stroke-width="1.3" fill="none" stroke-dasharray="0 0" style=""/></g><g class="annotation-group text" transform="translate(-28.140625, -132)"><g class="label" style="" transform="translate(0,-12)"><foreignObject width="56.28125" height="24"><div xmlns="http://www.w3.org/1999/xhtml" style="display: table-cell; white-space: nowrap; line-height: 1.5; max-width: 102px; text-align: center;"><span class="nodeLabel markdown-node-label" style=""><p>«enum»</p></span></div></foreignObject></g></g><g class="label-group text" transform="translate(-39.3671875, -108)"><g class="label" style="font-weight: bolder" transform="translate(0,-12)"><foreignObject width="78.734375" height="24"><div xmlns="http://www.w3.org/1999/xhtml" style="display: table-cell; white-space: nowrap; line-height: 1.5; max-width: 159px; text-align: center;"><span class="nodeLabel markdown-node-label" style=""><p>Option&lt;T&gt;</p></span></div></foreignObject></g></g><g class="members-group text" transform="translate(-115.80859375, -60)"><g class="label" style="" transform="translate(0,-12)"><foreignObject width="44.65625" height="24"><div xmlns="http://www.w3.org/1999/xhtml" style="display: table-cell; white-space: nowrap; line-height: 1.5; max-width: 98px; text-align: center;"><span class="nodeLabel markdown-node-label" style=""><p>+None</p></span></div></foreignObject></g></g><g class="methods-group text" transform="translate(-115.80859375, -12)"><g class="label" style="" transform="translate(0,-12)"><foreignObject width="67.71875" height="24"><div xmlns="http://www.w3.org/1999/xhtml" style="display: table-cell; white-space: nowrap; line-height: 1.5; max-width: 120px; text-align: center;"><span class="nodeLabel markdown-node-label" style=""><p>+Some(T)</p></span></div></foreignObject></g><g class="label" style="" transform="translate(0,12)"><foreignObject width="122.96875" height="24"><div xmlns="http://www.w3.org/1999/xhtml" style="display: table-cell; white-space: nowrap; line-height: 1.5; max-width: 168px; text-align: center;"><span class="nodeLabel markdown-node-label" style=""><p>+is_some() : bool</p></span></div></foreignObject></g><g class="label" style="" transform="translate(0,36)"><foreignObject width="120.6875" height="24"><div xmlns="http://www.w3.org/1999/xhtml" style="display: table-cell; white-space: nowrap; line-height: 1.5; max-width: 165px; text-align: center;"><span class="nodeLabel markdown-node-label" style=""><p>+is_none() : bool</p></span></div></foreignObject></g><g class="label" style="" transform="translate(0,60)"><foreignObject width="97.59375" height="24"><div xmlns="http://www.w3.org/1999/xhtml" style="display: table-cell; white-space: nowrap; line-height: 1.5; max-width: 144px; text-align: center;"><span class="nodeLabel markdown-node-label" style=""><p>+unwrap() : T</p></span></div></foreignObject></g><g class="label" style="" transform="translate(0,84)"><foreignObject width="192.25" height="24"><div xmlns="http://www.w3.org/1999/xhtml" style="display: table-cell; white-space: nowrap; line-height: 1.5; max-width: 228px; text-align: center;"><span class="nodeLabel markdown-node-label" style=""><p>+unwrap_or(default: T) : T</p></span></div></foreignObject></g><g class="label" style="" transform="translate(0,108)"><foreignObject width="149.75" height="24"><div xmlns="http://www.w3.org/1999/xhtml" style="display: table-cell; white-space: nowrap; line-height: 1.5; max-width: 234px; text-align: center;"><span class="nodeLabel markdown-node-label" style=""><p>+map(F) : Option&lt;U&gt;</p></span></div></foreignObject></g><g class="label" style="" transform="translate(0,132)"><foreignObject width="186.15625" height="24"><div xmlns="http://www.w3.org/1999/xhtml" style="display: table-cell; white-space: nowrap; line-height: 1.5; max-width: 265px; text-align: center;"><span class="nodeLabel markdown-node-label" style=""><p>+and_then(F) : Option&lt;U&gt;</p></span></div></foreignObject></g></g><g class="divider" style=""><path d="M-127.80859375 -84 C-50.4646934086914 -84, 26.879206932617194 -84, 127.80859375 -84 M-127.80859375 -84 C-65.07840072417923 -84, -2.3482076983584506 -84, 127.80859375 -84" stroke="#9370DB" stroke-width="1.3" fill="none" stroke-dasharray="0 0" style=""/></g><g class="divider" style=""><path d="M-127.80859375 -36 C-69.4394436836765 -36, -11.070293617352988 -36, 127.80859375 -36 M-127.80859375 -36 C-49.68039685070393 -36, 28.447800048592143 -36, 127.80859375 -36" stroke="#9370DB" stroke-width="1.3" fill="none" stroke-dasharray="0 0" style=""/></g></g><g class="node default" id="classId-Result-2" transform="translate(817.6328125, 167)"><g class="basic label-container"><path d="M-131.359375 -159 L131.359375 -159 L131.359375 159 L-131.359375 159" stroke="none" stroke-width="0" fill="#ECECFF" style=""/><path d="M-131.359375 -159 C-35.84277684420948 -159, 59.67382131158104 -159, 131.359375 -159 M-131.359375 -159 C-61.2842969354856 -159, 8.790781129028801 -159, 131.359375 -159 M131.359375 -159 C131.359375 -40.75878803681999, 131.359375 77.48242392636001, 131.359375 159 M131.359375 -159 C131.359375 -50.813009582004725, 131.359375 57.37398083599055, 131.359375 159 M131.359375 159 C76.77108633467978 159, 22.182797669359545 159, -131.359375 159 M131.359375 159 C30.06388995237039 159, -71.23159509525922 159, -131.359375 159 M-131.359375 159 C-131.359375 65.01649836790642, -131.359375 -28.967003264187156, -131.359375 -159 M-131.359375 159 C-131.359375 53.277744847872626, -131.359375 -52.44451030425475, -131.359375 -159" stroke="#9370DB" stroke-width="1.3" fill="none" stroke-dasharray="0 0" style=""/></g><g class="annotation-group text" transform="translate(-28.140625, -135)"><g class="label" style="" transform="translate(0,-12)"><foreignObject width="56.28125" height="24"><div xmlns="http://www.w3.org/1999/xhtml" style="display: table-cell; white-space: nowrap; line-height: 1.5; max-width: 102px; text-align: center;"><span class="nodeLabel markdown-node-label" style=""><p>«enum»</p></span></div></foreignObject></g></g><g class="label-group text" transform="translate(-46.46875, -111)"><g class="label" style="font-weight: bolder" transform="translate(0,-12)"><foreignObject width="92.9375" height="24"><div xmlns="http://www.w3.org/1999/xhtml" style="display: table-cell; white-space: nowrap; line-height: 1.5; max-width: 172px; text-align: center;"><span class="nodeLabel markdown-node-label" style=""><p>Result&lt;T, E&gt;</p></span></div></foreignObject></g></g><g class="members-group text" transform="translate(-119.359375, -63)"/><g class="methods-group text" transform="translate(-119.359375, -33)"><g class="label" style="" transform="translate(0,-12)"><foreignObject width="48.28125" height="24"><div xmlns="http://www.w3.org/1999/xhtml" style="display: table-cell; white-space: nowrap; line-height: 1.5; max-width: 103px; text-align: center;"><span class="nodeLabel markdown-node-label" style=""><p>+Ok(T)</p></span></div></foreignObject></g><g class="label" style="" transform="translate(0,12)"><foreignObject width="49.71875" height="24"><div xmlns="http://www.w3.org/1999/xhtml" style="display: table-cell; white-space: nowrap; line-height: 1.5; max-width: 104px; text-align: center;"><span class="nodeLabel markdown-node-label" style=""><p>+Err(E)</p></span></div></foreignObject></g><g class="label" style="" transform="translate(0,36)"><foreignObject width="102.546875" height="24"><div xmlns="http://www.w3.org/1999/xhtml" style="display: table-cell; white-space: nowrap; line-height: 1.5; max-width: 150px; text-align: center;"><span class="nodeLabel markdown-node-label" style=""><p>+is_ok() : bool</p></span></div></foreignObject></g><g class="label" style="" transform="translate(0,60)"><foreignObject width="107.0625" height="24"><div xmlns="http://www.w3.org/1999/xhtml" style="display: table-cell; white-space: nowrap; line-height: 1.5; max-width: 152px; text-align: center;"><span class="nodeLabel markdown-node-label" style=""><p>+is_err() : bool</p></span></div></foreignObject></g><g class="label" style="" transform="translate(0,84)"><foreignObject width="97.59375" height="24"><div xmlns="http://www.w3.org/1999/xhtml" style="display: table-cell; white-space: nowrap; line-height: 1.5; max-width: 144px; text-align: center;"><span class="nodeLabel markdown-node-label" style=""><p>+unwrap() : T</p></span></div></foreignObject></g><g class="label" style="" transform="translate(0,108)"><foreignObject width="126.71875" height="24"><div xmlns="http://www.w3.org/1999/xhtml" style="display: table-cell; white-space: nowrap; line-height: 1.5; max-width: 170px; text-align: center;"><span class="nodeLabel markdown-node-label" style=""><p>+unwrap_err() : E</p></span></div></foreignObject></g><g class="label" style="" transform="translate(0,132)"><foreignObject width="192.25" height="24"><div xmlns="http://www.w3.org/1999/xhtml" style="display: table-cell; white-space: nowrap; line-height: 1.5; max-width: 228px; text-align: center;"><span class="nodeLabel markdown-node-label" style=""><p>+unwrap_or(default: T) : T</p></span></div></foreignObject></g><g class="label" style="" transform="translate(0,156)"><foreignObject width="164.75" height="24"><div xmlns="http://www.w3.org/1999/xhtml" style="display: table-cell; white-space: nowrap; line-height: 1.5; max-width: 248px; text-align: center;"><span class="nodeLabel markdown-node-label" style=""><p>+map(F) : Result&lt;U, E&gt;</p></span></div></foreignObject></g></g><g class="divider" style=""><path d="M-131.359375 -87 C-60.391424706866914 -87, 10.576525586266172 -87, 131.359375 -87 M-131.359375 -87 C-64.66916582818801 -87, 2.0210433436239725 -87, 131.359375 -87" stroke="#9370DB" stroke-width="1.3" fill="none" stroke-dasharray="0 0" style=""/></g><g class="divider" style=""><path d="M-131.359375 -63 C-58.55189902188535 -63, 14.255576956229305 -63, 131.359375 -63 M-131.359375 -63 C-53.90239059875414 -63, 23.554593802491723 -63, 131.359375 -63" stroke="#9370DB" stroke-width="1.3" fill="none" stroke-dasharray="0 0" style=""/></g></g><g class="node default" id="classId-GenericStruct-3" transform="translate(1145.71484375, 508)"><g class="basic label-container"><path d="M-169.17578125 -108 L169.17578125 -108 L169.17578125 108 L-169.17578125 108" stroke="none" stroke-width="0" fill="#ECECFF" style=""/><path d="M-169.17578125 -108 C-94.25287399096553 -108, -19.32996673193105 -108, 169.17578125 -108 M-169.17578125 -108 C-96.94889039059112 -108, -24.721999531182234 -108, 169.17578125 -108 M169.17578125 -108 C169.17578125 -63.54068340009777, 169.17578125 -19.08136680019554, 169.17578125 108 M169.17578125 -108 C169.17578125 -47.04891516157358, 169.17578125 13.902169676852836, 169.17578125 108 M169.17578125 108 C89.30405069023242 108, 9.43232013046483 108, -169.17578125 108 M169.17578125 108 C98.06464832529134 108, 26.95351540058269 108, -169.17578125 108 M-169.17578125 108 C-169.17578125 63.754119102382745, -169.17578125 19.50823820476549, -169.17578125 -108 M-169.17578125 108 C-169.17578125 30.6429267587105, -169.17578125 -46.714146482579, -169.17578125 -108" stroke="#9370DB" stroke-width="1.3" fill="none" stroke-dasharray="0 0" style=""/></g><g class="annotation-group text" transform="translate(-29.4140625, -84)"><g class="label" style="" transform="translate(0,-12)"><foreignObject width="58.828125" height="24"><div xmlns="http://www.w3.org/1999/xhtml" style="display: table-cell; white-space: nowrap; line-height: 1.5; max-width: 102px; text-align: center;"><span class="nodeLabel markdown-node-label" style=""><p>«struct»</p></span></div></foreignObject></g></g><g class="label-group text" transform="translate(-66.1328125, -60)"><g class="label" style="font-weight: bolder" transform="translate(0,-12)"><foreignObject width="132.265625" height="24"><div xmlns="http://www.w3.org/1999/xhtml" style="display: table-cell; white-space: nowrap; line-height: 1.5; max-width: 204px; text-align: center;"><span class="nodeLabel markdown-node-label" style=""><p>GenericStruct&lt;T&gt;</p></span></div></foreignObject></g></g><g class="members-group text" transform="translate(-157.17578125, -12)"><g class="label" style="" transform="translate(0,-12)"><foreignObject width="64" height="24"><div xmlns="http://www.w3.org/1999/xhtml" style="display: table-cell; white-space: nowrap; line-height: 1.5; max-width: 113px; text-align: center;"><span class="nodeLabel markdown-node-label" style=""><p>-value: T</p></span></div></foreignObject></g></g><g class="methods-group text" transform="translate(-157.17578125, 36)"><g class="label" style="" transform="translate(0,-12)"><foreignObject width="248.21875" height="24"><div xmlns="http://www.w3.org/1999/xhtml" style="display: table-cell; white-space: nowrap; line-height: 1.5; max-width: 320px; text-align: center;"><span class="nodeLabel markdown-node-label" style=""><p>+new(value: T) : GenericStruct&lt;T&gt;</p></span></div></foreignObject></g><g class="label" style="" transform="translate(0,12)"><foreignObject width="126.171875" height="24"><div xmlns="http://www.w3.org/1999/xhtml" style="display: table-cell; white-space: nowrap; line-height: 1.5; max-width: 171px; text-align: center;"><span class="nodeLabel markdown-node-label" style=""><p>+get_value() : &amp;T</p></span></div></foreignObject></g><g class="label" style="" transform="translate(0,36)"><foreignObject width="146.640625" height="24"><div xmlns="http://www.w3.org/1999/xhtml" style="display: table-cell; white-space: nowrap; line-height: 1.5; max-width: 187px; text-align: center;"><span class="nodeLabel markdown-node-label" style=""><p>+set_value(value: T)</p></span></div></foreignObject></g></g><g class="divider" style=""><path d="M-169.17578125 -36 C-35.4078546363487 -36, 98.3600719773026 -36, 169.17578125 -36 M-169.17578125 -36 C-85.79306375065526 -36, -2.4103462513105285 -36, 169.17578125 -36" stroke="#9370DB" stroke-width="1.3" fill="none" stroke-dasharray="0 0" style=""/></g><g class="divider" style=""><path d="M-169.17578125 12 C-49.18961675414205 12, 70.7965477417159 12, 169.17578125 12 M-169.17578125 12 C-98.42338359100424 12, -27.670985932008477 12, 169.17578125 12" stroke="#9370DB" stroke-width="1.3" fill="none" stroke-dasharray="0 0" style=""/></g></g><g class="node default" id="classId-GenericTrait-4" transform="translate(1145.71484375, 167)"><g class="basic label-container"><path d="M-136.83984375 -87 L136.83984375 -87 L136.83984375 87 L-136.83984375 87" stroke="none" stroke-width="0" fill="#ECECFF" style=""/><path d="M-136.83984375 -87 C-69.51756740878191 -87, -2.1952910675638293 -87, 136.83984375 -87 M-136.83984375 -87 C-71.26744310544703 -87, -5.695042460894058 -87, 136.83984375 -87 M136.83984375 -87 C136.83984375 -20.69770571074659, 136.83984375 45.60458857850682, 136.83984375 87 M136.83984375 -87 C136.83984375 -35.28784894520383, 136.83984375 16.424302109592347, 136.83984375 87 M136.83984375 87 C43.541355927375264 87, -49.75713189524947 87, -136.83984375 87 M136.83984375 87 C65.59919654033548 87, -5.641450669329032 87, -136.83984375 87 M-136.83984375 87 C-136.83984375 51.15153936793145, -136.83984375 15.303078735862897, -136.83984375 -87 M-136.83984375 87 C-136.83984375 32.70449101235827, -136.83984375 -21.591017975283464, -136.83984375 -87" stroke="#9370DB" stroke-width="1.3" fill="none" stroke-dasharray="0 0" style=""/></g><g class="annotation-group text" transform="translate(-24.328125, -63)"><g class="label" style="" transform="translate(0,-12)"><foreignObject width="48.65625" height="24"><div xmlns="http://www.w3.org/1999/xhtml" style="display: table-cell; white-space: nowrap; line-height: 1.5; max-width: 92px; text-align: center;"><span class="nodeLabel markdown-node-label" style=""><p>«trait»</p></span></div></foreignObject></g></g><g class="label-group text" transform="translate(-60.5234375, -39)"><g class="label" style="font-weight: bolder" transform="translate(0,-12)"><foreignObject width="121.046875" height="24"><div xmlns="http://www.w3.org/1999/xhtml" style="display: table-cell; white-space: nowrap; line-height: 1.5; max-width: 196px; text-align: center;"><span class="nodeLabel markdown-node-label" style=""><p>GenericTrait&lt;T&gt;</p></span></div></foreignObject></g></g><g class="members-group text" transform="translate(-124.83984375, 9)"/><g class="methods-group text" transform="translate(-124.83984375, 39)"><g class="label" style="" transform="translate(0,-12)"><foreignObject width="189.15625" height="24"><div xmlns="http://www.w3.org/1999/xhtml" style="display: table-cell; white-space: nowrap; line-height: 1.5; max-width: 247px; text-align: center;"><span class="nodeLabel markdown-node-label" style=""><p>+fn process(item: T) : -&gt; T</p></span></div></foreignObject></g><g class="label" style="" transform="translate(0,12)"><foreignObject width="176.28125" height="24"><div xmlns="http://www.w3.org/1999/xhtml" style="display: table-cell; white-space: nowrap; line-height: 1.5; max-width: 235px; text-align: center;"><span class="nodeLabel markdown-node-label" style=""><p>+fn describe() : -&gt; String</p></span></div></foreignObject></g></g><g class="divider" style=""><path d="M-136.83984375 -15 C-62.33909048909483 -15, 12.161662771810342 -15, 136.83984375 -15 M-136.83984375 -15 C-34.64128107068656 -15, 67.55728160862688 -15, 136.83984375 -15" stroke="#9370DB" stroke-width="1.3" fill="none" stroke-dasharray="0 0" style=""/></g><g class="divider" style=""><path d="M-136.83984375 9 C-71.97247192683405 9, -7.105100103668093 9, 136.83984375 9 M-136.83984375 9 C-81.30077134339406 9, -25.76169893678812 9, 136.83984375 9" stroke="#9370DB" stroke-width="1.3" fill="none" stroke-dasharray="0 0" style=""/></g></g><g class="node default" id="classId-Some-5" transform="translate(451.82421875, 508)"><g class="basic label-container"><path d="M-32.09375 -42 L32.09375 -42 L32.09375 42 L-32.09375 42" stroke="none" stroke-width="0" fill="#ECECFF" style=""/><path d="M-32.09375 -42 C-10.823052153942179 -42, 10.447645692115643 -42, 32.09375 -42 M-32.09375 -42 C-10.770761251018861 -42, 10.552227497962278 -42, 32.09375 -42 M32.09375 -42 C32.09375 -21.290213357625984, 32.09375 -0.5804267152519671, 32.09375 42 M32.09375 -42 C32.09375 -11.883774370914157, 32.09375 18.232451258171686, 32.09375 42 M32.09375 42 C19.009859053301007 42, 5.925968106602017 42, -32.09375 42 M32.09375 42 C7.036172147635721 42, -18.021405704728558 42, -32.09375 42 M-32.09375 42 C-32.09375 17.28225695907766, -32.09375 -7.4354860818446795, -32.09375 -42 M-32.09375 42 C-32.09375 22.54056176558146, -32.09375 3.0811235311629233, -32.09375 -42" stroke="#9370DB" stroke-width="1.3" fill="none" stroke-dasharray="0 0" style=""/></g><g class="annotation-group text" transform="translate(0, -18)"/><g class="label-group text" transform="translate(-20.09375, -18)"><g class="label" style="font-weight: bolder" transform="translate(0,-12)"><foreignObject width="40.1875" height="24"><div xmlns="http://www.w3.org/1999/xhtml" style="display: table-cell; white-space: nowrap; line-height: 1.5; max-width: 86px; text-align: center;"><span class="nodeLabel markdown-node-label" style=""><p>Some</p></span></div></foreignObject></g></g><g class="members-group text" transform="translate(-20.09375, 30)"/><g class="methods-group text" transform="translate(-20.09375, 60)"/><g class="divider" style=""><path d="M-32.09375 6 C-11.392472513360648 6, 9.308804973278704 6, 32.09375 6 M-32.09375 6 C-17.480792512101075 6, -2.867835024202151 6, 32.09375 6" stroke="#9370DB" stroke-width="1.3" fill="none" stroke-dasharray="0 0" style=""/></g><g class="divider" style=""><path d="M-32.09375 24 C-17.028755132107193 24, -1.963760264214386 24, 32.09375 24 M-32.09375 24 C-14.553029051438447 24, 2.9876918971231063 24, 32.09375 24" stroke="#9370DB" stroke-width="1.3" fill="none" stroke-dasharray="0 0" style=""/></g></g><g class="node default" id="classId-None-6" transform="translate(611.451171875, 508)"><g class="basic label-container"><path d="M-31.1875 -42 L31.1875 -42 L31.1875 42 L-31.1875 42" stroke="none" stroke-width="0" fill="#ECECFF" style=""/><path d="M-31.1875 -42 C-8.932933367575444 -42, 13.321633264849112 -42, 31.1875 -42 M-31.1875 -42 C-7.583969972912758 -42, 16.019560054174484 -42, 31.1875 -42 M31.1875 -42 C31.1875 -22.464515697169876, 31.1875 -2.929031394339752, 31.1875 42 M31.1875 -42 C31.1875 -17.067949518803076, 31.1875 7.864100962393849, 31.1875 42 M31.1875 42 C15.018214584835466 42, -1.1510708303290684 42, -31.1875 42 M31.1875 42 C14.982816632897471 42, -1.221866734205058 42, -31.1875 42 M-31.1875 42 C-31.1875 16.343277641153907, -31.1875 -9.313444717692185, -31.1875 -42 M-31.1875 42 C-31.1875 20.207101738032808, -31.1875 -1.585796523934384, -31.1875 -42" stroke="#9370DB" stroke-width="1.3" fill="none" stroke-dasharray="0 0" style=""/></g><g class="annotation-group text" transform="translate(0, -18)"/><g class="label-group text" transform="translate(-19.1875, -18)"><g class="label" style="font-weight: bolder" transform="translate(0,-12)"><foreignObject width="38.375" height="24"><div xmlns="http://www.w3.org/1999/xhtml" style="display: table-cell; white-space: nowrap; line-height: 1.5; max-width: 86px; text-align: center;"><span class="nodeLabel markdown-node-label" style=""><p>None</p></span></div></foreignObject></g></g><g class="members-group text" transform="translate(-19.1875, 30)"/><g class="methods-group text" transform="translate(-19.1875, 60)"/><g class="divider" style=""><path d="M-31.1875 6 C-17.568436646487633 6, -3.949373292975263 6, 31.1875 6 M-31.1875 6 C-10.780729278598407 6, 9.626041442803185 6, 31.1875 6" stroke="#9370DB" stroke-width="1.3" fill="none" stroke-dasharray="0 0" style=""/></g><g class="divider" style=""><path d="M-31.1875 24 C-7.751852708992658 24, 15.683794582014684 24, 31.1875 24 M-31.1875 24 C-7.745932772027697 24, 15.695634455944607 24, 31.1875 24" stroke="#9370DB" stroke-width="1.3" fill="none" stroke-dasharray="0 0" style=""/></g></g><g class="node default" id="classId-Ok-7" transform="translate(714.646484375, 508)"><g class="basic label-container"><path d="M-22.0078125 -42 L22.0078125 -42 L22.0078125 42 L-22.0078125 42" stroke="none" stroke-width="0" fill="#ECECFF" style=""/><path d="M-22.0078125 -42 C-12.49217862337159 -42, -2.97654474674318 -42, 22.0078125 -42 M-22.0078125 -42 C-12.070355272672119 -42, -2.1328980453442377 -42, 22.0078125 -42 M22.0078125 -42 C22.0078125 -16.524470643173004, 22.0078125 8.951058713653993, 22.0078125 42 M22.0078125 -42 C22.0078125 -17.13166933860713, 22.0078125 7.736661322785743, 22.0078125 42 M22.0078125 42 C12.570108977704468 42, 3.132405455408936 42, -22.0078125 42 M22.0078125 42 C12.82666506821845 42, 3.6455176364368995 42, -22.0078125 42 M-22.0078125 42 C-22.0078125 23.222727400515055, -22.0078125 4.44545480103011, -22.0078125 -42 M-22.0078125 42 C-22.0078125 13.393911838771984, -22.0078125 -15.212176322456031, -22.0078125 -42" stroke="#9370DB" stroke-width="1.3" fill="none" stroke-dasharray="0 0" style=""/></g><g class="annotation-group text" transform="translate(0, -18)"/><g class="label-group text" transform="translate(-10.0078125, -18)"><g class="label" style="font-weight: bolder" transform="translate(0,-12)"><foreignObject width="20.015625" height="24"><div xmlns="http://www.w3.org/1999/xhtml" style="display: table-cell; white-space: nowrap; line-height: 1.5; max-width: 71px; text-align: center;"><span class="nodeLabel markdown-node-label" style=""><p>Ok</p></span></div></foreignObject></g></g><g class="members-group text" transform="translate(-10.0078125, 30)"/><g class="methods-group text" transform="translate(-10.0078125, 60)"/><g class="divider" style=""><path d="M-22.0078125 6 C-8.225420467208812 6, 5.556971565582376 6, 22.0078125 6 M-22.0078125 6 C-4.505516413778629 6, 12.996779672442742 6, 22.0078125 6" stroke="#9370DB" stroke-width="1.3" fill="none" stroke-dasharray="0 0" style=""/></g><g class="divider" style=""><path d="M-22.0078125 24 C-6.859045255768848 24, 8.289721988462304 24, 22.0078125 24 M-22.0078125 24 C-12.082617943123832 24, -2.1574233862476646 24, 22.0078125 24" stroke="#9370DB" stroke-width="1.3" fill="none" stroke-dasharray="0 0" style=""/></g></g><g class="node default" id="classId-Err-8" transform="translate(865.33203125, 508)"><g class="basic label-container"><path d="M-23.390625 -42 L23.390625 -42 L23.390625 42 L-23.390625 42" stroke="none" stroke-width="0" fill="#ECECFF" style=""/><path d="M-23.390625 -42 C-5.850963384983217 -42, 11.688698230033566 -42, 23.390625 -42 M-23.390625 -42 C-5.976507099273263 -42, 11.437610801453474 -42, 23.390625 -42 M23.390625 -42 C23.390625 -15.775192473844402, 23.390625 10.449615052311195, 23.390625 42 M23.390625 -42 C23.390625 -20.219463147693723, 23.390625 1.5610737046125536, 23.390625 42 M23.390625 42 C6.59913225238973 42, -10.19236049522054 42, -23.390625 42 M23.390625 42 C4.902333526638177 42, -13.585957946723646 42, -23.390625 42 M-23.390625 42 C-23.390625 18.99909755074146, -23.390625 -4.001804898517079, -23.390625 -42 M-23.390625 42 C-23.390625 10.504138510169252, -23.390625 -20.991722979661496, -23.390625 -42" stroke="#9370DB" stroke-width="1.3" fill="none" stroke-dasharray="0 0" style=""/></g><g class="annotation-group text" transform="translate(0, -18)"/><g class="label-group text" transform="translate(-11.390625, -18)"><g class="label" style="font-weight: bolder" transform="translate(0,-12)"><foreignObject width="22.78125" height="24"><div xmlns="http://www.w3.org/1999/xhtml" style="display: table-cell; white-space: nowrap; line-height: 1.5; max-width: 71px; text-align: center;"><span class="nodeLabel markdown-node-label" style=""><p>Err</p></span></div></foreignObject></g></g><g class="members-group text" transform="translate(-11.390625, 30)"/><g class="methods-group text" transform="translate(-11.390625, 60)"/><g class="divider" style=""><path d="M-23.390625 6 C-8.229713975114374 6, 6.931197049771253 6, 23.390625 6 M-23.390625 6 C-11.90647614890353 6, -0.42232729780705824 6, 23.390625 6" stroke="#9370DB" stroke-width="1.3" fill="none" stroke-dasharray="0 0" style=""/></g><g class="divider" style=""><path d="M-23.390625 24 C-11.705874258475836 24, -0.021123516951671917 24, 23.390625 24 M-23.390625 24 C-7.617582532569527 24, 8.155459934860946 24, 23.390625 24" stroke="#9370DB" stroke-width="1.3" fill="none" stroke-dasharray="0 0" style=""/></g></g><g class="node default" id="classId-NoteoverOption-9" transform="translate(1467.5703125, 167)"><g class="basic label-container"><path d="M-135.015625 -60 L135.015625 -60 L135.015625 60 L-135.015625 60" stroke="none" stroke-width="0" fill="#ECECFF" style=""/><path d="M-135.015625 -60 C-47.57770429542087 -60, 39.860216409158255 -60, 135.015625 -60 M-135.015625 -60 C-27.811856901906182 -60, 79.39191119618764 -60, 135.015625 -60 M135.015625 -60 C135.015625 -28.573708341915154, 135.015625 2.8525833161696923, 135.015625 60 M135.015625 -60 C135.015625 -34.19506167700419, 135.015625 -8.390123354008388, 135.015625 60 M135.015625 60 C46.39212774996149 60, -42.23136950007702 60, -135.015625 60 M135.015625 60 C27.346887720711464 60, -80.32184955857707 60, -135.015625 60 M-135.015625 60 C-135.015625 24.96361010217047, -135.015625 -10.07277979565906, -135.015625 -60 M-135.015625 60 C-135.015625 30.074896653655422, -135.015625 0.14979330731084417, -135.015625 -60" stroke="#9370DB" stroke-width="1.3" fill="none" stroke-dasharray="0 0" style=""/></g><g class="annotation-group text" transform="translate(0, -36)"/><g class="label-group text" transform="translate(-73.765625, -36)"><g class="label" style="font-weight: bolder" transform="translate(0,-12)"><foreignObject width="147.53125" height="24"><div xmlns="http://www.w3.org/1999/xhtml" style="display: table-cell; white-space: nowrap; line-height: 1.5; max-width: 220px; text-align: center;"><span class="nodeLabel markdown-node-label" style=""><p>NoteoverOption&lt;T&gt;</p></span></div></foreignObject></g></g><g class="members-group text" transform="translate(-123.015625, 12)"><g class="label" style="" transform="translate(0,-12)"><foreignObject width="172.265625" height="24"><div xmlns="http://www.w3.org/1999/xhtml" style="display: table-cell; white-space: nowrap; line-height: 1.5; max-width: 206px; text-align: center;"><span class="nodeLabel markdown-node-label" style=""><p>Used for nullable values</p></span></div></foreignObject></g></g><g class="methods-group text" transform="translate(-123.015625, 60)"/><g class="divider" style=""><path d="M-135.015625 -12 C-78.60008475603126 -12, -22.18454451206253 -12, 135.015625 -12 M-135.015625 -12 C-47.714860293362236 -12, 39.58590441327553 -12, 135.015625 -12" stroke="#9370DB" stroke-width="1.3" fill="none" stroke-dasharray="0 0" style=""/></g><g class="divider" style=""><path d="M-135.015625 36 C-52.27467244334626 36, 30.466280113307477 36, 135.015625 36 M-135.015625 36 C-57.30177550450138 36, 20.412073990997243 36, 135.015625 36" stroke="#9370DB" stroke-width="1.3" fill="none" stroke-dasharray="0 0" style=""/></g></g><g class="node default" id="classId-NoteoverResult-10" transform="translate(1788.26953125, 167)"><g class="basic label-container"><path d="M-135.68359375 -60 L135.68359375 -60 L135.68359375 60 L-135.68359375 60" stroke="none" stroke-width="0" fill="#ECECFF" style=""/><path d="M-135.68359375 -60 C-45.94945208896928 -60, 43.78468957206144 -60, 135.68359375 -60 M-135.68359375 -60 C-48.44456241579003 -60, 38.79446891841994 -60, 135.68359375 -60 M135.68359375 -60 C135.68359375 -12.616263365509433, 135.68359375 34.767473268981135, 135.68359375 60 M135.68359375 -60 C135.68359375 -27.87705473613456, 135.68359375 4.245890527730879, 135.68359375 60 M135.68359375 60 C50.21372001191209 60, -35.256153726175825 60, -135.68359375 60 M135.68359375 60 C69.77538605621756 60, 3.867178362435112 60, -135.68359375 60 M-135.68359375 60 C-135.68359375 16.475925205298587, -135.68359375 -27.048149589402826, -135.68359375 -60 M-135.68359375 60 C-135.68359375 31.33984211535525, -135.68359375 2.6796842307104995, -135.68359375 -60" stroke="#9370DB" stroke-width="1.3" fill="none" stroke-dasharray="0 0" style=""/></g><g class="annotation-group text" transform="translate(0, -36)"/><g class="label-group text" transform="translate(-80.8671875, -36)"><g class="label" style="font-weight: bolder" transform="translate(0,-12)"><foreignObject width="161.734375" height="24"><div xmlns="http://www.w3.org/1999/xhtml" style="display: table-cell; white-space: nowrap; line-height: 1.5; max-width: 233px; text-align: center;"><span class="nodeLabel markdown-node-label" style=""><p>NoteoverResult&lt;T, E&gt;</p></span></div></foreignObject></g></g><g class="members-group text" transform="translate(-123.68359375, 12)"><g class="label" style="" transform="translate(0,-12)"><foreignObject width="166.5" height="24"><div xmlns="http://www.w3.org/1999/xhtml" style="display: table-cell; white-space: nowrap; line-height: 1.5; max-width: 201px; text-align: center;"><span class="nodeLabel markdown-node-label" style=""><p>Used for error handling</p></span></div></foreignObject></g></g><g class="methods-group text" transform="translate(-123.68359375, 60)"/><g class="divider" style=""><path d="M-135.68359375 -12 C-62.777468600884944 -12, 10.128656548230111 -12, 135.68359375 -12 M-135.68359375 -12 C-56.190507401838005 -12, 23.30257894632399 -12, 135.68359375 -12" stroke="#9370DB" stroke-width="1.3" fill="none" stroke-dasharray="0 0" style=""/></g><g class="divider" style=""><path d="M-135.68359375 36 C-65.52432896135231 36, 4.634935827295379 36, 135.68359375 36 M-135.68359375 36 C-29.24455446471113 36, 77.19448482057774 36, 135.68359375 36" stroke="#9370DB" stroke-width="1.3" fill="none" stroke-dasharray="0 0" style=""/></g></g></g></g></g></svg>