<svg id="my-svg" width="100%" xmlns="http://www.w3.org/2000/svg" xmlns:xlink="http://www.w3.org/1999/xlink" class="classDiagram" style="max-width: 793.73px; background-color: white;" viewBox="0 0 793.73046875 528" role="graphics-document document" aria-roledescription="class"><style>#my-svg{font-family:"trebuchet ms",verdana,arial,sans-serif;font-size:16px;fill:#333;}@keyframes edge-animation-frame{from{stroke-dashoffset:0;}}@keyframes dash{to{stroke-dashoffset:0;}}#my-svg .edge-animation-slow{stroke-dasharray:9,5!important;stroke-dashoffset:900;animation:dash 50s linear infinite;stroke-linecap:round;}#my-svg .edge-animation-fast{stroke-dasharray:9,5!important;stroke-dashoffset:900;animation:dash 20s linear infinite;stroke-linecap:round;}#my-svg .error-icon{fill:#552222;}#my-svg .error-text{fill:#552222;stroke:#552222;}#my-svg .edge-thickness-normal{stroke-width:1px;}#my-svg .edge-thickness-thick{stroke-width:3.5px;}#my-svg .edge-pattern-solid{stroke-dasharray:0;}#my-svg .edge-thickness-invisible{stroke-width:0;fill:none;}#my-svg .edge-pattern-dashed{stroke-dasharray:3;}#my-svg .edge-pattern-dotted{stroke-dasharray:2;}#my-svg .marker{fill:#333333;stroke:#333333;}#my-svg .marker.cross{stroke:#333333;}#my-svg svg{font-family:"trebuchet ms",verdana,arial,sans-serif;font-size:16px;}#my-svg p{margin:0;}#my-svg g.classGroup text{fill:#9370DB;stroke:none;font-family:"trebuchet ms",verdana,arial,sans-serif;font-size:10px;}#my-svg g.classGroup text .title{font-weight:bolder;}#my-svg .cluster-label text{fill:#333;}#my-svg .cluster-label span{color:#333;}#my-svg .cluster-label span p{background-color:transparent;}#my-svg .cluster rect{fill:#ffffde;stroke:#aaaa33;stroke-width:1px;}#my-svg .cluster text{fill:#333;}#my-svg .cluster span{color:#333;}#my-svg .nodeLabel,#my-svg .edgeLabel{color:#131300;}#my-svg .edgeLabel .label rect{fill:#ECECFF;}#my-svg .label text{fill:#131300;}#my-svg .labelBkg{background:#ECECFF;}#my-svg .edgeLabel .label span{background:#ECECFF;}#my-svg .classTitle{font-weight:bolder;}#my-svg .node rect,#my-svg .node circle,#my-svg .node ellipse,#my-svg .node polygon,#my-svg .node path{fill:#ECECFF;stroke:#9370DB;stroke-width:1px;}#my-svg .divider{stroke:#9370DB;stroke-width:1;}#my-svg g.clickable{cursor:pointer;}#my-svg g.classGroup rect{fill:#ECECFF;stroke:#9370DB;}#my-svg g.classGroup line{stroke:#9370DB;stroke-width:1;}#my-svg .classLabel .box{stroke:none;stroke-width:0;fill:#ECECFF;opacity:0.5;}#my-svg .classLabel .label{fill:#9370DB;font-size:10px;}#my-svg .relation{stroke:#333333;stroke-width:1;fill:none;}#my-svg .dashed-line{stroke-dasharray:3;}#my-svg .dotted-line{stroke-dasharray:1 2;}#my-svg #compositionStart,#my-svg .composition{fill:#333333!important;stroke:#333333!important;stroke-width:1;}#my-svg #compositionEnd,#my-svg .composition{fill:#333333!important;stroke:#333333!important;stroke-width:1;}#my-svg #dependencyStart,#my-svg .dependency{fill:#333333!important;stroke:#333333!important;stroke-width:1;}#my-svg #dependencyStart,#my-svg .dependency{fill:#333333!important;stroke:#333333!important;stroke-width:1;}#my-svg #extensionStart,#my-svg .extension{fill:transparent!important;stroke:#333333!important;stroke-width:1;}#my-svg #extensionEnd,#my-svg .extension{fill:transparent!important;stroke:#333333!important;stroke-width:1;}#my-svg #aggregationStart,#my-svg .aggregation{fill:transparent!important;stroke:#333333!important;stroke-width:1;}#my-svg #aggregationEnd,#my-svg .aggregation{fill:transparent!important;stroke:#333333!important;stroke-width:1;}#my-svg #lollipopStart,#my-svg .lollipop{fill:#ECECFF!important;stroke:#333333!important;stroke-width:1;}#my-svg #lollipopEnd,#my-svg .lollipop{fill:#ECECFF!important;stroke:#333333!important;stroke-width:1;}#my-svg .edgeTerminals{font-size:11px;line-height:initial;}#my-svg .classTitleText{text-anchor:middle;font-size:18px;fill:#333;}#my-svg .label-icon{display:inline-block;height:1em;overflow:visible;vertical-align:-0.125em;}#my-svg .node .label-icon path{fill:currentColor;stroke:revert;stroke-width:revert;}#my-svg :root{--mermaid-font-family:"trebuchet ms",verdana,arial,sans-serif;}</style><g><defs><marker id="my-svg_class-aggregationStart" class="marker aggregation class" refX="18" refY="7" markerWidth="190" markerHeight="240" orient="auto"><path d="M 18,7 L9,13 L1,7 L9,1 Z"/></marker></defs><defs><marker id="my-svg_class-aggregationEnd" class="marker aggregation class" refX="1" refY="7" markerWidth="20" markerHeight="28" orient="auto"><path d="M 18,7 L9,13 L1,7 L9,1 Z"/></marker></defs><defs><marker id="my-svg_class-extensionStart" class="marker extension class" refX="18" refY="7" markerWidth="190" markerHeight="240" orient="auto"><path d="M 1,7 L18,13 V 1 Z"/></marker></defs><defs><marker id="my-svg_class-extensionEnd" class="marker extension class" refX="1" refY="7" markerWidth="20" markerHeight="28" orient="auto"><path d="M 1,1 V 13 L18,7 Z"/></marker></defs><defs><marker id="my-svg_class-compositionStart" class="marker composition class" refX="18" refY="7" markerWidth="190" markerHeight="240" orient="auto"><path d="M 18,7 L9,13 L1,7 L9,1 Z"/></marker></defs><defs><marker id="my-svg_class-compositionEnd" class="marker composition class" refX="1" refY="7" markerWidth="20" markerHeight="28" orient="auto"><path d="M 18,7 L9,13 L1,7 L9,1 Z"/></marker></defs><defs><marker id="my-svg_class-dependencyStart" class="marker dependency class" refX="6" refY="7" markerWidth="190" markerHeight="240" orient="auto"><path d="M 5,7 L9,13 L1,7 L9,1 Z"/></marker></defs><defs><marker id="my-svg_class-dependencyEnd" class="marker dependency class" refX="13" refY="7" markerWidth="20" markerHeight="28" orient="auto"><path d="M 18,7 L9,13 L14,7 L9,1 Z"/></marker></defs><defs><marker id="my-svg_class-lollipopStart" class="marker lollipop class" refX="13" refY="7" markerWidth="190" markerHeight="240" orient="auto"><circle fill="transparent" cx="7" cy="7" r="6"/></marker></defs><defs><marker id="my-svg_class-lollipopEnd" class="marker lollipop class" refX="1" refY="7" markerWidth="190" markerHeight="240" orient="auto"><circle fill="transparent" cx="7" cy="7" r="6"/></marker></defs><g class="root"><g class="clusters"/><g class="edgePaths"><path d="M258.302,203L253.199,209.667C248.095,216.333,237.887,229.667,234.514,241.551C231.14,253.435,234.6,263.87,236.33,269.087L238.06,274.305" id="id_Variables_ScalarTypes_1" class="edge-thickness-normal edge-pattern-solid relation" style=";;;" data-edge="true" data-et="edge" data-id="id_Variables_ScalarTypes_1" data-points="W3sieCI6MjU4LjMwMjM4OTcwNTg4MjMsInkiOjIwM30seyJ4IjoyMjcuNjc5Njg3NSwieSI6MjQzfSx7IngiOjIzOS45NDgyNzMyODgyMTY1NywieSI6MjgwfV0=" marker-end="url(#my-svg_class-dependencyEnd)"/><path d="M419.281,169.97L436.191,182.142C453.102,194.313,486.922,218.657,510.295,238.241C533.669,257.826,546.595,272.652,553.058,280.065L559.522,287.478" id="id_Variables_CompoundTypes_2" class="edge-thickness-normal edge-pattern-solid relation" style=";;;" data-edge="true" data-et="edge" data-id="id_Variables_CompoundTypes_2" data-points="W3sieCI6NDE5LjI4MTI1LCJ5IjoxNjkuOTY5OTQwMDQ1NDgyNzN9LHsieCI6NTIwLjc0MjE4NzUsInkiOjI0M30seyJ4Ijo1NjMuNDY0NzkzOTg4ODUzNCwieSI6MjkyfV0=" marker-end="url(#my-svg_class-dependencyEnd)"/><path d="M469.281,205.099L460.505,211.416C451.729,217.733,434.177,230.366,420.682,242.096C407.186,253.826,397.747,264.652,393.028,270.065L388.308,275.478" id="id_Functions_ScalarTypes_3" class="edge-thickness-normal edge-pattern-solid relation" style=";;;" data-edge="true" data-et="edge" data-id="id_Functions_ScalarTypes_3" data-points="W3sieCI6NDY5LjI4MTI1LCJ5IjoyMDUuMDk4ODIxNTgzNjI2Mn0seyJ4Ijo0MTYuNjI1LCJ5IjoyNDN9LHsieCI6Mzg0LjM2NTA3MjY1MTI3Mzg2LCJ5IjoyODB9XQ==" marker-end="url(#my-svg_class-dependencyEnd)"/><path d="M681.362,206L686.083,212.167C690.804,218.333,700.246,230.667,702.573,244.051C704.901,257.435,700.115,271.87,697.722,279.087L695.328,286.305" id="id_Functions_CompoundTypes_4" class="edge-thickness-normal edge-pattern-solid relation" style=";;;" data-edge="true" data-et="edge" data-id="id_Functions_CompoundTypes_4" data-points="W3sieCI6NjgxLjM2MTUwMDQ1OTU1ODgsInkiOjIwNn0seyJ4Ijo3MDkuNjg3NSwieSI6MjQzfSx7IngiOjY5My40Mzk5MTM0MTU2MDUxLCJ5IjoyOTJ9XQ==" marker-end="url(#my-svg_class-dependencyEnd)"/></g><g class="edgeLabels"><g class="edgeLabel" transform="translate(231.14312, 238.47599)"><g class="label" data-id="id_Variables_ScalarTypes_1" transform="translate(-36.796875, -12)"><foreignObject width="73.59375" height="24"><div xmlns="http://www.w3.org/1999/xhtml" class="labelBkg" style="display: table-cell; white-space: nowrap; line-height: 1.5; max-width: 200px; text-align: center;"><span class="edgeLabel"><p>uses types</p></span></div></foreignObject></g></g><g class="edgeLabel" transform="translate(496.39309, 225.47388)"><g class="label" data-id="id_Variables_CompoundTypes_2" transform="translate(-36.796875, -12)"><foreignObject width="73.59375" height="24"><div xmlns="http://www.w3.org/1999/xhtml" class="labelBkg" style="display: table-cell; white-space: nowrap; line-height: 1.5; max-width: 200px; text-align: center;"><span class="edgeLabel"><p>uses types</p></span></div></foreignObject></g></g><g class="edgeLabel" transform="translate(423.0325, 238.38798)"><g class="label" data-id="id_Functions_ScalarTypes_3" transform="translate(-47.3203125, -12)"><foreignObject width="94.640625" height="24"><div xmlns="http://www.w3.org/1999/xhtml" class="labelBkg" style="display: table-cell; white-space: nowrap; line-height: 1.5; max-width: 200px; text-align: center;"><span class="edgeLabel"><p>returns types</p></span></div></foreignObject></g></g><g class="edgeLabel" transform="translate(708.89664, 245.3851)"><g class="label" data-id="id_Functions_CompoundTypes_4" transform="translate(-47.3203125, -12)"><foreignObject width="94.640625" height="24"><div xmlns="http://www.w3.org/1999/xhtml" class="labelBkg" style="display: table-cell; white-space: nowrap; line-height: 1.5; max-width: 200px; text-align: center;"><span class="edgeLabel"><p>returns types</p></span></div></foreignObject></g></g></g><g class="nodes"><g class="node default" id="classId-titleChapter2-0" transform="translate(101.15625, 107)"><g class="basic label-container"><path d="M-93.15625 -60 L93.15625 -60 L93.15625 60 L-93.15625 60" stroke="none" stroke-width="0" fill="#ECECFF" style=""/><path d="M-93.15625 -60 C-30.97382174324325 -60, 31.2086065135135 -60, 93.15625 -60 M-93.15625 -60 C-26.4278187762542 -60, 40.3006124474916 -60, 93.15625 -60 M93.15625 -60 C93.15625 -13.242020838275216, 93.15625 33.51595832344957, 93.15625 60 M93.15625 -60 C93.15625 -16.05375676868627, 93.15625 27.89248646262746, 93.15625 60 M93.15625 60 C38.17143637773696 60, -16.81337724452608 60, -93.15625 60 M93.15625 60 C28.750817023316813 60, -35.654615953366374 60, -93.15625 60 M-93.15625 60 C-93.15625 35.5670416462744, -93.15625 11.134083292548794, -93.15625 -60 M-93.15625 60 C-93.15625 32.70677689203043, -93.15625 5.413553784060873, -93.15625 -60" stroke="#9370DB" stroke-width="1.3" fill="none" stroke-dasharray="0 0" style=""/></g><g class="annotation-group text" transform="translate(0, -36)"/><g class="label-group text" transform="translate(-50.125, -36)"><g class="label" style="font-weight: bolder" transform="translate(0,-12)"><foreignObject width="100.25" height="24"><div xmlns="http://www.w3.org/1999/xhtml" style="display: table-cell; white-space: nowrap; line-height: 1.5; max-width: 134px; text-align: center;"><span class="nodeLabel markdown-node-label" style=""><p>titleChapter2</p></span></div></foreignObject></g></g><g class="members-group text" transform="translate(-81.15625, 12)"><g class="label" style="" transform="translate(0,-12)"><foreignObject width="112.1875" height="24"><div xmlns="http://www.w3.org/1999/xhtml" style="display: table-cell; white-space: nowrap; line-height: 1.5; max-width: 155px; text-align: center;"><span class="nodeLabel markdown-node-label" style=""><p>Rust Data Types</p></span></div></foreignObject></g></g><g class="methods-group text" transform="translate(-81.15625, 60)"/><g class="divider" style=""><path d="M-93.15625 -12 C-36.360609937627345 -12, 20.43503012474531 -12, 93.15625 -12 M-93.15625 -12 C-20.53985791543019 -12, 52.07653416913962 -12, 93.15625 -12" stroke="#9370DB" stroke-width="1.3" fill="none" stroke-dasharray="0 0" style=""/></g><g class="divider" style=""><path d="M-93.15625 36 C-43.90993797718109 36, 5.336374045637825 36, 93.15625 36 M-93.15625 36 C-28.156443156261815 36, 36.84336368747637 36, 93.15625 36" stroke="#9370DB" stroke-width="1.3" fill="none" stroke-dasharray="0 0" style=""/></g></g><g class="node default" id="classId-ScalarTypes-1" transform="translate(279.73828125, 400)"><g class="basic label-container"><path d="M-160.90625 -120 L160.90625 -120 L160.90625 120 L-160.90625 120" stroke="none" stroke-width="0" fill="#ECECFF" style=""/><path d="M-160.90625 -120 C-75.6914415884296 -120, 9.523366823140805 -120, 160.90625 -120 M-160.90625 -120 C-74.6393932969395 -120, 11.627463406120995 -120, 160.90625 -120 M160.90625 -120 C160.90625 -71.8731003230598, 160.90625 -23.746200646119604, 160.90625 120 M160.90625 -120 C160.90625 -44.614405823635906, 160.90625 30.77118835272819, 160.90625 120 M160.90625 120 C52.965012260310885 120, -54.97622547937823 120, -160.90625 120 M160.90625 120 C63.115803214216456 120, -34.67464357156709 120, -160.90625 120 M-160.90625 120 C-160.90625 27.86956349605849, -160.90625 -64.26087300788302, -160.90625 -120 M-160.90625 120 C-160.90625 59.86949474103667, -160.90625 -0.26101051792666397, -160.90625 -120" stroke="#9370DB" stroke-width="1.3" fill="none" stroke-dasharray="0 0" style=""/></g><g class="annotation-group text" transform="translate(-28.1171875, -96)"><g class="label" style="" transform="translate(0,-12)"><foreignObject width="56.234375" height="24"><div xmlns="http://www.w3.org/1999/xhtml" style="display: table-cell; white-space: nowrap; line-height: 1.5; max-width: 104px; text-align: center;"><span class="nodeLabel markdown-node-label" style=""><p>«Types»</p></span></div></foreignObject></g></g><g class="label-group text" transform="translate(-43.75, -72)"><g class="label" style="font-weight: bolder" transform="translate(0,-12)"><foreignObject width="87.5" height="24"><div xmlns="http://www.w3.org/1999/xhtml" style="display: table-cell; white-space: nowrap; line-height: 1.5; max-width: 128px; text-align: center;"><span class="nodeLabel markdown-node-label" style=""><p>ScalarTypes</p></span></div></foreignObject></g></g><g class="members-group text" transform="translate(-148.90625, -24)"><g class="label" style="" transform="translate(0,-12)"><foreignObject width="226.3125" height="24"><div xmlns="http://www.w3.org/1999/xhtml" style="display: table-cell; white-space: nowrap; line-height: 1.5; max-width: 258px; text-align: center;"><span class="nodeLabel markdown-node-label" style=""><p>+Integers: i8, i16, i32, i64, i128</p></span></div></foreignObject></g><g class="label" style="" transform="translate(0,12)"><foreignObject width="254.0625" height="24"><div xmlns="http://www.w3.org/1999/xhtml" style="display: table-cell; white-space: nowrap; line-height: 1.5; max-width: 285px; text-align: center;"><span class="nodeLabel markdown-node-label" style=""><p>+Unsigned: u8, u16, u32, u64, u128</p></span></div></foreignObject></g><g class="label" style="" transform="translate(0,36)"><foreignObject width="118.109375" height="24"><div xmlns="http://www.w3.org/1999/xhtml" style="display: table-cell; white-space: nowrap; line-height: 1.5; max-width: 162px; text-align: center;"><span class="nodeLabel markdown-node-label" style=""><p>+Floats: f32, f64</p></span></div></foreignObject></g><g class="label" style="" transform="translate(0,60)"><foreignObject width="106.71875" height="24"><div xmlns="http://www.w3.org/1999/xhtml" style="display: table-cell; white-space: nowrap; line-height: 1.5; max-width: 154px; text-align: center;"><span class="nodeLabel markdown-node-label" style=""><p>+Boolean: bool</p></span></div></foreignObject></g><g class="label" style="" transform="translate(0,84)"><foreignObject width="120.9375" height="24"><div xmlns="http://www.w3.org/1999/xhtml" style="display: table-cell; white-space: nowrap; line-height: 1.5; max-width: 162px; text-align: center;"><span class="nodeLabel markdown-node-label" style=""><p>+Character: char</p></span></div></foreignObject></g></g><g class="methods-group text" transform="translate(-148.90625, 120)"/><g class="divider" style=""><path d="M-160.90625 -48 C-63.938846887583935 -48, 33.02855622483213 -48, 160.90625 -48 M-160.90625 -48 C-64.12666224593353 -48, 32.65292550813294 -48, 160.90625 -48" stroke="#9370DB" stroke-width="1.3" fill="none" stroke-dasharray="0 0" style=""/></g><g class="divider" style=""><path d="M-160.90625 96 C-54.68793999963049 96, 51.530370000739026 96, 160.90625 96 M-160.90625 96 C-62.64506219032714 96, 35.61612561934572 96, 160.90625 96" stroke="#9370DB" stroke-width="1.3" fill="none" stroke-dasharray="0 0" style=""/></g></g><g class="node default" id="classId-CompoundTypes-2" transform="translate(657.62890625, 400)"><g class="basic label-container"><path d="M-128.1015625 -108 L128.1015625 -108 L128.1015625 108 L-128.1015625 108" stroke="none" stroke-width="0" fill="#ECECFF" style=""/><path d="M-128.1015625 -108 C-40.317438800726066 -108, 47.46668489854787 -108, 128.1015625 -108 M-128.1015625 -108 C-35.559674440574895 -108, 56.98221361885021 -108, 128.1015625 -108 M128.1015625 -108 C128.1015625 -54.81632237565628, 128.1015625 -1.6326447513125544, 128.1015625 108 M128.1015625 -108 C128.1015625 -46.838895972321936, 128.1015625 14.322208055356128, 128.1015625 108 M128.1015625 108 C44.269013910259986 108, -39.56353467948003 108, -128.1015625 108 M128.1015625 108 C61.34270622952404 108, -5.416150040951919 108, -128.1015625 108 M-128.1015625 108 C-128.1015625 59.53090989956589, -128.1015625 11.061819799131783, -128.1015625 -108 M-128.1015625 108 C-128.1015625 55.130042209449556, -128.1015625 2.260084418899112, -128.1015625 -108" stroke="#9370DB" stroke-width="1.3" fill="none" stroke-dasharray="0 0" style=""/></g><g class="annotation-group text" transform="translate(-28.1171875, -84)"><g class="label" style="" transform="translate(0,-12)"><foreignObject width="56.234375" height="24"><div xmlns="http://www.w3.org/1999/xhtml" style="display: table-cell; white-space: nowrap; line-height: 1.5; max-width: 104px; text-align: center;"><span class="nodeLabel markdown-node-label" style=""><p>«Types»</p></span></div></foreignObject></g></g><g class="label-group text" transform="translate(-60.84375, -60)"><g class="label" style="font-weight: bolder" transform="translate(0,-12)"><foreignObject width="121.6875" height="24"><div xmlns="http://www.w3.org/1999/xhtml" style="display: table-cell; white-space: nowrap; line-height: 1.5; max-width: 159px; text-align: center;"><span class="nodeLabel markdown-node-label" style=""><p>CompoundTypes</p></span></div></foreignObject></g></g><g class="members-group text" transform="translate(-116.1015625, -12)"><g class="label" style="" transform="translate(0,-12)"><foreignObject width="109.4375" height="24"><div xmlns="http://www.w3.org/1999/xhtml" style="display: table-cell; white-space: nowrap; line-height: 1.5; max-width: 157px; text-align: center;"><span class="nodeLabel markdown-node-label" style=""><p>+Array: [i32; 5]</p></span></div></foreignObject></g><g class="label" style="" transform="translate(0,12)"><foreignObject width="128.390625" height="24"><div xmlns="http://www.w3.org/1999/xhtml" style="display: table-cell; white-space: nowrap; line-height: 1.5; max-width: 213px; text-align: center;"><span class="nodeLabel markdown-node-label" style=""><p>+Vector: Vec&lt;i32&gt;</p></span></div></foreignObject></g><g class="label" style="" transform="translate(0,36)"><foreignObject width="143.3125" height="24"><div xmlns="http://www.w3.org/1999/xhtml" style="display: table-cell; white-space: nowrap; line-height: 1.5; max-width: 187px; text-align: center;"><span class="nodeLabel markdown-node-label" style=""><p>+String: String, &amp;str</p></span></div></foreignObject></g></g><g class="methods-group text" transform="translate(-116.1015625, 84)"><g class="label" style="" transform="translate(0,-12)"><foreignObject width="171.359375" height="24"><div xmlns="http://www.w3.org/1999/xhtml" style="display: table-cell; white-space: nowrap; line-height: 1.5; max-width: 212px; text-align: center;"><span class="nodeLabel markdown-node-label" style=""><p>+Tuple:(i32, f64, String)</p></span></div></foreignObject></g></g><g class="divider" style=""><path d="M-128.1015625 -36 C-28.876244250789753 -36, 70.3490739984205 -36, 128.1015625 -36 M-128.1015625 -36 C-26.68976569611459 -36, 74.72203110777082 -36, 128.1015625 -36" stroke="#9370DB" stroke-width="1.3" fill="none" stroke-dasharray="0 0" style=""/></g><g class="divider" style=""><path d="M-128.1015625 60 C-29.582868594784017 60, 68.93582531043197 60, 128.1015625 60 M-128.1015625 60 C-65.89112855298725 60, -3.680694605974523 60, 128.1015625 60" stroke="#9370DB" stroke-width="1.3" fill="none" stroke-dasharray="0 0" style=""/></g></g><g class="node default" id="classId-Variables-3" transform="translate(331.796875, 107)"><g class="basic label-container"><path d="M-87.484375 -96 L87.484375 -96 L87.484375 96 L-87.484375 96" stroke="none" stroke-width="0" fill="#ECECFF" style=""/><path d="M-87.484375 -96 C-18.694352702081673 -96, 50.095669595836654 -96, 87.484375 -96 M-87.484375 -96 C-48.50068497356337 -96, -9.516994947126733 -96, 87.484375 -96 M87.484375 -96 C87.484375 -40.74191036519143, 87.484375 14.51617926961714, 87.484375 96 M87.484375 -96 C87.484375 -19.36422469441939, 87.484375 57.27155061116122, 87.484375 96 M87.484375 96 C39.01314350731776 96, -9.458087985364486 96, -87.484375 96 M87.484375 96 C35.19445907173028 96, -17.095456856539442 96, -87.484375 96 M-87.484375 96 C-87.484375 33.321392425916386, -87.484375 -29.357215148167228, -87.484375 -96 M-87.484375 96 C-87.484375 48.2534226742318, -87.484375 0.5068453484635995, -87.484375 -96" stroke="#9370DB" stroke-width="1.3" fill="none" stroke-dasharray="0 0" style=""/></g><g class="annotation-group text" transform="translate(0, -72)"/><g class="label-group text" transform="translate(-33.765625, -72)"><g class="label" style="font-weight: bolder" transform="translate(0,-12)"><foreignObject width="67.53125" height="24"><div xmlns="http://www.w3.org/1999/xhtml" style="display: table-cell; white-space: nowrap; line-height: 1.5; max-width: 110px; text-align: center;"><span class="nodeLabel markdown-node-label" style=""><p>Variables</p></span></div></foreignObject></g></g><g class="members-group text" transform="translate(-75.484375, -24)"><g class="label" style="" transform="translate(0,-12)"><foreignObject width="67.4375" height="24"><div xmlns="http://www.w3.org/1999/xhtml" style="display: table-cell; white-space: nowrap; line-height: 1.5; max-width: 116px; text-align: center;"><span class="nodeLabel markdown-node-label" style=""><p>+let x = 5</p></span></div></foreignObject></g><g class="label" style="" transform="translate(0,12)"><foreignObject width="108.890625" height="24"><div xmlns="http://www.w3.org/1999/xhtml" style="display: table-cell; white-space: nowrap; line-height: 1.5; max-width: 153px; text-align: center;"><span class="nodeLabel markdown-node-label" style=""><p>+let mut y = 10</p></span></div></foreignObject></g><g class="label" style="" transform="translate(0,36)"><foreignObject width="117.203125" height="24"><div xmlns="http://www.w3.org/1999/xhtml" style="display: table-cell; white-space: nowrap; line-height: 1.5; max-width: 171px; text-align: center;"><span class="nodeLabel markdown-node-label" style=""><p>+const MAX: u32</p></span></div></foreignObject></g><g class="label" style="" transform="translate(0,60)"><foreignObject width="82.765625" height="24"><div xmlns="http://www.w3.org/1999/xhtml" style="display: table-cell; white-space: nowrap; line-height: 1.5; max-width: 133px; text-align: center;"><span class="nodeLabel markdown-node-label" style=""><p>+shadowing</p></span></div></foreignObject></g></g><g class="methods-group text" transform="translate(-75.484375, 96)"/><g class="divider" style=""><path d="M-87.484375 -48 C-33.14171754267888 -48, 21.200939914642234 -48, 87.484375 -48 M-87.484375 -48 C-19.067722636585472 -48, 49.348929726829056 -48, 87.484375 -48" stroke="#9370DB" stroke-width="1.3" fill="none" stroke-dasharray="0 0" style=""/></g><g class="divider" style=""><path d="M-87.484375 72 C-22.848295754664292 72, 41.787783490671416 72, 87.484375 72 M-87.484375 72 C-43.54365587754297 72, 0.3970632449140652 72, 87.484375 72" stroke="#9370DB" stroke-width="1.3" fill="none" stroke-dasharray="0 0" style=""/></g></g><g class="node default" id="classId-Functions-4" transform="translate(605.5703125, 107)"><g class="basic label-container"><path d="M-136.2890625 -99 L136.2890625 -99 L136.2890625 99 L-136.2890625 99" stroke="none" stroke-width="0" fill="#ECECFF" style=""/><path d="M-136.2890625 -99 C-58.8294245472522 -99, 18.630213405495596 -99, 136.2890625 -99 M-136.2890625 -99 C-61.39603204550508 -99, 13.496998408989839 -99, 136.2890625 -99 M136.2890625 -99 C136.2890625 -35.396766360614805, 136.2890625 28.20646727877039, 136.2890625 99 M136.2890625 -99 C136.2890625 -28.875208033790088, 136.2890625 41.249583932419824, 136.2890625 99 M136.2890625 99 C77.77543591822713 99, 19.261809336454263 99, -136.2890625 99 M136.2890625 99 C49.54779979209074 99, -37.193462915818515 99, -136.2890625 99 M-136.2890625 99 C-136.2890625 53.32814658264628, -136.2890625 7.656293165292567, -136.2890625 -99 M-136.2890625 99 C-136.2890625 31.219357533104628, -136.2890625 -36.561284933790745, -136.2890625 -99" stroke="#9370DB" stroke-width="1.3" fill="none" stroke-dasharray="0 0" style=""/></g><g class="annotation-group text" transform="translate(0, -75)"/><g class="label-group text" transform="translate(-36.09375, -75)"><g class="label" style="font-weight: bolder" transform="translate(0,-12)"><foreignObject width="72.1875" height="24"><div xmlns="http://www.w3.org/1999/xhtml" style="display: table-cell; white-space: nowrap; line-height: 1.5; max-width: 113px; text-align: center;"><span class="nodeLabel markdown-node-label" style=""><p>Functions</p></span></div></foreignObject></g></g><g class="members-group text" transform="translate(-124.2890625, -27)"/><g class="methods-group text" transform="translate(-124.2890625, 3)"><g class="label" style="" transform="translate(0,-12)"><foreignObject width="74.609375" height="24"><div xmlns="http://www.w3.org/1999/xhtml" style="display: table-cell; white-space: nowrap; line-height: 1.5; max-width: 123px; text-align: center;"><span class="nodeLabel markdown-node-label" style=""><p>+fn main()</p></span></div></foreignObject></g><g class="label" style="" transform="translate(0,12)"><foreignObject width="157.859375" height="24"><div xmlns="http://www.w3.org/1999/xhtml" style="display: table-cell; white-space: nowrap; line-height: 1.5; max-width: 195px; text-align: center;"><span class="nodeLabel markdown-node-label" style=""><p>+fn greet(name: &amp;str)</p></span></div></foreignObject></g><g class="label" style="" transform="translate(0,36)"><foreignObject width="212.484375" height="24"><div xmlns="http://www.w3.org/1999/xhtml" style="display: table-cell; white-space: nowrap; line-height: 1.5; max-width: 268px; text-align: center;"><span class="nodeLabel markdown-node-label" style=""><p>+fn add(x: i32, y: i32) : -&gt; i32</p></span></div></foreignObject></g><g class="label" style="" transform="translate(0,60)"><foreignObject width="74.265625" height="24"><div xmlns="http://www.w3.org/1999/xhtml" style="display: table-cell; white-space: nowrap; line-height: 1.5; max-width: 122px; text-align: center;"><span class="nodeLabel markdown-node-label" style=""><p>+println!()</p></span></div></foreignObject></g></g><g class="divider" style=""><path d="M-136.2890625 -51 C-43.337636747219875 -51, 49.61378900556025 -51, 136.2890625 -51 M-136.2890625 -51 C-37.06458967914659 -51, 62.159883141706814 -51, 136.2890625 -51" stroke="#9370DB" stroke-width="1.3" fill="none" stroke-dasharray="0 0" style=""/></g><g class="divider" style=""><path d="M-136.2890625 -27 C-74.01047037359893 -27, -11.731878247197884 -27, 136.2890625 -27 M-136.2890625 -27 C-49.031007524191764 -27, 38.22704745161647 -27, 136.2890625 -27" stroke="#9370DB" stroke-width="1.3" fill="none" stroke-dasharray="0 0" style=""/></g></g></g></g></g></svg>