<svg id="my-svg" width="100%" xmlns="http://www.w3.org/2000/svg" xmlns:xlink="http://www.w3.org/1999/xlink" style="max-width: 864.672px; background-color: white;" viewBox="-156.671875 -19 864.671875 275.82891845703125" role="graphics-document document" aria-roledescription="gitGraph"><style>#my-svg{font-family:"trebuchet ms",verdana,arial,sans-serif;font-size:16px;fill:#333;}@keyframes edge-animation-frame{from{stroke-dashoffset:0;}}@keyframes dash{to{stroke-dashoffset:0;}}#my-svg .edge-animation-slow{stroke-dasharray:9,5!important;stroke-dashoffset:900;animation:dash 50s linear infinite;stroke-linecap:round;}#my-svg .edge-animation-fast{stroke-dasharray:9,5!important;stroke-dashoffset:900;animation:dash 20s linear infinite;stroke-linecap:round;}#my-svg .error-icon{fill:#552222;}#my-svg .error-text{fill:#552222;stroke:#552222;}#my-svg .edge-thickness-normal{stroke-width:1px;}#my-svg .edge-thickness-thick{stroke-width:3.5px;}#my-svg .edge-pattern-solid{stroke-dasharray:0;}#my-svg .edge-thickness-invisible{stroke-width:0;fill:none;}#my-svg .edge-pattern-dashed{stroke-dasharray:3;}#my-svg .edge-pattern-dotted{stroke-dasharray:2;}#my-svg .marker{fill:#333333;stroke:#333333;}#my-svg .marker.cross{stroke:#333333;}#my-svg svg{font-family:"trebuchet ms",verdana,arial,sans-serif;font-size:16px;}#my-svg p{margin:0;}#my-svg .commit-id,#my-svg .commit-msg,#my-svg .branch-label{fill:lightgrey;color:lightgrey;font-family:'trebuchet ms',verdana,arial,sans-serif;font-family:var(--mermaid-font-family);}#my-svg .branch-label0{fill:#ffffff;}#my-svg .commit0{stroke:hsl(240, 100%, 46.2745098039%);fill:hsl(240, 100%, 46.2745098039%);}#my-svg .commit-highlight0{stroke:hsl(60, 100%, 3.7254901961%);fill:hsl(60, 100%, 3.7254901961%);}#my-svg .label0{fill:hsl(240, 100%, 46.2745098039%);}#my-svg .arrow0{stroke:hsl(240, 100%, 46.2745098039%);}#my-svg .branch-label1{fill:black;}#my-svg .commit1{stroke:hsl(60, 100%, 43.5294117647%);fill:hsl(60, 100%, 43.5294117647%);}#my-svg .commit-highlight1{stroke:rgb(0, 0, 160.5);fill:rgb(0, 0, 160.5);}#my-svg .label1{fill:hsl(60, 100%, 43.5294117647%);}#my-svg .arrow1{stroke:hsl(60, 100%, 43.5294117647%);}#my-svg .branch-label2{fill:black;}#my-svg .commit2{stroke:hsl(80, 100%, 46.2745098039%);fill:hsl(80, 100%, 46.2745098039%);}#my-svg .commit-highlight2{stroke:rgb(48.8333333334, 0, 146.5000000001);fill:rgb(48.8333333334, 0, 146.5000000001);}#my-svg .label2{fill:hsl(80, 100%, 46.2745098039%);}#my-svg .arrow2{stroke:hsl(80, 100%, 46.2745098039%);}#my-svg .branch-label3{fill:#ffffff;}#my-svg .commit3{stroke:hsl(210, 100%, 46.2745098039%);fill:hsl(210, 100%, 46.2745098039%);}#my-svg .commit-highlight3{stroke:rgb(146.5000000001, 73.2500000001, 0);fill:rgb(146.5000000001, 73.2500000001, 0);}#my-svg .label3{fill:hsl(210, 100%, 46.2745098039%);}#my-svg .arrow3{stroke:hsl(210, 100%, 46.2745098039%);}#my-svg .branch-label4{fill:black;}#my-svg .commit4{stroke:hsl(180, 100%, 46.2745098039%);fill:hsl(180, 100%, 46.2745098039%);}#my-svg .commit-highlight4{stroke:rgb(146.5000000001, 0, 0);fill:rgb(146.5000000001, 0, 0);}#my-svg .label4{fill:hsl(180, 100%, 46.2745098039%);}#my-svg .arrow4{stroke:hsl(180, 100%, 46.2745098039%);}#my-svg .branch-label5{fill:black;}#my-svg .commit5{stroke:hsl(150, 100%, 46.2745098039%);fill:hsl(150, 100%, 46.2745098039%);}#my-svg .commit-highlight5{stroke:rgb(146.5000000001, 0, 73.2500000001);fill:rgb(146.5000000001, 0, 73.2500000001);}#my-svg .label5{fill:hsl(150, 100%, 46.2745098039%);}#my-svg .arrow5{stroke:hsl(150, 100%, 46.2745098039%);}#my-svg .branch-label6{fill:black;}#my-svg .commit6{stroke:hsl(300, 100%, 46.2745098039%);fill:hsl(300, 100%, 46.2745098039%);}#my-svg .commit-highlight6{stroke:rgb(0, 146.5000000001, 0);fill:rgb(0, 146.5000000001, 0);}#my-svg .label6{fill:hsl(300, 100%, 46.2745098039%);}#my-svg .arrow6{stroke:hsl(300, 100%, 46.2745098039%);}#my-svg .branch-label7{fill:black;}#my-svg .commit7{stroke:hsl(0, 100%, 46.2745098039%);fill:hsl(0, 100%, 46.2745098039%);}#my-svg .commit-highlight7{stroke:rgb(0, 146.5000000001, 146.5000000001);fill:rgb(0, 146.5000000001, 146.5000000001);}#my-svg .label7{fill:hsl(0, 100%, 46.2745098039%);}#my-svg .arrow7{stroke:hsl(0, 100%, 46.2745098039%);}#my-svg .branch{stroke-width:1;stroke:#333333;stroke-dasharray:2;}#my-svg .commit-label{font-size:10px;fill:#000021;}#my-svg .commit-label-bkg{font-size:10px;fill:#ffffde;opacity:0.5;}#my-svg .tag-label{font-size:10px;fill:#131300;}#my-svg .tag-label-bkg{fill:#ECECFF;stroke:hsl(240, 60%, 86.2745098039%);}#my-svg .tag-hole{fill:#333;}#my-svg .commit-merge{stroke:#ECECFF;fill:#ECECFF;}#my-svg .commit-reverse{stroke:#ECECFF;fill:#ECECFF;stroke-width:3;}#my-svg .commit-highlight-inner{stroke:#ECECFF;fill:#ECECFF;}#my-svg .arrow{stroke-width:8;stroke-linecap:round;fill:none;}#my-svg .gitTitleText{text-anchor:middle;font-size:18px;fill:#333;}#my-svg :root{--mermaid-font-family:"trebuchet ms",verdana,arial,sans-serif;}</style><g/><g class="commit-bullets"/><g class="commit-labels"/><g><line x1="0" y1="0" x2="700" y2="0" class="branch branch0"/><rect class="branchLabelBkg label0" rx="4" ry="4" x="-69" y="-1.5" width="53" height="23" transform="translate(-19, -9.5)"/><g class="branchLabel"><g class="label branch-label0" transform="translate(-79, -10.5)"><text><tspan xml:space="preserve" dy="1em" x="0" class="row">main</tspan></text></g></g><line x1="0" y1="90" x2="700" y2="90" class="branch branch1"/><rect class="branchLabelBkg label1" rx="4" ry="4" x="-129.671875" y="-1.5" width="113.671875" height="23" transform="translate(-19, 80.5)"/><g class="branchLabel"><g class="label branch-label1" transform="translate(-139.671875, 79.5)"><text><tspan xml:space="preserve" dy="1em" x="0" class="row">stack-project</tspan></text></g></g><line x1="0" y1="180" x2="700" y2="180" class="branch branch2"/><rect class="branchLabelBkg label2" rx="4" ry="4" x="-121.7421875" y="-1.5" width="105.7421875" height="23" transform="translate(-19, 170.5)"/><g class="branchLabel"><g class="label branch-label2" transform="translate(-131.7421875, 169.5)"><text><tspan xml:space="preserve" dy="1em" x="0" class="row">concurrency</tspan></text></g></g></g><g class="commit-arrows"><path d="M 10 0 L 60 0" class="arrow arrow0"/><path d="M 60 0 L 110 0" class="arrow arrow0"/><path d="M 110 0 L 110 70 A 20 20, 0, 0, 0, 130 90 L 160 90" class="arrow arrow1"/><path d="M 160 90 L 210 90" class="arrow arrow1"/><path d="M 110 0 L 260 0" class="arrow arrow0"/><path d="M 210 90 L 240 90 A 20 20, 0, 0, 0, 260 70 L 260 0" class="arrow arrow1"/><path d="M 260 0 L 310 0" class="arrow arrow0"/><path d="M 310 0 L 360 0" class="arrow arrow0"/><path d="M 360 0 L 410 0" class="arrow arrow0"/><path d="M 410 0 L 460 0" class="arrow arrow0"/><path d="M 460 0 L 460 160 A 20 20, 0, 0, 0, 480 180 L 510 180" class="arrow arrow2"/><path d="M 510 180 L 560 180" class="arrow arrow2"/><path d="M 460 0 L 610 0" class="arrow arrow0"/><path d="M 560 180 L 590 180 A 20 20, 0, 0, 0, 610 160 L 610 0" class="arrow arrow2"/><path d="M 610 0 L 660 0" class="arrow arrow0"/></g><g class="commit-bullets"><circle cx="10" cy="0" r="10" class="commit Ch2: Basics commit0"/><circle cx="60" cy="0" r="10" class="commit Ch3: Ownership commit0"/><circle cx="110" cy="0" r="10" class="commit Ch4: Control commit0"/><circle cx="160" cy="90" r="10" class="commit Ch5: Stack commit1"/><circle cx="210" cy="90" r="10" class="commit Reverse fn commit1"/><circle cx="260" cy="0" r="9" class="commit 5-6108aef commit0"/><circle cx="260" cy="0" r="6" class="commit commit-merge 5-6108aef commit0"/><circle cx="310" cy="0" r="10" class="commit Ch6: Structs commit0"/><circle cx="360" cy="0" r="10" class="commit Ch7: Iterators commit0"/><circle cx="410" cy="0" r="10" class="commit Ch8: Modules commit0"/><circle cx="460" cy="0" r="10" class="commit Ch9: Pointers commit0"/><circle cx="510" cy="180" r="10" class="commit Ch14: Threads commit2"/><circle cx="560" cy="180" r="10" class="commit Channels commit2"/><circle cx="610" cy="0" r="9" class="commit 12-d4b30af commit0"/><circle cx="610" cy="0" r="6" class="commit commit-merge 12-d4b30af commit0"/><circle cx="660" cy="0" r="10" class="commit Ch24: Blockchain commit0"/></g><g class="commit-labels"><g transform="translate(-30.371250000000003, 27.06375) rotate(-45, 0, 0)"><rect class="commit-label-bkg" x="-17.09375" y="13.5" width="54.1875" height="15"/><text x="-15.09375" y="25" class="commit-label">Ch2: Basics</text></g><g transform="translate(-38.17423828125, 34.045371093750006) rotate(-45, 50, 0)"><rect class="commit-label-bkg" x="22.63916015625" y="13.5" width="74.7216796875" height="15"/><text x="24.63916015625" y="25" class="commit-label">Ch3: Ownership</text></g><g transform="translate(-32.73326171875, 29.17712890625) rotate(-45, 100, 0)"><rect class="commit-label-bkg" x="79.79833984375" y="13.5" width="60.4033203125" height="15"/><text x="81.79833984375" y="25" class="commit-label">Ch4: Control</text></g><g transform="translate(-29.674335937499997, 26.4401953125) rotate(-45, 150, 90)"><rect class="commit-label-bkg" x="133.8232421875" y="103.5" width="52.353515625" height="15"/><text x="135.8232421875" y="115" class="commit-label">Ch5: Stack</text></g><g transform="translate(-29.0828125, 25.9109375) rotate(-45, 200, 90)"><rect class="commit-label-bkg" x="184.6015625" y="103.5" width="50.796875" height="15"/><text x="186.6015625" y="115" class="commit-label">Reverse fn</text></g><g transform="translate(-31.998124999999998, 28.519375) rotate(-45, 300, 0)"><rect class="commit-label-bkg" x="280.765625" y="13.5" width="58.46875" height="15"/><text x="282.765625" y="25" class="commit-label">Ch6: Structs</text></g><g transform="translate(-34.8540625, 31.0746875) rotate(-45, 350, 0)"><rect class="commit-label-bkg" x="327.0078125" y="13.5" width="65.984375" height="15"/><text x="329.0078125" y="25" class="commit-label">Ch7: Iterators</text></g><g transform="translate(-33.8446875, 30.1715625) rotate(-45, 400, 0)"><rect class="commit-label-bkg" x="378.3359375" y="13.5" width="63.328125" height="15"/><text x="380.3359375" y="25" class="commit-label">Ch8: Modules</text></g><g transform="translate(-33.921875, 30.240625) rotate(-45, 450, 0)"><rect class="commit-label-bkg" x="428.234375" y="13.5" width="63.53125" height="15"/><text x="430.234375" y="25" class="commit-label">Ch9: Pointers</text></g><g transform="translate(-35.5903125, 31.733437499999997) rotate(-45, 500, 180)"><rect class="commit-label-bkg" x="476.0390625" y="193.5" width="67.921875" height="15"/><text x="478.0390625" y="205" class="commit-label">Ch14: Threads</text></g><g transform="translate(-26.529687499999998, 23.6265625) rotate(-45, 550, 180)"><rect class="commit-label-bkg" x="537.9609375" y="193.5" width="44.078125" height="15"/><text x="539.9609375" y="205" class="commit-label">Channels</text></g><g transform="translate(-40.3996875, 36.0365625) rotate(-45, 650, 0)"><rect class="commit-label-bkg" x="619.7109375" y="13.5" width="80.578125" height="15"/><text x="621.7109375" y="25" class="commit-label">Ch24: Blockchain</text></g></g></svg>