<svg id="my-svg" width="100%" xmlns="http://www.w3.org/2000/svg" xmlns:xlink="http://www.w3.org/1999/xlink" class="classDiagram" style="max-width: 2205.67px; background-color: white;" viewBox="0 0 2205.671875 426" role="graphics-document document" aria-roledescription="class"><style>#my-svg{font-family:"trebuchet ms",verdana,arial,sans-serif;font-size:16px;fill:#333;}@keyframes edge-animation-frame{from{stroke-dashoffset:0;}}@keyframes dash{to{stroke-dashoffset:0;}}#my-svg .edge-animation-slow{stroke-dasharray:9,5!important;stroke-dashoffset:900;animation:dash 50s linear infinite;stroke-linecap:round;}#my-svg .edge-animation-fast{stroke-dasharray:9,5!important;stroke-dashoffset:900;animation:dash 20s linear infinite;stroke-linecap:round;}#my-svg .error-icon{fill:#552222;}#my-svg .error-text{fill:#552222;stroke:#552222;}#my-svg .edge-thickness-normal{stroke-width:1px;}#my-svg .edge-thickness-thick{stroke-width:3.5px;}#my-svg .edge-pattern-solid{stroke-dasharray:0;}#my-svg .edge-thickness-invisible{stroke-width:0;fill:none;}#my-svg .edge-pattern-dashed{stroke-dasharray:3;}#my-svg .edge-pattern-dotted{stroke-dasharray:2;}#my-svg .marker{fill:#333333;stroke:#333333;}#my-svg .marker.cross{stroke:#333333;}#my-svg svg{font-family:"trebuchet ms",verdana,arial,sans-serif;font-size:16px;}#my-svg p{margin:0;}#my-svg g.classGroup text{fill:#9370DB;stroke:none;font-family:"trebuchet ms",verdana,arial,sans-serif;font-size:10px;}#my-svg g.classGroup text .title{font-weight:bolder;}#my-svg .cluster-label text{fill:#333;}#my-svg .cluster-label span{color:#333;}#my-svg .cluster-label span p{background-color:transparent;}#my-svg .cluster rect{fill:#ffffde;stroke:#aaaa33;stroke-width:1px;}#my-svg .cluster text{fill:#333;}#my-svg .cluster span{color:#333;}#my-svg .nodeLabel,#my-svg .edgeLabel{color:#131300;}#my-svg .edgeLabel .label rect{fill:#ECECFF;}#my-svg .label text{fill:#131300;}#my-svg .labelBkg{background:#ECECFF;}#my-svg .edgeLabel .label span{background:#ECECFF;}#my-svg .classTitle{font-weight:bolder;}#my-svg .node rect,#my-svg .node circle,#my-svg .node ellipse,#my-svg .node polygon,#my-svg .node path{fill:#ECECFF;stroke:#9370DB;stroke-width:1px;}#my-svg .divider{stroke:#9370DB;stroke-width:1;}#my-svg g.clickable{cursor:pointer;}#my-svg g.classGroup rect{fill:#ECECFF;stroke:#9370DB;}#my-svg g.classGroup line{stroke:#9370DB;stroke-width:1;}#my-svg .classLabel .box{stroke:none;stroke-width:0;fill:#ECECFF;opacity:0.5;}#my-svg .classLabel .label{fill:#9370DB;font-size:10px;}#my-svg .relation{stroke:#333333;stroke-width:1;fill:none;}#my-svg .dashed-line{stroke-dasharray:3;}#my-svg .dotted-line{stroke-dasharray:1 2;}#my-svg #compositionStart,#my-svg .composition{fill:#333333!important;stroke:#333333!important;stroke-width:1;}#my-svg #compositionEnd,#my-svg .composition{fill:#333333!important;stroke:#333333!important;stroke-width:1;}#my-svg #dependencyStart,#my-svg .dependency{fill:#333333!important;stroke:#333333!important;stroke-width:1;}#my-svg #dependencyStart,#my-svg .dependency{fill:#333333!important;stroke:#333333!important;stroke-width:1;}#my-svg #extensionStart,#my-svg .extension{fill:transparent!important;stroke:#333333!important;stroke-width:1;}#my-svg #extensionEnd,#my-svg .extension{fill:transparent!important;stroke:#333333!important;stroke-width:1;}#my-svg #aggregationStart,#my-svg .aggregation{fill:transparent!important;stroke:#333333!important;stroke-width:1;}#my-svg #aggregationEnd,#my-svg .aggregation{fill:transparent!important;stroke:#333333!important;stroke-width:1;}#my-svg #lollipopStart,#my-svg .lollipop{fill:#ECECFF!important;stroke:#333333!important;stroke-width:1;}#my-svg #lollipopEnd,#my-svg .lollipop{fill:#ECECFF!important;stroke:#333333!important;stroke-width:1;}#my-svg .edgeTerminals{font-size:11px;line-height:initial;}#my-svg .classTitleText{text-anchor:middle;font-size:18px;fill:#333;}#my-svg .label-icon{display:inline-block;height:1em;overflow:visible;vertical-align:-0.125em;}#my-svg .node .label-icon path{fill:currentColor;stroke:revert;stroke-width:revert;}#my-svg :root{--mermaid-font-family:"trebuchet ms",verdana,arial,sans-serif;}</style><g><defs><marker id="my-svg_class-aggregationStart" class="marker aggregation class" refX="18" refY="7" markerWidth="190" markerHeight="240" orient="auto"><path d="M 18,7 L9,13 L1,7 L9,1 Z"/></marker></defs><defs><marker id="my-svg_class-aggregationEnd" class="marker aggregation class" refX="1" refY="7" markerWidth="20" markerHeight="28" orient="auto"><path d="M 18,7 L9,13 L1,7 L9,1 Z"/></marker></defs><defs><marker id="my-svg_class-extensionStart" class="marker extension class" refX="18" refY="7" markerWidth="190" markerHeight="240" orient="auto"><path d="M 1,7 L18,13 V 1 Z"/></marker></defs><defs><marker id="my-svg_class-extensionEnd" class="marker extension class" refX="1" refY="7" markerWidth="20" markerHeight="28" orient="auto"><path d="M 1,1 V 13 L18,7 Z"/></marker></defs><defs><marker id="my-svg_class-compositionStart" class="marker composition class" refX="18" refY="7" markerWidth="190" markerHeight="240" orient="auto"><path d="M 18,7 L9,13 L1,7 L9,1 Z"/></marker></defs><defs><marker id="my-svg_class-compositionEnd" class="marker composition class" refX="1" refY="7" markerWidth="20" markerHeight="28" orient="auto"><path d="M 18,7 L9,13 L1,7 L9,1 Z"/></marker></defs><defs><marker id="my-svg_class-dependencyStart" class="marker dependency class" refX="6" refY="7" markerWidth="190" markerHeight="240" orient="auto"><path d="M 5,7 L9,13 L1,7 L9,1 Z"/></marker></defs><defs><marker id="my-svg_class-dependencyEnd" class="marker dependency class" refX="13" refY="7" markerWidth="20" markerHeight="28" orient="auto"><path d="M 18,7 L9,13 L14,7 L9,1 Z"/></marker></defs><defs><marker id="my-svg_class-lollipopStart" class="marker lollipop class" refX="13" refY="7" markerWidth="190" markerHeight="240" orient="auto"><circle fill="transparent" cx="7" cy="7" r="6"/></marker></defs><defs><marker id="my-svg_class-lollipopEnd" class="marker lollipop class" refX="1" refY="7" markerWidth="190" markerHeight="240" orient="auto"><circle fill="transparent" cx="7" cy="7" r="6"/></marker></defs><g class="root"><g class="clusters"/><g class="edgePaths"><path d="M125.516,217.25L125.516,220.542C125.516,223.833,125.516,230.417,125.516,239.875C125.516,249.333,125.516,261.667,125.516,267.833L125.516,274" id="id_Trait_Struct_1" class="edge-thickness-normal edge-pattern-dashed relation" style=";;;" data-edge="true" data-et="edge" data-id="id_Trait_Struct_1" data-points="W3sieCI6MTI1LjUxNTYyNSwieSI6MjAwfSx7IngiOjEyNS41MTU2MjUsInkiOjIzN30seyJ4IjoxMjUuNTE1NjI1LCJ5IjoyNzR9XQ==" marker-start="url(#my-svg_class-extensionStart)"/></g><g class="edgeLabels"><g class="edgeLabel" transform="translate(125.515625, 237)"><g class="label" data-id="id_Trait_Struct_1" transform="translate(-41.890625, -12)"><foreignObject width="83.78125" height="24"><div xmlns="http://www.w3.org/1999/xhtml" class="labelBkg" style="display: table-cell; white-space: nowrap; line-height: 1.5; max-width: 200px; text-align: center;"><span class="edgeLabel"><p>implements</p></span></div></foreignObject></g></g></g><g class="nodes"><g class="node default" id="classId-Trait-0" transform="translate(125.515625, 104)"><g class="basic label-container"><path d="M-117.515625 -96 L117.515625 -96 L117.515625 96 L-117.515625 96" stroke="none" stroke-width="0" fill="#ECECFF" style=""/><path d="M-117.515625 -96 C-25.13030583151337 -96, 67.25501333697326 -96, 117.515625 -96 M-117.515625 -96 C-61.14534117510804 -96, -4.775057350216073 -96, 117.515625 -96 M117.515625 -96 C117.515625 -29.990686060193866, 117.515625 36.01862787961227, 117.515625 96 M117.515625 -96 C117.515625 -41.25870365314444, 117.515625 13.482592693711126, 117.515625 96 M117.515625 96 C25.196127007469386 96, -67.12337098506123 96, -117.515625 96 M117.515625 96 C29.771165603599286 96, -57.97329379280143 96, -117.515625 96 M-117.515625 96 C-117.515625 40.687065382686875, -117.515625 -14.62586923462625, -117.515625 -96 M-117.515625 96 C-117.515625 37.22943664648349, -117.515625 -21.541126707033015, -117.515625 -96" stroke="#9370DB" stroke-width="1.3" fill="none" stroke-dasharray="0 0" style=""/></g><g class="annotation-group text" transform="translate(-24.328125, -72)"><g class="label" style="" transform="translate(0,-12)"><foreignObject width="48.65625" height="24"><div xmlns="http://www.w3.org/1999/xhtml" style="display: table-cell; white-space: nowrap; line-height: 1.5; max-width: 92px; text-align: center;"><span class="nodeLabel markdown-node-label" style=""><p>«trait»</p></span></div></foreignObject></g></g><g class="label-group text" transform="translate(-17.0625, -48)"><g class="label" style="font-weight: bolder" transform="translate(0,-12)"><foreignObject width="34.125" height="24"><div xmlns="http://www.w3.org/1999/xhtml" style="display: table-cell; white-space: nowrap; line-height: 1.5; max-width: 81px; text-align: center;"><span class="nodeLabel markdown-node-label" style=""><p>Trait</p></span></div></foreignObject></g></g><g class="members-group text" transform="translate(-105.515625, 0)"><g class="label" style="" transform="translate(0,-12)"><foreignObject width="123.484375" height="24"><div xmlns="http://www.w3.org/1999/xhtml" style="display: table-cell; white-space: nowrap; line-height: 1.5; max-width: 165px; text-align: center;"><span class="nodeLabel markdown-node-label" style=""><p>+associated_type</p></span></div></foreignObject></g></g><g class="methods-group text" transform="translate(-105.515625, 48)"><g class="label" style="" transform="translate(0,-12)"><foreignObject width="83.125" height="24"><div xmlns="http://www.w3.org/1999/xhtml" style="display: table-cell; white-space: nowrap; line-height: 1.5; max-width: 130px; text-align: center;"><span class="nodeLabel markdown-node-label" style=""><p>+method1()</p></span></div></foreignObject></g><g class="label" style="" transform="translate(0,12)"><foreignObject width="186.703125" height="24"><div xmlns="http://www.w3.org/1999/xhtml" style="display: table-cell; white-space: nowrap; line-height: 1.5; max-width: 221px; text-align: center;"><span class="nodeLabel markdown-node-label" style=""><p>+method2() : default impl</p></span></div></foreignObject></g></g><g class="divider" style=""><path d="M-117.515625 -24 C-26.06915004373647 -24, 65.37732491252706 -24, 117.515625 -24 M-117.515625 -24 C-68.04665764354098 -24, -18.577690287081964 -24, 117.515625 -24" stroke="#9370DB" stroke-width="1.3" fill="none" stroke-dasharray="0 0" style=""/></g><g class="divider" style=""><path d="M-117.515625 24 C-48.94513557463287 24, 19.625353850734257 24, 117.515625 24 M-117.515625 24 C-49.60936307195182 24, 18.296898856096362 24, 117.515625 24" stroke="#9370DB" stroke-width="1.3" fill="none" stroke-dasharray="0 0" style=""/></g></g><g class="node default" id="classId-Struct-1" transform="translate(125.515625, 346)"><g class="basic label-container"><path d="M-69.8359375 -72 L69.8359375 -72 L69.8359375 72 L-69.8359375 72" stroke="none" stroke-width="0" fill="#ECECFF" style=""/><path d="M-69.8359375 -72 C-41.243674196704234 -72, -12.651410893408467 -72, 69.8359375 -72 M-69.8359375 -72 C-34.263156391617734 -72, 1.3096247167645316 -72, 69.8359375 -72 M69.8359375 -72 C69.8359375 -29.155347997607485, 69.8359375 13.68930400478503, 69.8359375 72 M69.8359375 -72 C69.8359375 -16.87573715040231, 69.8359375 38.24852569919538, 69.8359375 72 M69.8359375 72 C36.71981946085145 72, 3.603701421702894 72, -69.8359375 72 M69.8359375 72 C20.56615682331229 72, -28.70362385337542 72, -69.8359375 72 M-69.8359375 72 C-69.8359375 17.64287755649748, -69.8359375 -36.71424488700504, -69.8359375 -72 M-69.8359375 72 C-69.8359375 31.65890418167436, -69.8359375 -8.682191636651282, -69.8359375 -72" stroke="#9370DB" stroke-width="1.3" fill="none" stroke-dasharray="0 0" style=""/></g><g class="annotation-group text" transform="translate(0, -48)"/><g class="label-group text" transform="translate(-22.671875, -48)"><g class="label" style="font-weight: bolder" transform="translate(0,-12)"><foreignObject width="45.34375" height="24"><div xmlns="http://www.w3.org/1999/xhtml" style="display: table-cell; white-space: nowrap; line-height: 1.5; max-width: 89px; text-align: center;"><span class="nodeLabel markdown-node-label" style=""><p>Struct</p></span></div></foreignObject></g></g><g class="members-group text" transform="translate(-57.8359375, 0)"><g class="label" style="" transform="translate(0,-12)"><foreignObject width="93" height="24"><div xmlns="http://www.w3.org/1999/xhtml" style="display: table-cell; white-space: nowrap; line-height: 1.5; max-width: 141px; text-align: center;"><span class="nodeLabel markdown-node-label" style=""><p>+field1: Type</p></span></div></foreignObject></g><g class="label" style="" transform="translate(0,12)"><foreignObject width="93" height="24"><div xmlns="http://www.w3.org/1999/xhtml" style="display: table-cell; white-space: nowrap; line-height: 1.5; max-width: 141px; text-align: center;"><span class="nodeLabel markdown-node-label" style=""><p>+field2: Type</p></span></div></foreignObject></g></g><g class="methods-group text" transform="translate(-57.8359375, 72)"/><g class="divider" style=""><path d="M-69.8359375 -24 C-23.839037935523343 -24, 22.157861628953313 -24, 69.8359375 -24 M-69.8359375 -24 C-33.62364460031966 -24, 2.5886482993606847 -24, 69.8359375 -24" stroke="#9370DB" stroke-width="1.3" fill="none" stroke-dasharray="0 0" style=""/></g><g class="divider" style=""><path d="M-69.8359375 48 C-21.524665283755454 48, 26.786606932489093 48, 69.8359375 48 M-69.8359375 48 C-23.63185406302148 48, 22.572229373957043 48, 69.8359375 48" stroke="#9370DB" stroke-width="1.3" fill="none" stroke-dasharray="0 0" style=""/></g></g><g class="node default" id="classId-TraitBounds-2" transform="translate(433.4375, 104)"><g class="basic label-container"><path d="M-140.40625 -63 L140.40625 -63 L140.40625 63 L-140.40625 63" stroke="none" stroke-width="0" fill="#ECECFF" style=""/><path d="M-140.40625 -63 C-80.94752497553594 -63, -21.488799951071897 -63, 140.40625 -63 M-140.40625 -63 C-54.88515348349645 -63, 30.635943033007095 -63, 140.40625 -63 M140.40625 -63 C140.40625 -23.59117090605021, 140.40625 15.817658187899582, 140.40625 63 M140.40625 -63 C140.40625 -34.66346727165964, 140.40625 -6.326934543319275, 140.40625 63 M140.40625 63 C75.4721605314533 63, 10.538071062906596 63, -140.40625 63 M140.40625 63 C64.01901516100837 63, -12.368219677983262 63, -140.40625 63 M-140.40625 63 C-140.40625 25.367055848333273, -140.40625 -12.265888303333455, -140.40625 -63 M-140.40625 63 C-140.40625 35.4756158840024, -140.40625 7.951231768004803, -140.40625 -63" stroke="#9370DB" stroke-width="1.3" fill="none" stroke-dasharray="0 0" style=""/></g><g class="annotation-group text" transform="translate(0, -39)"/><g class="label-group text" transform="translate(-43.890625, -39)"><g class="label" style="font-weight: bolder" transform="translate(0,-12)"><foreignObject width="87.78125" height="24"><div xmlns="http://www.w3.org/1999/xhtml" style="display: table-cell; white-space: nowrap; line-height: 1.5; max-width: 129px; text-align: center;"><span class="nodeLabel markdown-node-label" style=""><p>TraitBounds</p></span></div></foreignObject></g></g><g class="members-group text" transform="translate(-128.40625, 9)"/><g class="methods-group text" transform="translate(-128.40625, 39)"><g class="label" style="" transform="translate(0,-12)"><foreignObject width="212.921875" height="24"><div xmlns="http://www.w3.org/1999/xhtml" style="display: table-cell; white-space: nowrap; line-height: 1.5; max-width: 288px; text-align: center;"><span class="nodeLabel markdown-node-label" style=""><p>+fn generic&lt;T: Trait&gt;(item: T)</p></span></div></foreignObject></g></g><g class="divider" style=""><path d="M-140.40625 -15 C-34.070306809315625 -15, 72.26563638136875 -15, 140.40625 -15 M-140.40625 -15 C-60.29164979149792 -15, 19.822950417004165 -15, 140.40625 -15" stroke="#9370DB" stroke-width="1.3" fill="none" stroke-dasharray="0 0" style=""/></g><g class="divider" style=""><path d="M-140.40625 9 C-51.72723920798768 9, 36.95177158402464 9, 140.40625 9 M-140.40625 9 C-74.67687700684657 9, -8.947504013693134 9, 140.40625 9" stroke="#9370DB" stroke-width="1.3" fill="none" stroke-dasharray="0 0" style=""/></g></g><g class="node default" id="classId-AssociatedTypes-3" transform="translate(719.59375, 104)"><g class="basic label-container"><path d="M-95.75 -60 L95.75 -60 L95.75 60 L-95.75 60" stroke="none" stroke-width="0" fill="#ECECFF" style=""/><path d="M-95.75 -60 C-24.238372155504848 -60, 47.273255688990304 -60, 95.75 -60 M-95.75 -60 C-22.715315823987126 -60, 50.31936835202575 -60, 95.75 -60 M95.75 -60 C95.75 -22.486341061561056, 95.75 15.027317876877888, 95.75 60 M95.75 -60 C95.75 -31.150203284976875, 95.75 -2.3004065699537506, 95.75 60 M95.75 60 C41.58013757279749 60, -12.58972485440502 60, -95.75 60 M95.75 60 C19.71326483224044 60, -56.32347033551912 60, -95.75 60 M-95.75 60 C-95.75 22.48038434499189, -95.75 -15.03923131001622, -95.75 -60 M-95.75 60 C-95.75 35.72575188977126, -95.75 11.45150377954252, -95.75 -60" stroke="#9370DB" stroke-width="1.3" fill="none" stroke-dasharray="0 0" style=""/></g><g class="annotation-group text" transform="translate(0, -36)"/><g class="label-group text" transform="translate(-60.90625, -36)"><g class="label" style="font-weight: bolder" transform="translate(0,-12)"><foreignObject width="121.8125" height="24"><div xmlns="http://www.w3.org/1999/xhtml" style="display: table-cell; white-space: nowrap; line-height: 1.5; max-width: 158px; text-align: center;"><span class="nodeLabel markdown-node-label" style=""><p>AssociatedTypes</p></span></div></foreignObject></g></g><g class="members-group text" transform="translate(-83.75, 12)"><g class="label" style="" transform="translate(0,-12)"><foreignObject width="106.59375" height="24"><div xmlns="http://www.w3.org/1999/xhtml" style="display: table-cell; white-space: nowrap; line-height: 1.5; max-width: 144px; text-align: center;"><span class="nodeLabel markdown-node-label" style=""><p>trait Container</p></span></div></foreignObject></g></g><g class="methods-group text" transform="translate(-83.75, 60)"/><g class="divider" style=""><path d="M-95.75 -12 C-54.34775895870785 -12, -12.9455179174157 -12, 95.75 -12 M-95.75 -12 C-27.83738105028553 -12, 40.07523789942894 -12, 95.75 -12" stroke="#9370DB" stroke-width="1.3" fill="none" stroke-dasharray="0 0" style=""/></g><g class="divider" style=""><path d="M-95.75 36 C-43.84554020637857 36, 8.058919587242855 36, 95.75 36 M-95.75 36 C-33.49299049200579 36, 28.764019015988424 36, 95.75 36" stroke="#9370DB" stroke-width="1.3" fill="none" stroke-dasharray="0 0" style=""/></g></g><g class="node default" id="classId-SuperTraits-4" transform="translate(967.796875, 104)"><g class="basic label-container"><path d="M-102.453125 -60 L102.453125 -60 L102.453125 60 L-102.453125 60" stroke="none" stroke-width="0" fill="#ECECFF" style=""/><path d="M-102.453125 -60 C-54.9831179821081 -60, -7.513110964216196 -60, 102.453125 -60 M-102.453125 -60 C-46.072859455452694 -60, 10.307406089094613 -60, 102.453125 -60 M102.453125 -60 C102.453125 -15.396870304690118, 102.453125 29.206259390619763, 102.453125 60 M102.453125 -60 C102.453125 -17.19221275449098, 102.453125 25.615574491018037, 102.453125 60 M102.453125 60 C27.555763661875588 60, -47.341597676248824 60, -102.453125 60 M102.453125 60 C20.996075481190275 60, -60.46097403761945 60, -102.453125 60 M-102.453125 60 C-102.453125 34.88662113126114, -102.453125 9.773242262522274, -102.453125 -60 M-102.453125 60 C-102.453125 31.419724203461705, -102.453125 2.8394484069234096, -102.453125 -60" stroke="#9370DB" stroke-width="1.3" fill="none" stroke-dasharray="0 0" style=""/></g><g class="annotation-group text" transform="translate(0, -36)"/><g class="label-group text" transform="translate(-42, -36)"><g class="label" style="font-weight: bolder" transform="translate(0,-12)"><foreignObject width="84" height="24"><div xmlns="http://www.w3.org/1999/xhtml" style="display: table-cell; white-space: nowrap; line-height: 1.5; max-width: 124px; text-align: center;"><span class="nodeLabel markdown-node-label" style=""><p>SuperTraits</p></span></div></foreignObject></g></g><g class="members-group text" transform="translate(-90.453125, 12)"><g class="label" style="" transform="translate(0,-12)"><foreignObject width="138.90625" height="24"><div xmlns="http://www.w3.org/1999/xhtml" style="display: table-cell; white-space: nowrap; line-height: 1.5; max-width: 179px; text-align: center;"><span class="nodeLabel markdown-node-label" style=""><p>+trait Child: Parent</p></span></div></foreignObject></g></g><g class="methods-group text" transform="translate(-90.453125, 60)"/><g class="divider" style=""><path d="M-102.453125 -12 C-55.84940666850243 -12, -9.245688337004864 -12, 102.453125 -12 M-102.453125 -12 C-27.71281667442787 -12, 47.02749165114426 -12, 102.453125 -12" stroke="#9370DB" stroke-width="1.3" fill="none" stroke-dasharray="0 0" style=""/></g><g class="divider" style=""><path d="M-102.453125 36 C-29.8072386057124 36, 42.8386477885752 36, 102.453125 36 M-102.453125 36 C-36.78426545865133 36, 28.884594082697333 36, 102.453125 36" stroke="#9370DB" stroke-width="1.3" fill="none" stroke-dasharray="0 0" style=""/></g></g><g class="node default" id="classId-TraitObjects-5" transform="translate(1212.02734375, 104)"><g class="basic label-container"><path d="M-91.77734375 -72 L91.77734375 -72 L91.77734375 72 L-91.77734375 72" stroke="none" stroke-width="0" fill="#ECECFF" style=""/><path d="M-91.77734375 -72 C-37.15243984720243 -72, 17.47246405559514 -72, 91.77734375 -72 M-91.77734375 -72 C-26.150039300727585 -72, 39.47726514854483 -72, 91.77734375 -72 M91.77734375 -72 C91.77734375 -23.25867530245136, 91.77734375 25.482649395097283, 91.77734375 72 M91.77734375 -72 C91.77734375 -40.81925660512576, 91.77734375 -9.63851321025151, 91.77734375 72 M91.77734375 72 C39.800919407898746 72, -12.175504934202507 72, -91.77734375 72 M91.77734375 72 C40.89012872621518 72, -9.997086297569638 72, -91.77734375 72 M-91.77734375 72 C-91.77734375 20.912467549170408, -91.77734375 -30.175064901659184, -91.77734375 -72 M-91.77734375 72 C-91.77734375 22.493006487859674, -91.77734375 -27.013987024280652, -91.77734375 -72" stroke="#9370DB" stroke-width="1.3" fill="none" stroke-dasharray="0 0" style=""/></g><g class="annotation-group text" transform="translate(0, -48)"/><g class="label-group text" transform="translate(-45.5859375, -48)"><g class="label" style="font-weight: bolder" transform="translate(0,-12)"><foreignObject width="91.171875" height="24"><div xmlns="http://www.w3.org/1999/xhtml" style="display: table-cell; white-space: nowrap; line-height: 1.5; max-width: 129px; text-align: center;"><span class="nodeLabel markdown-node-label" style=""><p>TraitObjects</p></span></div></foreignObject></g></g><g class="members-group text" transform="translate(-79.77734375, 0)"><g class="label" style="" transform="translate(0,-12)"><foreignObject width="113.96875" height="24"><div xmlns="http://www.w3.org/1999/xhtml" style="display: table-cell; white-space: nowrap; line-height: 1.5; max-width: 204px; text-align: center;"><span class="nodeLabel markdown-node-label" style=""><p>+Box&lt;dyn Trait&gt;</p></span></div></foreignObject></g><g class="label" style="" transform="translate(0,12)"><foreignObject width="71.53125" height="24"><div xmlns="http://www.w3.org/1999/xhtml" style="display: table-cell; white-space: nowrap; line-height: 1.5; max-width: 122px; text-align: center;"><span class="nodeLabel markdown-node-label" style=""><p>+dyn Trait</p></span></div></foreignObject></g></g><g class="methods-group text" transform="translate(-79.77734375, 72)"/><g class="divider" style=""><path d="M-91.77734375 -24 C-45.531141512020355 -24, 0.7150607259592903 -24, 91.77734375 -24 M-91.77734375 -24 C-43.655409438181564 -24, 4.466524873636871 -24, 91.77734375 -24" stroke="#9370DB" stroke-width="1.3" fill="none" stroke-dasharray="0 0" style=""/></g><g class="divider" style=""><path d="M-91.77734375 48 C-53.59556564154422 48, -15.413787533088438 48, 91.77734375 48 M-91.77734375 48 C-22.838404264253143 48, 46.100535221493715 48, 91.77734375 48" stroke="#9370DB" stroke-width="1.3" fill="none" stroke-dasharray="0 0" style=""/></g></g><g class="node default" id="classId-NoteoverTrait-6" transform="translate(1546.00390625, 104)"><g class="basic label-container"><path d="M-192.19921875 -60 L192.19921875 -60 L192.19921875 60 L-192.19921875 60" stroke="none" stroke-width="0" fill="#ECECFF" style=""/><path d="M-192.19921875 -60 C-78.3570480221878 -60, 35.485122705624406 -60, 192.19921875 -60 M-192.19921875 -60 C-53.8377336992703 -60, 84.5237513514594 -60, 192.19921875 -60 M192.19921875 -60 C192.19921875 -30.50474503474352, 192.19921875 -1.0094900694870432, 192.19921875 60 M192.19921875 -60 C192.19921875 -21.088378849224064, 192.19921875 17.823242301551872, 192.19921875 60 M192.19921875 60 C42.99755080785826 60, -106.20411713428348 60, -192.19921875 60 M192.19921875 60 C53.26839136122848 60, -85.66243602754304 60, -192.19921875 60 M-192.19921875 60 C-192.19921875 15.071376679908937, -192.19921875 -29.857246640182126, -192.19921875 -60 M-192.19921875 60 C-192.19921875 24.919983394510353, -192.19921875 -10.160033210979293, -192.19921875 -60" stroke="#9370DB" stroke-width="1.3" fill="none" stroke-dasharray="0 0" style=""/></g><g class="annotation-group text" transform="translate(0, -36)"/><g class="label-group text" transform="translate(-51.4609375, -36)"><g class="label" style="font-weight: bolder" transform="translate(0,-12)"><foreignObject width="102.921875" height="24"><div xmlns="http://www.w3.org/1999/xhtml" style="display: table-cell; white-space: nowrap; line-height: 1.5; max-width: 142px; text-align: center;"><span class="nodeLabel markdown-node-label" style=""><p>NoteoverTrait</p></span></div></foreignObject></g></g><g class="members-group text" transform="translate(-180.19921875, 12)"><g class="label" style="" transform="translate(0,-12)"><foreignObject width="308.9375" height="24"><div xmlns="http://www.w3.org/1999/xhtml" style="display: table-cell; white-space: nowrap; line-height: 1.5; max-width: 326px; text-align: center;"><span class="nodeLabel markdown-node-label" style=""><p>Shared behavior - Default implementations</p></span></div></foreignObject></g></g><g class="methods-group text" transform="translate(-180.19921875, 60)"/><g class="divider" style=""><path d="M-192.19921875 -12 C-83.31973705671817 -12, 25.559744636563664 -12, 192.19921875 -12 M-192.19921875 -12 C-73.92480490835273 -12, 44.34960893329455 -12, 192.19921875 -12" stroke="#9370DB" stroke-width="1.3" fill="none" stroke-dasharray="0 0" style=""/></g><g class="divider" style=""><path d="M-192.19921875 36 C-76.31067741696357 36, 39.57786391607286 36, 192.19921875 36 M-192.19921875 36 C-60.05355886531379 36, 72.09210101937242 36, 192.19921875 36" stroke="#9370DB" stroke-width="1.3" fill="none" stroke-dasharray="0 0" style=""/></g></g><g class="node default" id="classId-NoteoverTraitObjects-7" transform="translate(1992.9375, 104)"><g class="basic label-container"><path d="M-204.734375 -60 L204.734375 -60 L204.734375 60 L-204.734375 60" stroke="none" stroke-width="0" fill="#ECECFF" style=""/><path d="M-204.734375 -60 C-97.86189213283845 -60, 9.010590734323102 -60, 204.734375 -60 M-204.734375 -60 C-57.805769509935544 -60, 89.12283598012891 -60, 204.734375 -60 M204.734375 -60 C204.734375 -19.49100028856163, 204.734375 21.01799942287674, 204.734375 60 M204.734375 -60 C204.734375 -22.803833195161914, 204.734375 14.392333609676172, 204.734375 60 M204.734375 60 C43.2241331743225 60, -118.286108651355 60, -204.734375 60 M204.734375 60 C54.38807073043989 60, -95.95823353912022 60, -204.734375 60 M-204.734375 60 C-204.734375 31.21846520569916, -204.734375 2.436930411398322, -204.734375 -60 M-204.734375 60 C-204.734375 15.486846001681812, -204.734375 -29.026307996636376, -204.734375 -60" stroke="#9370DB" stroke-width="1.3" fill="none" stroke-dasharray="0 0" style=""/></g><g class="annotation-group text" transform="translate(0, -36)"/><g class="label-group text" transform="translate(-79.984375, -36)"><g class="label" style="font-weight: bolder" transform="translate(0,-12)"><foreignObject width="159.96875" height="24"><div xmlns="http://www.w3.org/1999/xhtml" style="display: table-cell; white-space: nowrap; line-height: 1.5; max-width: 190px; text-align: center;"><span class="nodeLabel markdown-node-label" style=""><p>NoteoverTraitObjects</p></span></div></foreignObject></g></g><g class="members-group text" transform="translate(-192.734375, 12)"><g class="label" style="" transform="translate(0,-12)"><foreignObject width="305.484375" height="24"><div xmlns="http://www.w3.org/1999/xhtml" style="display: table-cell; white-space: nowrap; line-height: 1.5; max-width: 332px; text-align: center;"><span class="nodeLabel markdown-node-label" style=""><p>Dynamic dispatch - Runtime polymorphism</p></span></div></foreignObject></g></g><g class="methods-group text" transform="translate(-192.734375, 60)"/><g class="divider" style=""><path d="M-204.734375 -12 C-111.1963095860258 -12, -17.65824417205161 -12, 204.734375 -12 M-204.734375 -12 C-54.60897477553286 -12, 95.51642544893429 -12, 204.734375 -12" stroke="#9370DB" stroke-width="1.3" fill="none" stroke-dasharray="0 0" style=""/></g><g class="divider" style=""><path d="M-204.734375 36 C-60.92479008829196 36, 82.88479482341609 36, 204.734375 36 M-204.734375 36 C-121.87596364036231 36, -39.01755228072463 36, 204.734375 36" stroke="#9370DB" stroke-width="1.3" fill="none" stroke-dasharray="0 0" style=""/></g></g></g></g></g></svg>