<svg id="my-svg" width="100%" xmlns="http://www.w3.org/2000/svg" xmlns:xlink="http://www.w3.org/1999/xlink" class="classDiagram" style="max-width: 929.641px; background-color: white;" viewBox="0 0 929.640625 788" role="graphics-document document" aria-roledescription="class"><style>#my-svg{font-family:"trebuchet ms",verdana,arial,sans-serif;font-size:16px;fill:#333;}@keyframes edge-animation-frame{from{stroke-dashoffset:0;}}@keyframes dash{to{stroke-dashoffset:0;}}#my-svg .edge-animation-slow{stroke-dasharray:9,5!important;stroke-dashoffset:900;animation:dash 50s linear infinite;stroke-linecap:round;}#my-svg .edge-animation-fast{stroke-dasharray:9,5!important;stroke-dashoffset:900;animation:dash 20s linear infinite;stroke-linecap:round;}#my-svg .error-icon{fill:#552222;}#my-svg .error-text{fill:#552222;stroke:#552222;}#my-svg .edge-thickness-normal{stroke-width:1px;}#my-svg .edge-thickness-thick{stroke-width:3.5px;}#my-svg .edge-pattern-solid{stroke-dasharray:0;}#my-svg .edge-thickness-invisible{stroke-width:0;fill:none;}#my-svg .edge-pattern-dashed{stroke-dasharray:3;}#my-svg .edge-pattern-dotted{stroke-dasharray:2;}#my-svg .marker{fill:#333333;stroke:#333333;}#my-svg .marker.cross{stroke:#333333;}#my-svg svg{font-family:"trebuchet ms",verdana,arial,sans-serif;font-size:16px;}#my-svg p{margin:0;}#my-svg g.classGroup text{fill:#9370DB;stroke:none;font-family:"trebuchet ms",verdana,arial,sans-serif;font-size:10px;}#my-svg g.classGroup text .title{font-weight:bolder;}#my-svg .cluster-label text{fill:#333;}#my-svg .cluster-label span{color:#333;}#my-svg .cluster-label span p{background-color:transparent;}#my-svg .cluster rect{fill:#ffffde;stroke:#aaaa33;stroke-width:1px;}#my-svg .cluster text{fill:#333;}#my-svg .cluster span{color:#333;}#my-svg .nodeLabel,#my-svg .edgeLabel{color:#131300;}#my-svg .edgeLabel .label rect{fill:#ECECFF;}#my-svg .label text{fill:#131300;}#my-svg .labelBkg{background:#ECECFF;}#my-svg .edgeLabel .label span{background:#ECECFF;}#my-svg .classTitle{font-weight:bolder;}#my-svg .node rect,#my-svg .node circle,#my-svg .node ellipse,#my-svg .node polygon,#my-svg .node path{fill:#ECECFF;stroke:#9370DB;stroke-width:1px;}#my-svg .divider{stroke:#9370DB;stroke-width:1;}#my-svg g.clickable{cursor:pointer;}#my-svg g.classGroup rect{fill:#ECECFF;stroke:#9370DB;}#my-svg g.classGroup line{stroke:#9370DB;stroke-width:1;}#my-svg .classLabel .box{stroke:none;stroke-width:0;fill:#ECECFF;opacity:0.5;}#my-svg .classLabel .label{fill:#9370DB;font-size:10px;}#my-svg .relation{stroke:#333333;stroke-width:1;fill:none;}#my-svg .dashed-line{stroke-dasharray:3;}#my-svg .dotted-line{stroke-dasharray:1 2;}#my-svg #compositionStart,#my-svg .composition{fill:#333333!important;stroke:#333333!important;stroke-width:1;}#my-svg #compositionEnd,#my-svg .composition{fill:#333333!important;stroke:#333333!important;stroke-width:1;}#my-svg #dependencyStart,#my-svg .dependency{fill:#333333!important;stroke:#333333!important;stroke-width:1;}#my-svg #dependencyStart,#my-svg .dependency{fill:#333333!important;stroke:#333333!important;stroke-width:1;}#my-svg #extensionStart,#my-svg .extension{fill:transparent!important;stroke:#333333!important;stroke-width:1;}#my-svg #extensionEnd,#my-svg .extension{fill:transparent!important;stroke:#333333!important;stroke-width:1;}#my-svg #aggregationStart,#my-svg .aggregation{fill:transparent!important;stroke:#333333!important;stroke-width:1;}#my-svg #aggregationEnd,#my-svg .aggregation{fill:transparent!important;stroke:#333333!important;stroke-width:1;}#my-svg #lollipopStart,#my-svg .lollipop{fill:#ECECFF!important;stroke:#333333!important;stroke-width:1;}#my-svg #lollipopEnd,#my-svg .lollipop{fill:#ECECFF!important;stroke:#333333!important;stroke-width:1;}#my-svg .edgeTerminals{font-size:11px;line-height:initial;}#my-svg .classTitleText{text-anchor:middle;font-size:18px;fill:#333;}#my-svg .label-icon{display:inline-block;height:1em;overflow:visible;vertical-align:-0.125em;}#my-svg .node .label-icon path{fill:currentColor;stroke:revert;stroke-width:revert;}#my-svg :root{--mermaid-font-family:"trebuchet ms",verdana,arial,sans-serif;}</style><g><defs><marker id="my-svg_class-aggregationStart" class="marker aggregation class" refX="18" refY="7" markerWidth="190" markerHeight="240" orient="auto"><path d="M 18,7 L9,13 L1,7 L9,1 Z"/></marker></defs><defs><marker id="my-svg_class-aggregationEnd" class="marker aggregation class" refX="1" refY="7" markerWidth="20" markerHeight="28" orient="auto"><path d="M 18,7 L9,13 L1,7 L9,1 Z"/></marker></defs><defs><marker id="my-svg_class-extensionStart" class="marker extension class" refX="18" refY="7" markerWidth="190" markerHeight="240" orient="auto"><path d="M 1,7 L18,13 V 1 Z"/></marker></defs><defs><marker id="my-svg_class-extensionEnd" class="marker extension class" refX="1" refY="7" markerWidth="20" markerHeight="28" orient="auto"><path d="M 1,1 V 13 L18,7 Z"/></marker></defs><defs><marker id="my-svg_class-compositionStart" class="marker composition class" refX="18" refY="7" markerWidth="190" markerHeight="240" orient="auto"><path d="M 18,7 L9,13 L1,7 L9,1 Z"/></marker></defs><defs><marker id="my-svg_class-compositionEnd" class="marker composition class" refX="1" refY="7" markerWidth="20" markerHeight="28" orient="auto"><path d="M 18,7 L9,13 L1,7 L9,1 Z"/></marker></defs><defs><marker id="my-svg_class-dependencyStart" class="marker dependency class" refX="6" refY="7" markerWidth="190" markerHeight="240" orient="auto"><path d="M 5,7 L9,13 L1,7 L9,1 Z"/></marker></defs><defs><marker id="my-svg_class-dependencyEnd" class="marker dependency class" refX="13" refY="7" markerWidth="20" markerHeight="28" orient="auto"><path d="M 18,7 L9,13 L14,7 L9,1 Z"/></marker></defs><defs><marker id="my-svg_class-lollipopStart" class="marker lollipop class" refX="13" refY="7" markerWidth="190" markerHeight="240" orient="auto"><circle fill="transparent" cx="7" cy="7" r="6"/></marker></defs><defs><marker id="my-svg_class-lollipopEnd" class="marker lollipop class" refX="1" refY="7" markerWidth="190" markerHeight="240" orient="auto"><circle fill="transparent" cx="7" cy="7" r="6"/></marker></defs><g class="root"><g class="clusters"/><g class="edgePaths"><path d="M345.875,490L345.875,496.167C345.875,502.333,345.875,514.667,345.875,526C345.875,537.333,345.875,547.667,345.875,552.833L345.875,558" id="id_CoercionTypes_Deref_1" class="edge-thickness-normal edge-pattern-solid relation" style=";;;" data-edge="true" data-et="edge" data-id="id_CoercionTypes_Deref_1" data-points="W3sieCI6MzQ1Ljg3NSwieSI6NDkwfSx7IngiOjM0NS44NzUsInkiOjUyN30seyJ4IjozNDUuODc1LCJ5Ijo1NjR9XQ==" marker-end="url(#my-svg_class-dependencyEnd)"/><path d="M345.875,200L345.875,206.167C345.875,212.333,345.875,224.667,345.875,236C345.875,247.333,345.875,257.667,345.875,262.833L345.875,268" id="id_CoercionSites_CoercionTypes_2" class="edge-thickness-normal edge-pattern-solid relation" style=";;;" data-edge="true" data-et="edge" data-id="id_CoercionSites_CoercionTypes_2" data-points="W3sieCI6MzQ1Ljg3NSwieSI6MjAwfSx7IngiOjM0NS44NzUsInkiOjIzN30seyJ4IjozNDUuODc1LCJ5IjoyNzR9XQ==" marker-end="url(#my-svg_class-dependencyEnd)"/></g><g class="edgeLabels"><g class="edgeLabel" transform="translate(345.875, 527)"><g class="label" data-id="id_CoercionTypes_Deref_1" transform="translate(-56.484375, -12)"><foreignObject width="112.96875" height="24"><div xmlns="http://www.w3.org/1999/xhtml" class="labelBkg" style="display: table-cell; white-space: nowrap; line-height: 1.5; max-width: 200px; text-align: center;"><span class="edgeLabel"><p>Uses Deref trait</p></span></div></foreignObject></g></g><g class="edgeLabel" transform="translate(345.875, 237)"><g class="label" data-id="id_CoercionSites_CoercionTypes_2" transform="translate(-87.9375, -12)"><foreignObject width="175.875" height="24"><div xmlns="http://www.w3.org/1999/xhtml" class="labelBkg" style="display: table-cell; white-space: nowrap; line-height: 1.5; max-width: 200px; text-align: center;"><span class="edgeLabel"><p>Where coercion happens</p></span></div></foreignObject></g></g></g><g class="nodes"><g class="node default" id="classId-titleChapter19-0" transform="translate(97.765625, 104)"><g class="basic label-container"><path d="M-89.765625 -60 L89.765625 -60 L89.765625 60 L-89.765625 60" stroke="none" stroke-width="0" fill="#ECECFF" style=""/><path d="M-89.765625 -60 C-40.39991470826981 -60, 8.965795583460377 -60, 89.765625 -60 M-89.765625 -60 C-48.374030547062894 -60, -6.982436094125788 -60, 89.765625 -60 M89.765625 -60 C89.765625 -12.201512897118292, 89.765625 35.596974205763416, 89.765625 60 M89.765625 -60 C89.765625 -18.770913659052773, 89.765625 22.458172681894453, 89.765625 60 M89.765625 60 C22.50972049407163 60, -44.74618401185674 60, -89.765625 60 M89.765625 60 C35.73837055774802 60, -18.28888388450396 60, -89.765625 60 M-89.765625 60 C-89.765625 26.820031431046196, -89.765625 -6.3599371379076075, -89.765625 -60 M-89.765625 60 C-89.765625 31.849992766084554, -89.765625 3.6999855321691086, -89.765625 -60" stroke="#9370DB" stroke-width="1.3" fill="none" stroke-dasharray="0 0" style=""/></g><g class="annotation-group text" transform="translate(0, -36)"/><g class="label-group text" transform="translate(-54.8125, -36)"><g class="label" style="font-weight: bolder" transform="translate(0,-12)"><foreignObject width="109.625" height="24"><div xmlns="http://www.w3.org/1999/xhtml" style="display: table-cell; white-space: nowrap; line-height: 1.5; max-width: 142px; text-align: center;"><span class="nodeLabel markdown-node-label" style=""><p>titleChapter19</p></span></div></foreignObject></g></g><g class="members-group text" transform="translate(-77.765625, 12)"><g class="label" style="" transform="translate(0,-12)"><foreignObject width="100.71875" height="24"><div xmlns="http://www.w3.org/1999/xhtml" style="display: table-cell; white-space: nowrap; line-height: 1.5; max-width: 144px; text-align: center;"><span class="nodeLabel markdown-node-label" style=""><p>Type Coercion</p></span></div></foreignObject></g></g><g class="methods-group text" transform="translate(-77.765625, 60)"/><g class="divider" style=""><path d="M-89.765625 -12 C-42.33091218556553 -12, 5.103800628868939 -12, 89.765625 -12 M-89.765625 -12 C-18.600687667202322 -12, 52.564249665595355 -12, 89.765625 -12" stroke="#9370DB" stroke-width="1.3" fill="none" stroke-dasharray="0 0" style=""/></g><g class="divider" style=""><path d="M-89.765625 36 C-22.762758444190595 36, 44.24010811161881 36, 89.765625 36 M-89.765625 36 C-36.140138165242085 36, 17.48534866951583 36, 89.765625 36" stroke="#9370DB" stroke-width="1.3" fill="none" stroke-dasharray="0 0" style=""/></g></g><g class="node default" id="classId-CoercionTypes-1" transform="translate(345.875, 382)"><g class="basic label-container"><path d="M-98.875 -108 L98.875 -108 L98.875 108 L-98.875 108" stroke="none" stroke-width="0" fill="#ECECFF" style=""/><path d="M-98.875 -108 C-26.75703745573945 -108, 45.3609250885211 -108, 98.875 -108 M-98.875 -108 C-45.2015741972743 -108, 8.471851605451405 -108, 98.875 -108 M98.875 -108 C98.875 -61.265370720195826, 98.875 -14.530741440391651, 98.875 108 M98.875 -108 C98.875 -33.37369449011891, 98.875 41.252611019762185, 98.875 108 M98.875 108 C42.48153270749711 108, -13.911934585005781 108, -98.875 108 M98.875 108 C24.004322182137216 108, -50.86635563572557 108, -98.875 108 M-98.875 108 C-98.875 22.261168513031464, -98.875 -63.47766297393707, -98.875 -108 M-98.875 108 C-98.875 42.30379347989039, -98.875 -23.392413040219225, -98.875 -108" stroke="#9370DB" stroke-width="1.3" fill="none" stroke-dasharray="0 0" style=""/></g><g class="annotation-group text" transform="translate(0, -84)"/><g class="label-group text" transform="translate(-54.4375, -84)"><g class="label" style="font-weight: bolder" transform="translate(0,-12)"><foreignObject width="108.875" height="24"><div xmlns="http://www.w3.org/1999/xhtml" style="display: table-cell; white-space: nowrap; line-height: 1.5; max-width: 147px; text-align: center;"><span class="nodeLabel markdown-node-label" style=""><p>CoercionTypes</p></span></div></foreignObject></g></g><g class="members-group text" transform="translate(-86.875, -36)"><g class="label" style="" transform="translate(0,-12)"><foreignObject width="66.546875" height="24"><div xmlns="http://www.w3.org/1999/xhtml" style="display: table-cell; white-space: nowrap; line-height: 1.5; max-width: 117px; text-align: center;"><span class="nodeLabel markdown-node-label" style=""><p>&amp;T to &amp;U</p></span></div></foreignObject></g><g class="label" style="" transform="translate(0,12)"><foreignObject width="98.359375" height="24"><div xmlns="http://www.w3.org/1999/xhtml" style="display: table-cell; white-space: nowrap; line-height: 1.5; max-width: 143px; text-align: center;"><span class="nodeLabel markdown-node-label" style=""><p>&amp;mut T to &amp;T</p></span></div></foreignObject></g><g class="label" style="" transform="translate(0,36)"><foreignObject width="96.71875" height="24"><div xmlns="http://www.w3.org/1999/xhtml" style="display: table-cell; white-space: nowrap; line-height: 1.5; max-width: 139px; text-align: center;"><span class="nodeLabel markdown-node-label" style=""><p>T to dyn Trait</p></span></div></foreignObject></g><g class="label" style="" transform="translate(0,60)"><foreignObject width="119.3125" height="24"><div xmlns="http://www.w3.org/1999/xhtml" style="display: table-cell; white-space: nowrap; line-height: 1.5; max-width: 164px; text-align: center;"><span class="nodeLabel markdown-node-label" style=""><p>&amp;T to &amp;dyn Trait</p></span></div></foreignObject></g><g class="label" style="" transform="translate(0,84)"><foreignObject width="105.484375" height="24"><div xmlns="http://www.w3.org/1999/xhtml" style="display: table-cell; white-space: nowrap; line-height: 1.5; max-width: 146px; text-align: center;"><span class="nodeLabel markdown-node-label" style=""><p>Deref coercion</p></span></div></foreignObject></g></g><g class="methods-group text" transform="translate(-86.875, 108)"/><g class="divider" style=""><path d="M-98.875 -60 C-27.823147298669255 -60, 43.22870540266149 -60, 98.875 -60 M-98.875 -60 C-37.49213018945828 -60, 23.89073962108344 -60, 98.875 -60" stroke="#9370DB" stroke-width="1.3" fill="none" stroke-dasharray="0 0" style=""/></g><g class="divider" style=""><path d="M-98.875 84 C-28.87331069601231 84, 41.12837860797538 84, 98.875 84 M-98.875 84 C-51.24664299456292 84, -3.6182859891258374 84, 98.875 84" stroke="#9370DB" stroke-width="1.3" fill="none" stroke-dasharray="0 0" style=""/></g></g><g class="node default" id="classId-Deref-2" transform="translate(345.875, 672)"><g class="basic label-container"><path d="M-80.55078125 -108 L80.55078125 -108 L80.55078125 108 L-80.55078125 108" stroke="none" stroke-width="0" fill="#ECECFF" style=""/><path d="M-80.55078125 -108 C-47.70129140030629 -108, -14.851801550612578 -108, 80.55078125 -108 M-80.55078125 -108 C-32.71136221766683 -108, 15.128056814666337 -108, 80.55078125 -108 M80.55078125 -108 C80.55078125 -43.831961304274884, 80.55078125 20.33607739145023, 80.55078125 108 M80.55078125 -108 C80.55078125 -32.59126411921078, 80.55078125 42.817471761578446, 80.55078125 108 M80.55078125 108 C47.22154506934659 108, 13.89230888869318 108, -80.55078125 108 M80.55078125 108 C41.958854876384315 108, 3.36692850276863 108, -80.55078125 108 M-80.55078125 108 C-80.55078125 35.1032696350635, -80.55078125 -37.793460729873004, -80.55078125 -108 M-80.55078125 108 C-80.55078125 27.752028037062644, -80.55078125 -52.49594392587471, -80.55078125 -108" stroke="#9370DB" stroke-width="1.3" fill="none" stroke-dasharray="0 0" style=""/></g><g class="annotation-group text" transform="translate(0, -84)"/><g class="label-group text" transform="translate(-20.7109375, -84)"><g class="label" style="font-weight: bolder" transform="translate(0,-12)"><foreignObject width="41.421875" height="24"><div xmlns="http://www.w3.org/1999/xhtml" style="display: table-cell; white-space: nowrap; line-height: 1.5; max-width: 88px; text-align: center;"><span class="nodeLabel markdown-node-label" style=""><p>Deref</p></span></div></foreignObject></g></g><g class="members-group text" transform="translate(-68.55078125, -36)"><g class="label" style="" transform="translate(0,-12)"><foreignObject width="84.484375" height="24"><div xmlns="http://www.w3.org/1999/xhtml" style="display: table-cell; white-space: nowrap; line-height: 1.5; max-width: 130px; text-align: center;"><span class="nodeLabel markdown-node-label" style=""><p>+Deref trait</p></span></div></foreignObject></g><g class="label" style="" transform="translate(0,12)"><foreignObject width="110.921875" height="24"><div xmlns="http://www.w3.org/1999/xhtml" style="display: table-cell; white-space: nowrap; line-height: 1.5; max-width: 157px; text-align: center;"><span class="nodeLabel markdown-node-label" style=""><p>+DerefMut trait</p></span></div></foreignObject></g><g class="label" style="" transform="translate(0,36)"><foreignObject width="105.28125" height="24"><div xmlns="http://www.w3.org/1999/xhtml" style="display: table-cell; white-space: nowrap; line-height: 1.5; max-width: 198px; text-align: center;"><span class="nodeLabel markdown-node-label" style=""><p>+Box&lt;T&gt; to &amp;T</p></span></div></foreignObject></g><g class="label" style="" transform="translate(0,60)"><foreignObject width="104.890625" height="24"><div xmlns="http://www.w3.org/1999/xhtml" style="display: table-cell; white-space: nowrap; line-height: 1.5; max-width: 152px; text-align: center;"><span class="nodeLabel markdown-node-label" style=""><p>+String to &amp;str</p></span></div></foreignObject></g><g class="label" style="" transform="translate(0,84)"><foreignObject width="116.390625" height="24"><div xmlns="http://www.w3.org/1999/xhtml" style="display: table-cell; white-space: nowrap; line-height: 1.5; max-width: 206px; text-align: center;"><span class="nodeLabel markdown-node-label" style=""><p>+Vec&lt;T&gt; to &amp;[T]</p></span></div></foreignObject></g></g><g class="methods-group text" transform="translate(-68.55078125, 108)"/><g class="divider" style=""><path d="M-80.55078125 -60 C-33.090260925224364 -60, 14.370259399551273 -60, 80.55078125 -60 M-80.55078125 -60 C-38.44366661902512 -60, 3.663448011949754 -60, 80.55078125 -60" stroke="#9370DB" stroke-width="1.3" fill="none" stroke-dasharray="0 0" style=""/></g><g class="divider" style=""><path d="M-80.55078125 84 C-46.351850632994875 84, -12.15292001598975 84, 80.55078125 84 M-80.55078125 84 C-43.574332835614285 84, -6.597884421228571 84, 80.55078125 84" stroke="#9370DB" stroke-width="1.3" fill="none" stroke-dasharray="0 0" style=""/></g></g><g class="node default" id="classId-CoercionSites-3" transform="translate(345.875, 104)"><g class="basic label-container"><path d="M-108.34375 -96 L108.34375 -96 L108.34375 96 L-108.34375 96" stroke="none" stroke-width="0" fill="#ECECFF" style=""/><path d="M-108.34375 -96 C-43.930184240648586 -96, 20.483381518702828 -96, 108.34375 -96 M-108.34375 -96 C-42.810789556269455 -96, 22.72217088746109 -96, 108.34375 -96 M108.34375 -96 C108.34375 -42.01272489369603, 108.34375 11.974550212607937, 108.34375 96 M108.34375 -96 C108.34375 -39.811905909784116, 108.34375 16.376188180431768, 108.34375 96 M108.34375 96 C53.18691675842986 96, -1.9699164831402811 96, -108.34375 96 M108.34375 96 C35.51150308368034 96, -37.32074383263932 96, -108.34375 96 M-108.34375 96 C-108.34375 31.8777946730186, -108.34375 -32.2444106539628, -108.34375 -96 M-108.34375 96 C-108.34375 47.25423815741634, -108.34375 -1.4915236851673228, -108.34375 -96" stroke="#9370DB" stroke-width="1.3" fill="none" stroke-dasharray="0 0" style=""/></g><g class="annotation-group text" transform="translate(0, -72)"/><g class="label-group text" transform="translate(-50.859375, -72)"><g class="label" style="font-weight: bolder" transform="translate(0,-12)"><foreignObject width="101.71875" height="24"><div xmlns="http://www.w3.org/1999/xhtml" style="display: table-cell; white-space: nowrap; line-height: 1.5; max-width: 140px; text-align: center;"><span class="nodeLabel markdown-node-label" style=""><p>CoercionSites</p></span></div></foreignObject></g></g><g class="members-group text" transform="translate(-96.34375, -24)"><g class="label" style="" transform="translate(0,-12)"><foreignObject width="141.828125" height="24"><div xmlns="http://www.w3.org/1999/xhtml" style="display: table-cell; white-space: nowrap; line-height: 1.5; max-width: 177px; text-align: center;"><span class="nodeLabel markdown-node-label" style=""><p>Function arguments</p></span></div></foreignObject></g><g class="label" style="" transform="translate(0,12)"><foreignObject width="122.90625" height="24"><div xmlns="http://www.w3.org/1999/xhtml" style="display: table-cell; white-space: nowrap; line-height: 1.5; max-width: 162px; text-align: center;"><span class="nodeLabel markdown-node-label" style=""><p>Method receivers</p></span></div></foreignObject></g><g class="label" style="" transform="translate(0,36)"><foreignObject width="107.859375" height="24"><div xmlns="http://www.w3.org/1999/xhtml" style="display: table-cell; white-space: nowrap; line-height: 1.5; max-width: 143px; text-align: center;"><span class="nodeLabel markdown-node-label" style=""><p>Let statements</p></span></div></foreignObject></g><g class="label" style="" transform="translate(0,60)"><foreignObject width="97.171875" height="24"><div xmlns="http://www.w3.org/1999/xhtml" style="display: table-cell; white-space: nowrap; line-height: 1.5; max-width: 138px; text-align: center;"><span class="nodeLabel markdown-node-label" style=""><p>Return values</p></span></div></foreignObject></g></g><g class="methods-group text" transform="translate(-96.34375, 96)"/><g class="divider" style=""><path d="M-108.34375 -48 C-40.434981349988604 -48, 27.473787300022792 -48, 108.34375 -48 M-108.34375 -48 C-64.49840636170234 -48, -20.653062723404673 -48, 108.34375 -48" stroke="#9370DB" stroke-width="1.3" fill="none" stroke-dasharray="0 0" style=""/></g><g class="divider" style=""><path d="M-108.34375 72 C-21.728286359193206 72, 64.88717728161359 72, 108.34375 72 M-108.34375 72 C-35.16298744771254 72, 38.01777510457492 72, 108.34375 72" stroke="#9370DB" stroke-width="1.3" fill="none" stroke-dasharray="0 0" style=""/></g></g><g class="node default" id="classId-NoteoverDeref-4" transform="translate(712.9296875, 104)"><g class="basic label-container"><path d="M-208.7109375 -60 L208.7109375 -60 L208.7109375 60 L-208.7109375 60" stroke="none" stroke-width="0" fill="#ECECFF" style=""/><path d="M-208.7109375 -60 C-106.91302082301412 -60, -5.115104146028244 -60, 208.7109375 -60 M-208.7109375 -60 C-79.92081260256532 -60, 48.86931229486936 -60, 208.7109375 -60 M208.7109375 -60 C208.7109375 -25.781783277196027, 208.7109375 8.436433445607946, 208.7109375 60 M208.7109375 -60 C208.7109375 -29.657603728448663, 208.7109375 0.6847925431026738, 208.7109375 60 M208.7109375 60 C114.00403287247248 60, 19.297128244944957 60, -208.7109375 60 M208.7109375 60 C108.37820034777432 60, 8.045463195548649 60, -208.7109375 60 M-208.7109375 60 C-208.7109375 22.47138222135763, -208.7109375 -15.057235557284741, -208.7109375 -60 M-208.7109375 60 C-208.7109375 35.31725196676615, -208.7109375 10.6345039335323, -208.7109375 -60" stroke="#9370DB" stroke-width="1.3" fill="none" stroke-dasharray="0 0" style=""/></g><g class="annotation-group text" transform="translate(0, -36)"/><g class="label-group text" transform="translate(-55.109375, -36)"><g class="label" style="font-weight: bolder" transform="translate(0,-12)"><foreignObject width="110.21875" height="24"><div xmlns="http://www.w3.org/1999/xhtml" style="display: table-cell; white-space: nowrap; line-height: 1.5; max-width: 149px; text-align: center;"><span class="nodeLabel markdown-node-label" style=""><p>NoteoverDeref</p></span></div></foreignObject></g></g><g class="members-group text" transform="translate(-196.7109375, 12)"><g class="label" style="" transform="translate(0,-12)"><foreignObject width="338.3125" height="24"><div xmlns="http://www.w3.org/1999/xhtml" style="display: table-cell; white-space: nowrap; line-height: 1.5; max-width: 349px; text-align: center;"><span class="nodeLabel markdown-node-label" style=""><p>Automatic dereference\nSmart pointer support</p></span></div></foreignObject></g></g><g class="methods-group text" transform="translate(-196.7109375, 60)"/><g class="divider" style=""><path d="M-208.7109375 -12 C-113.59246967889926 -12, -18.474001857798527 -12, 208.7109375 -12 M-208.7109375 -12 C-72.83533062922481 -12, 63.04027624155037 -12, 208.7109375 -12" stroke="#9370DB" stroke-width="1.3" fill="none" stroke-dasharray="0 0" style=""/></g><g class="divider" style=""><path d="M-208.7109375 36 C-101.27465377566351 36, 6.1616299486729815 36, 208.7109375 36 M-208.7109375 36 C-43.217875645101344 36, 122.27518620979731 36, 208.7109375 36" stroke="#9370DB" stroke-width="1.3" fill="none" stroke-dasharray="0 0" style=""/></g></g></g></g></g></svg>