<svg id="my-svg" width="100%" xmlns="http://www.w3.org/2000/svg" xmlns:xlink="http://www.w3.org/1999/xlink" class="classDiagram" style="max-width: 1525.2px; background-color: white;" viewBox="0 0 1525.203125 474" role="graphics-document document" aria-roledescription="class"><style>#my-svg{font-family:"trebuchet ms",verdana,arial,sans-serif;font-size:16px;fill:#333;}@keyframes edge-animation-frame{from{stroke-dashoffset:0;}}@keyframes dash{to{stroke-dashoffset:0;}}#my-svg .edge-animation-slow{stroke-dasharray:9,5!important;stroke-dashoffset:900;animation:dash 50s linear infinite;stroke-linecap:round;}#my-svg .edge-animation-fast{stroke-dasharray:9,5!important;stroke-dashoffset:900;animation:dash 20s linear infinite;stroke-linecap:round;}#my-svg .error-icon{fill:#552222;}#my-svg .error-text{fill:#552222;stroke:#552222;}#my-svg .edge-thickness-normal{stroke-width:1px;}#my-svg .edge-thickness-thick{stroke-width:3.5px;}#my-svg .edge-pattern-solid{stroke-dasharray:0;}#my-svg .edge-thickness-invisible{stroke-width:0;fill:none;}#my-svg .edge-pattern-dashed{stroke-dasharray:3;}#my-svg .edge-pattern-dotted{stroke-dasharray:2;}#my-svg .marker{fill:#333333;stroke:#333333;}#my-svg .marker.cross{stroke:#333333;}#my-svg svg{font-family:"trebuchet ms",verdana,arial,sans-serif;font-size:16px;}#my-svg p{margin:0;}#my-svg g.classGroup text{fill:#9370DB;stroke:none;font-family:"trebuchet ms",verdana,arial,sans-serif;font-size:10px;}#my-svg g.classGroup text .title{font-weight:bolder;}#my-svg .cluster-label text{fill:#333;}#my-svg .cluster-label span{color:#333;}#my-svg .cluster-label span p{background-color:transparent;}#my-svg .cluster rect{fill:#ffffde;stroke:#aaaa33;stroke-width:1px;}#my-svg .cluster text{fill:#333;}#my-svg .cluster span{color:#333;}#my-svg .nodeLabel,#my-svg .edgeLabel{color:#131300;}#my-svg .edgeLabel .label rect{fill:#ECECFF;}#my-svg .label text{fill:#131300;}#my-svg .labelBkg{background:#ECECFF;}#my-svg .edgeLabel .label span{background:#ECECFF;}#my-svg .classTitle{font-weight:bolder;}#my-svg .node rect,#my-svg .node circle,#my-svg .node ellipse,#my-svg .node polygon,#my-svg .node path{fill:#ECECFF;stroke:#9370DB;stroke-width:1px;}#my-svg .divider{stroke:#9370DB;stroke-width:1;}#my-svg g.clickable{cursor:pointer;}#my-svg g.classGroup rect{fill:#ECECFF;stroke:#9370DB;}#my-svg g.classGroup line{stroke:#9370DB;stroke-width:1;}#my-svg .classLabel .box{stroke:none;stroke-width:0;fill:#ECECFF;opacity:0.5;}#my-svg .classLabel .label{fill:#9370DB;font-size:10px;}#my-svg .relation{stroke:#333333;stroke-width:1;fill:none;}#my-svg .dashed-line{stroke-dasharray:3;}#my-svg .dotted-line{stroke-dasharray:1 2;}#my-svg #compositionStart,#my-svg .composition{fill:#333333!important;stroke:#333333!important;stroke-width:1;}#my-svg #compositionEnd,#my-svg .composition{fill:#333333!important;stroke:#333333!important;stroke-width:1;}#my-svg #dependencyStart,#my-svg .dependency{fill:#333333!important;stroke:#333333!important;stroke-width:1;}#my-svg #dependencyStart,#my-svg .dependency{fill:#333333!important;stroke:#333333!important;stroke-width:1;}#my-svg #extensionStart,#my-svg .extension{fill:transparent!important;stroke:#333333!important;stroke-width:1;}#my-svg #extensionEnd,#my-svg .extension{fill:transparent!important;stroke:#333333!important;stroke-width:1;}#my-svg #aggregationStart,#my-svg .aggregation{fill:transparent!important;stroke:#333333!important;stroke-width:1;}#my-svg #aggregationEnd,#my-svg .aggregation{fill:transparent!important;stroke:#333333!important;stroke-width:1;}#my-svg #lollipopStart,#my-svg .lollipop{fill:#ECECFF!important;stroke:#333333!important;stroke-width:1;}#my-svg #lollipopEnd,#my-svg .lollipop{fill:#ECECFF!important;stroke:#333333!important;stroke-width:1;}#my-svg .edgeTerminals{font-size:11px;line-height:initial;}#my-svg .classTitleText{text-anchor:middle;font-size:18px;fill:#333;}#my-svg .label-icon{display:inline-block;height:1em;overflow:visible;vertical-align:-0.125em;}#my-svg .node .label-icon path{fill:currentColor;stroke:revert;stroke-width:revert;}#my-svg :root{--mermaid-font-family:"trebuchet ms",verdana,arial,sans-serif;}</style><g><defs><marker id="my-svg_class-aggregationStart" class="marker aggregation class" refX="18" refY="7" markerWidth="190" markerHeight="240" orient="auto"><path d="M 18,7 L9,13 L1,7 L9,1 Z"/></marker></defs><defs><marker id="my-svg_class-aggregationEnd" class="marker aggregation class" refX="1" refY="7" markerWidth="20" markerHeight="28" orient="auto"><path d="M 18,7 L9,13 L1,7 L9,1 Z"/></marker></defs><defs><marker id="my-svg_class-extensionStart" class="marker extension class" refX="18" refY="7" markerWidth="190" markerHeight="240" orient="auto"><path d="M 1,7 L18,13 V 1 Z"/></marker></defs><defs><marker id="my-svg_class-extensionEnd" class="marker extension class" refX="1" refY="7" markerWidth="20" markerHeight="28" orient="auto"><path d="M 1,1 V 13 L18,7 Z"/></marker></defs><defs><marker id="my-svg_class-compositionStart" class="marker composition class" refX="18" refY="7" markerWidth="190" markerHeight="240" orient="auto"><path d="M 18,7 L9,13 L1,7 L9,1 Z"/></marker></defs><defs><marker id="my-svg_class-compositionEnd" class="marker composition class" refX="1" refY="7" markerWidth="20" markerHeight="28" orient="auto"><path d="M 18,7 L9,13 L1,7 L9,1 Z"/></marker></defs><defs><marker id="my-svg_class-dependencyStart" class="marker dependency class" refX="6" refY="7" markerWidth="190" markerHeight="240" orient="auto"><path d="M 5,7 L9,13 L1,7 L9,1 Z"/></marker></defs><defs><marker id="my-svg_class-dependencyEnd" class="marker dependency class" refX="13" refY="7" markerWidth="20" markerHeight="28" orient="auto"><path d="M 18,7 L9,13 L14,7 L9,1 Z"/></marker></defs><defs><marker id="my-svg_class-lollipopStart" class="marker lollipop class" refX="13" refY="7" markerWidth="190" markerHeight="240" orient="auto"><circle fill="transparent" cx="7" cy="7" r="6"/></marker></defs><defs><marker id="my-svg_class-lollipopEnd" class="marker lollipop class" refX="1" refY="7" markerWidth="190" markerHeight="240" orient="auto"><circle fill="transparent" cx="7" cy="7" r="6"/></marker></defs><g class="root"><g class="clusters"/><g class="edgePaths"><path d="M359.527,224L359.527,230.167C359.527,236.333,359.527,248.667,364.03,260.232C368.533,271.797,377.54,282.595,382.043,287.994L386.546,293.392" id="id_Anyhow_AppError_1" class="edge-thickness-normal edge-pattern-solid relation" style=";;;" data-edge="true" data-et="edge" data-id="id_Anyhow_AppError_1" data-points="W3sieCI6MzU5LjUyNzM0Mzc1LCJ5IjoyMjR9LHsieCI6MzU5LjUyNzM0Mzc1LCJ5IjoyNjF9LHsieCI6MzkwLjM4ODk0NjI4MDk5MTcsInkiOjI5OH1d" marker-end="url(#my-svg_class-dependencyEnd)"/><path d="M561.379,212L561.379,220.167C561.379,228.333,561.379,244.667,556.876,258.232C552.373,271.797,543.367,282.595,538.864,287.994L534.36,293.392" id="id_Thiserror_AppError_2" class="edge-thickness-normal edge-pattern-solid relation" style=";;;" data-edge="true" data-et="edge" data-id="id_Thiserror_AppError_2" data-points="W3sieCI6NTYxLjM3ODkwNjI1LCJ5IjoyMTJ9LHsieCI6NTYxLjM3ODkwNjI1LCJ5IjoyNjF9LHsieCI6NTMwLjUxNzMwMzcxOTAwODMsInkiOjI5OH1d" marker-end="url(#my-svg_class-dependencyEnd)"/></g><g class="edgeLabels"><g class="edgeLabel" transform="translate(359.52734375, 261)"><g class="label" data-id="id_Anyhow_AppError_1" transform="translate(-74.4453125, -12)"><foreignObject width="148.890625" height="24"><div xmlns="http://www.w3.org/1999/xhtml" class="labelBkg" style="display: table-cell; white-space: nowrap; line-height: 1.5; max-width: 200px; text-align: center;"><span class="edgeLabel"><p>For application layer</p></span></div></foreignObject></g></g><g class="edgeLabel" transform="translate(561.37890625, 261)"><g class="label" data-id="id_Thiserror_AppError_2" transform="translate(-61.109375, -12)"><foreignObject width="122.21875" height="24"><div xmlns="http://www.w3.org/1999/xhtml" class="labelBkg" style="display: table-cell; white-space: nowrap; line-height: 1.5; max-width: 200px; text-align: center;"><span class="edgeLabel"><p>For library errors</p></span></div></foreignObject></g></g></g><g class="nodes"><g class="node default" id="classId-titleChapter17-0" transform="translate(125.2890625, 116)"><g class="basic label-container"><path d="M-117.2890625 -60 L117.2890625 -60 L117.2890625 60 L-117.2890625 60" stroke="none" stroke-width="0" fill="#ECECFF" style=""/><path d="M-117.2890625 -60 C-37.276446417769094 -60, 42.73616966446181 -60, 117.2890625 -60 M-117.2890625 -60 C-70.10593096156703 -60, -22.92279942313405 -60, 117.2890625 -60 M117.2890625 -60 C117.2890625 -35.999491432507426, 117.2890625 -11.998982865014852, 117.2890625 60 M117.2890625 -60 C117.2890625 -21.615922889094733, 117.2890625 16.768154221810533, 117.2890625 60 M117.2890625 60 C35.13098990944286 60, -47.02708268111428 60, -117.2890625 60 M117.2890625 60 C38.189773782705444 60, -40.90951493458911 60, -117.2890625 60 M-117.2890625 60 C-117.2890625 20.3091345584226, -117.2890625 -19.381730883154802, -117.2890625 -60 M-117.2890625 60 C-117.2890625 15.552567128715033, -117.2890625 -28.894865742569934, -117.2890625 -60" stroke="#9370DB" stroke-width="1.3" fill="none" stroke-dasharray="0 0" style=""/></g><g class="annotation-group text" transform="translate(0, -36)"/><g class="label-group text" transform="translate(-54.8125, -36)"><g class="label" style="font-weight: bolder" transform="translate(0,-12)"><foreignObject width="109.625" height="24"><div xmlns="http://www.w3.org/1999/xhtml" style="display: table-cell; white-space: nowrap; line-height: 1.5; max-width: 142px; text-align: center;"><span class="nodeLabel markdown-node-label" style=""><p>titleChapter17</p></span></div></foreignObject></g></g><g class="members-group text" transform="translate(-105.2890625, 12)"><g class="label" style="" transform="translate(0,-12)"><foreignObject width="155.765625" height="24"><div xmlns="http://www.w3.org/1999/xhtml" style="display: table-cell; white-space: nowrap; line-height: 1.5; max-width: 196px; text-align: center;"><span class="nodeLabel markdown-node-label" style=""><p>Anyhow and Thiserror</p></span></div></foreignObject></g></g><g class="methods-group text" transform="translate(-105.2890625, 60)"/><g class="divider" style=""><path d="M-117.2890625 -12 C-41.36789010076318 -12, 34.55328229847365 -12, 117.2890625 -12 M-117.2890625 -12 C-45.416627454428706 -12, 26.455807591142587 -12, 117.2890625 -12" stroke="#9370DB" stroke-width="1.3" fill="none" stroke-dasharray="0 0" style=""/></g><g class="divider" style=""><path d="M-117.2890625 36 C-64.1541272385542 36, -11.019191977108392 36, 117.2890625 36 M-117.2890625 36 C-25.42101735554128 36, 66.44702778891744 36, 117.2890625 36" stroke="#9370DB" stroke-width="1.3" fill="none" stroke-dasharray="0 0" style=""/></g></g><g class="node default" id="classId-Anyhow-1" transform="translate(359.52734375, 116)"><g class="basic label-container"><path d="M-66.94921875 -108 L66.94921875 -108 L66.94921875 108 L-66.94921875 108" stroke="none" stroke-width="0" fill="#ECECFF" style=""/><path d="M-66.94921875 -108 C-35.81218439410237 -108, -4.675150038204734 -108, 66.94921875 -108 M-66.94921875 -108 C-24.31902640857436 -108, 18.31116593285128 -108, 66.94921875 -108 M66.94921875 -108 C66.94921875 -44.91334957755925, 66.94921875 18.173300844881496, 66.94921875 108 M66.94921875 -108 C66.94921875 -32.160462999657554, 66.94921875 43.67907400068489, 66.94921875 108 M66.94921875 108 C29.13757143837418 108, -8.674075873251638 108, -66.94921875 108 M66.94921875 108 C31.96519913744622 108, -3.0188204751075602 108, -66.94921875 108 M-66.94921875 108 C-66.94921875 33.319343315849565, -66.94921875 -41.36131336830087, -66.94921875 -108 M-66.94921875 108 C-66.94921875 63.59585181830736, -66.94921875 19.19170363661472, -66.94921875 -108" stroke="#9370DB" stroke-width="1.3" fill="none" stroke-dasharray="0 0" style=""/></g><g class="annotation-group text" transform="translate(-27.203125, -84)"><g class="label" style="" transform="translate(0,-12)"><foreignObject width="54.40625" height="24"><div xmlns="http://www.w3.org/1999/xhtml" style="display: table-cell; white-space: nowrap; line-height: 1.5; max-width: 97px; text-align: center;"><span class="nodeLabel markdown-node-label" style=""><p>«crate»</p></span></div></foreignObject></g></g><g class="label-group text" transform="translate(-29.6015625, -60)"><g class="label" style="font-weight: bolder" transform="translate(0,-12)"><foreignObject width="59.203125" height="24"><div xmlns="http://www.w3.org/1999/xhtml" style="display: table-cell; white-space: nowrap; line-height: 1.5; max-width: 106px; text-align: center;"><span class="nodeLabel markdown-node-label" style=""><p>Anyhow</p></span></div></foreignObject></g></g><g class="members-group text" transform="translate(-54.94921875, -12)"><g class="label" style="" transform="translate(0,-12)"><foreignObject width="78.140625" height="24"><div xmlns="http://www.w3.org/1999/xhtml" style="display: table-cell; white-space: nowrap; line-height: 1.5; max-width: 169px; text-align: center;"><span class="nodeLabel markdown-node-label" style=""><p>+Result&lt;T&gt;</p></span></div></foreignObject></g></g><g class="methods-group text" transform="translate(-54.94921875, 36)"><g class="label" style="" transform="translate(0,-12)"><foreignObject width="80.296875" height="24"><div xmlns="http://www.w3.org/1999/xhtml" style="display: table-cell; white-space: nowrap; line-height: 1.5; max-width: 130px; text-align: center;"><span class="nodeLabel markdown-node-label" style=""><p>+anyhow!()</p></span></div></foreignObject></g><g class="label" style="" transform="translate(0,12)"><foreignObject width="74.828125" height="24"><div xmlns="http://www.w3.org/1999/xhtml" style="display: table-cell; white-space: nowrap; line-height: 1.5; max-width: 121px; text-align: center;"><span class="nodeLabel markdown-node-label" style=""><p>+context()</p></span></div></foreignObject></g><g class="label" style="" transform="translate(0,36)"><foreignObject width="52.625" height="24"><div xmlns="http://www.w3.org/1999/xhtml" style="display: table-cell; white-space: nowrap; line-height: 1.5; max-width: 103px; text-align: center;"><span class="nodeLabel markdown-node-label" style=""><p>+bail!()</p></span></div></foreignObject></g></g><g class="divider" style=""><path d="M-66.94921875 -36 C-13.61221578800641 -36, 39.72478717398718 -36, 66.94921875 -36 M-66.94921875 -36 C-31.288673018967486 -36, 4.371872712065027 -36, 66.94921875 -36" stroke="#9370DB" stroke-width="1.3" fill="none" stroke-dasharray="0 0" style=""/></g><g class="divider" style=""><path d="M-66.94921875 12 C-38.09576010389965 12, -9.242301457799307 12, 66.94921875 12 M-66.94921875 12 C-27.827553988496092 12, 11.294110773007816 12, 66.94921875 12" stroke="#9370DB" stroke-width="1.3" fill="none" stroke-dasharray="0 0" style=""/></g></g><g class="node default" id="classId-Thiserror-2" transform="translate(561.37890625, 116)"><g class="basic label-container"><path d="M-84.90234375 -96 L84.90234375 -96 L84.90234375 96 L-84.90234375 96" stroke="none" stroke-width="0" fill="#ECECFF" style=""/><path d="M-84.90234375 -96 C-24.863729043109174 -96, 35.17488566378165 -96, 84.90234375 -96 M-84.90234375 -96 C-48.20633601645075 -96, -11.510328282901497 -96, 84.90234375 -96 M84.90234375 -96 C84.90234375 -47.86908324087905, 84.90234375 0.26183351824190026, 84.90234375 96 M84.90234375 -96 C84.90234375 -32.759819455803814, 84.90234375 30.48036108839237, 84.90234375 96 M84.90234375 96 C21.302993717204863 96, -42.29635631559027 96, -84.90234375 96 M84.90234375 96 C43.15286592875842 96, 1.4033881075168466 96, -84.90234375 96 M-84.90234375 96 C-84.90234375 35.60361841288729, -84.90234375 -24.792763174225414, -84.90234375 -96 M-84.90234375 96 C-84.90234375 32.33437217574183, -84.90234375 -31.331255648516347, -84.90234375 -96" stroke="#9370DB" stroke-width="1.3" fill="none" stroke-dasharray="0 0" style=""/></g><g class="annotation-group text" transform="translate(-27.203125, -72)"><g class="label" style="" transform="translate(0,-12)"><foreignObject width="54.40625" height="24"><div xmlns="http://www.w3.org/1999/xhtml" style="display: table-cell; white-space: nowrap; line-height: 1.5; max-width: 97px; text-align: center;"><span class="nodeLabel markdown-node-label" style=""><p>«crate»</p></span></div></foreignObject></g></g><g class="label-group text" transform="translate(-34.8515625, -48)"><g class="label" style="font-weight: bolder" transform="translate(0,-12)"><foreignObject width="69.703125" height="24"><div xmlns="http://www.w3.org/1999/xhtml" style="display: table-cell; white-space: nowrap; line-height: 1.5; max-width: 110px; text-align: center;"><span class="nodeLabel markdown-node-label" style=""><p>Thiserror</p></span></div></foreignObject></g></g><g class="members-group text" transform="translate(-72.90234375, 0)"><g class="label" style="" transform="translate(0,-12)"><foreignObject width="87.265625" height="24"><div xmlns="http://www.w3.org/1999/xhtml" style="display: table-cell; white-space: nowrap; line-height: 1.5; max-width: 173px; text-align: center;"><span class="nodeLabel markdown-node-label" style=""><p>+&lt;thiserror&gt;</p></span></div></foreignObject></g><g class="label" style="" transform="translate(0,12)"><foreignObject width="110.953125" height="24"><div xmlns="http://www.w3.org/1999/xhtml" style="display: table-cell; white-space: nowrap; line-height: 1.5; max-width: 194px; text-align: center;"><span class="nodeLabel markdown-node-label" style=""><p>+&lt;error&gt; derive</p></span></div></foreignObject></g><g class="label" style="" transform="translate(0,36)"><foreignObject width="95.46875" height="24"><div xmlns="http://www.w3.org/1999/xhtml" style="display: table-cell; white-space: nowrap; line-height: 1.5; max-width: 147px; text-align: center;"><span class="nodeLabel markdown-node-label" style=""><p>+Display impl</p></span></div></foreignObject></g></g><g class="methods-group text" transform="translate(-72.90234375, 96)"/><g class="divider" style=""><path d="M-84.90234375 -24 C-21.52370024453215 -24, 41.8549432609357 -24, 84.90234375 -24 M-84.90234375 -24 C-26.946869655017863 -24, 31.008604439964273 -24, 84.90234375 -24" stroke="#9370DB" stroke-width="1.3" fill="none" stroke-dasharray="0 0" style=""/></g><g class="divider" style=""><path d="M-84.90234375 72 C-17.971803366610843 72, 48.958737016778315 72, 84.90234375 72 M-84.90234375 72 C-45.14138365546729 72, -5.380423560934574 72, 84.90234375 72" stroke="#9370DB" stroke-width="1.3" fill="none" stroke-dasharray="0 0" style=""/></g></g><g class="node default" id="classId-AppError-3" transform="translate(460.453125, 382)"><g class="basic label-container"><path d="M-83.1875 -84 L83.1875 -84 L83.1875 84 L-83.1875 84" stroke="none" stroke-width="0" fill="#ECECFF" style=""/><path d="M-83.1875 -84 C-39.559140668744156 -84, 4.0692186625116875 -84, 83.1875 -84 M-83.1875 -84 C-33.71562785655386 -84, 15.756244286892283 -84, 83.1875 -84 M83.1875 -84 C83.1875 -18.614696379110015, 83.1875 46.77060724177997, 83.1875 84 M83.1875 -84 C83.1875 -36.610099848092254, 83.1875 10.779800303815492, 83.1875 84 M83.1875 84 C44.18472732167048 84, 5.1819546433409585 84, -83.1875 84 M83.1875 84 C19.93541548313536 84, -43.31666903372928 84, -83.1875 84 M-83.1875 84 C-83.1875 34.04092778891207, -83.1875 -15.918144422175857, -83.1875 -84 M-83.1875 84 C-83.1875 42.45666490387509, -83.1875 0.9133298077501735, -83.1875 -84" stroke="#9370DB" stroke-width="1.3" fill="none" stroke-dasharray="0 0" style=""/></g><g class="annotation-group text" transform="translate(0, -60)"/><g class="label-group text" transform="translate(-33.71875, -60)"><g class="label" style="font-weight: bolder" transform="translate(0,-12)"><foreignObject width="67.4375" height="24"><div xmlns="http://www.w3.org/1999/xhtml" style="display: table-cell; white-space: nowrap; line-height: 1.5; max-width: 112px; text-align: center;"><span class="nodeLabel markdown-node-label" style=""><p>AppError</p></span></div></foreignObject></g></g><g class="members-group text" transform="translate(-71.1875, -12)"><g class="label" style="" transform="translate(0,-12)"><foreignObject width="70.890625" height="24"><div xmlns="http://www.w3.org/1999/xhtml" style="display: table-cell; white-space: nowrap; line-height: 1.5; max-width: 122px; text-align: center;"><span class="nodeLabel markdown-node-label" style=""><p>+IO errors</p></span></div></foreignObject></g><g class="label" style="" transform="translate(0,12)"><foreignObject width="93.65625" height="24"><div xmlns="http://www.w3.org/1999/xhtml" style="display: table-cell; white-space: nowrap; line-height: 1.5; max-width: 139px; text-align: center;"><span class="nodeLabel markdown-node-label" style=""><p>+Parse errors</p></span></div></foreignObject></g><g class="label" style="" transform="translate(0,36)"><foreignObject width="108.65625" height="24"><div xmlns="http://www.w3.org/1999/xhtml" style="display: table-cell; white-space: nowrap; line-height: 1.5; max-width: 155px; text-align: center;"><span class="nodeLabel markdown-node-label" style=""><p>+Custom errors</p></span></div></foreignObject></g></g><g class="methods-group text" transform="translate(-71.1875, 84)"/><g class="divider" style=""><path d="M-83.1875 -36 C-18.30552364362711 -36, 46.57645271274578 -36, 83.1875 -36 M-83.1875 -36 C-28.081320007576565 -36, 27.02485998484687 -36, 83.1875 -36" stroke="#9370DB" stroke-width="1.3" fill="none" stroke-dasharray="0 0" style=""/></g><g class="divider" style=""><path d="M-83.1875 60 C-37.08448854108807 60, 9.018522917823859 60, 83.1875 60 M-83.1875 60 C-48.87946395311444 60, -14.571427906228877 60, 83.1875 60" stroke="#9370DB" stroke-width="1.3" fill="none" stroke-dasharray="0 0" style=""/></g></g><g class="node default" id="classId-NoteoverAnyhow-4" transform="translate(893.078125, 116)"><g class="basic label-container"><path d="M-196.796875 -60 L196.796875 -60 L196.796875 60 L-196.796875 60" stroke="none" stroke-width="0" fill="#ECECFF" style=""/><path d="M-196.796875 -60 C-67.95149868312939 -60, 60.893877633741226 -60, 196.796875 -60 M-196.796875 -60 C-52.407960580152235 -60, 91.98095383969553 -60, 196.796875 -60 M196.796875 -60 C196.796875 -26.375254756998032, 196.796875 7.2494904860039355, 196.796875 60 M196.796875 -60 C196.796875 -13.63092372625627, 196.796875 32.73815254748746, 196.796875 60 M196.796875 60 C66.85169797316058 60, -63.093479053678834 60, -196.796875 60 M196.796875 60 C100.79378450179995 60, 4.790694003599896 60, -196.796875 60 M-196.796875 60 C-196.796875 35.00738920587426, -196.796875 10.01477841174853, -196.796875 -60 M-196.796875 60 C-196.796875 22.154986267661542, -196.796875 -15.690027464676916, -196.796875 -60" stroke="#9370DB" stroke-width="1.3" fill="none" stroke-dasharray="0 0" style=""/></g><g class="annotation-group text" transform="translate(0, -36)"/><g class="label-group text" transform="translate(-64, -36)"><g class="label" style="font-weight: bolder" transform="translate(0,-12)"><foreignObject width="128" height="24"><div xmlns="http://www.w3.org/1999/xhtml" style="display: table-cell; white-space: nowrap; line-height: 1.5; max-width: 166px; text-align: center;"><span class="nodeLabel markdown-node-label" style=""><p>NoteoverAnyhow</p></span></div></foreignObject></g></g><g class="members-group text" transform="translate(-184.796875, 12)"><g class="label" style="" transform="translate(0,-12)"><foreignObject width="305.59375" height="24"><div xmlns="http://www.w3.org/1999/xhtml" style="display: table-cell; white-space: nowrap; line-height: 1.5; max-width: 328px; text-align: center;"><span class="nodeLabel markdown-node-label" style=""><p>Quick error handling\nDynamic error types</p></span></div></foreignObject></g></g><g class="methods-group text" transform="translate(-184.796875, 60)"/><g class="divider" style=""><path d="M-196.796875 -12 C-93.4125373589146 -12, 9.97180028217079 -12, 196.796875 -12 M-196.796875 -12 C-85.53407567102664 -12, 25.728723657946716 -12, 196.796875 -12" stroke="#9370DB" stroke-width="1.3" fill="none" stroke-dasharray="0 0" style=""/></g><g class="divider" style=""><path d="M-196.796875 36 C-43.92554523115703 36, 108.94578453768594 36, 196.796875 36 M-196.796875 36 C-95.32259966805499 36, 6.151675663890018 36, 196.796875 36" stroke="#9370DB" stroke-width="1.3" fill="none" stroke-dasharray="0 0" style=""/></g></g><g class="node default" id="classId-NoteoverThiserror-5" transform="translate(1328.5390625, 116)"><g class="basic label-container"><path d="M-188.6640625 -60 L188.6640625 -60 L188.6640625 60 L-188.6640625 60" stroke="none" stroke-width="0" fill="#ECECFF" style=""/><path d="M-188.6640625 -60 C-87.03267775719748 -60, 14.598706985605048 -60, 188.6640625 -60 M-188.6640625 -60 C-67.45629166323896 -60, 53.751479173522085 -60, 188.6640625 -60 M188.6640625 -60 C188.6640625 -31.39196585045239, 188.6640625 -2.7839317009047804, 188.6640625 60 M188.6640625 -60 C188.6640625 -15.285277703268754, 188.6640625 29.42944459346249, 188.6640625 60 M188.6640625 60 C88.2129799746615 60, -12.238102550677013 60, -188.6640625 60 M188.6640625 60 C75.03106719013316 60, -38.601928119733685 60, -188.6640625 60 M-188.6640625 60 C-188.6640625 27.3044306149294, -188.6640625 -5.391138770141197, -188.6640625 -60 M-188.6640625 60 C-188.6640625 23.396628510411972, -188.6640625 -13.206742979176056, -188.6640625 -60" stroke="#9370DB" stroke-width="1.3" fill="none" stroke-dasharray="0 0" style=""/></g><g class="annotation-group text" transform="translate(0, -36)"/><g class="label-group text" transform="translate(-69.25, -36)"><g class="label" style="font-weight: bolder" transform="translate(0,-12)"><foreignObject width="138.5" height="24"><div xmlns="http://www.w3.org/1999/xhtml" style="display: table-cell; white-space: nowrap; line-height: 1.5; max-width: 171px; text-align: center;"><span class="nodeLabel markdown-node-label" style=""><p>NoteoverThiserror</p></span></div></foreignObject></g></g><g class="members-group text" transform="translate(-176.6640625, 12)"><g class="label" style="" transform="translate(0,-12)"><foreignObject width="284.078125" height="24"><div xmlns="http://www.w3.org/1999/xhtml" style="display: table-cell; white-space: nowrap; line-height: 1.5; max-width: 302px; text-align: center;"><span class="nodeLabel markdown-node-label" style=""><p>Compile-time errors\nStatic error types</p></span></div></foreignObject></g></g><g class="methods-group text" transform="translate(-176.6640625, 60)"/><g class="divider" style=""><path d="M-188.6640625 -12 C-43.17443696548679 -12, 102.31518856902642 -12, 188.6640625 -12 M-188.6640625 -12 C-94.51663509831967 -12, -0.36920769663933584 -12, 188.6640625 -12" stroke="#9370DB" stroke-width="1.3" fill="none" stroke-dasharray="0 0" style=""/></g><g class="divider" style=""><path d="M-188.6640625 36 C-72.07618908879351 36, 44.511684322412975 36, 188.6640625 36 M-188.6640625 36 C-94.06772975099224 36, 0.5286029980155149 36, 188.6640625 36" stroke="#9370DB" stroke-width="1.3" fill="none" stroke-dasharray="0 0" style=""/></g></g></g></g></g></svg>