<svg id="my-svg" width="100%" xmlns="http://www.w3.org/2000/svg" xmlns:xlink="http://www.w3.org/1999/xlink" class="classDiagram" style="max-width: 587.797px; background-color: white;" viewBox="0 0 587.796875 1364" role="graphics-document document" aria-roledescription="class"><style>#my-svg{font-family:"trebuchet ms",verdana,arial,sans-serif;font-size:16px;fill:#333;}@keyframes edge-animation-frame{from{stroke-dashoffset:0;}}@keyframes dash{to{stroke-dashoffset:0;}}#my-svg .edge-animation-slow{stroke-dasharray:9,5!important;stroke-dashoffset:900;animation:dash 50s linear infinite;stroke-linecap:round;}#my-svg .edge-animation-fast{stroke-dasharray:9,5!important;stroke-dashoffset:900;animation:dash 20s linear infinite;stroke-linecap:round;}#my-svg .error-icon{fill:#552222;}#my-svg .error-text{fill:#552222;stroke:#552222;}#my-svg .edge-thickness-normal{stroke-width:1px;}#my-svg .edge-thickness-thick{stroke-width:3.5px;}#my-svg .edge-pattern-solid{stroke-dasharray:0;}#my-svg .edge-thickness-invisible{stroke-width:0;fill:none;}#my-svg .edge-pattern-dashed{stroke-dasharray:3;}#my-svg .edge-pattern-dotted{stroke-dasharray:2;}#my-svg .marker{fill:#333333;stroke:#333333;}#my-svg .marker.cross{stroke:#333333;}#my-svg svg{font-family:"trebuchet ms",verdana,arial,sans-serif;font-size:16px;}#my-svg p{margin:0;}#my-svg g.classGroup text{fill:#9370DB;stroke:none;font-family:"trebuchet ms",verdana,arial,sans-serif;font-size:10px;}#my-svg g.classGroup text .title{font-weight:bolder;}#my-svg .cluster-label text{fill:#333;}#my-svg .cluster-label span{color:#333;}#my-svg .cluster-label span p{background-color:transparent;}#my-svg .cluster rect{fill:#ffffde;stroke:#aaaa33;stroke-width:1px;}#my-svg .cluster text{fill:#333;}#my-svg .cluster span{color:#333;}#my-svg .nodeLabel,#my-svg .edgeLabel{color:#131300;}#my-svg .edgeLabel .label rect{fill:#ECECFF;}#my-svg .label text{fill:#131300;}#my-svg .labelBkg{background:#ECECFF;}#my-svg .edgeLabel .label span{background:#ECECFF;}#my-svg .classTitle{font-weight:bolder;}#my-svg .node rect,#my-svg .node circle,#my-svg .node ellipse,#my-svg .node polygon,#my-svg .node path{fill:#ECECFF;stroke:#9370DB;stroke-width:1px;}#my-svg .divider{stroke:#9370DB;stroke-width:1;}#my-svg g.clickable{cursor:pointer;}#my-svg g.classGroup rect{fill:#ECECFF;stroke:#9370DB;}#my-svg g.classGroup line{stroke:#9370DB;stroke-width:1;}#my-svg .classLabel .box{stroke:none;stroke-width:0;fill:#ECECFF;opacity:0.5;}#my-svg .classLabel .label{fill:#9370DB;font-size:10px;}#my-svg .relation{stroke:#333333;stroke-width:1;fill:none;}#my-svg .dashed-line{stroke-dasharray:3;}#my-svg .dotted-line{stroke-dasharray:1 2;}#my-svg #compositionStart,#my-svg .composition{fill:#333333!important;stroke:#333333!important;stroke-width:1;}#my-svg #compositionEnd,#my-svg .composition{fill:#333333!important;stroke:#333333!important;stroke-width:1;}#my-svg #dependencyStart,#my-svg .dependency{fill:#333333!important;stroke:#333333!important;stroke-width:1;}#my-svg #dependencyStart,#my-svg .dependency{fill:#333333!important;stroke:#333333!important;stroke-width:1;}#my-svg #extensionStart,#my-svg .extension{fill:transparent!important;stroke:#333333!important;stroke-width:1;}#my-svg #extensionEnd,#my-svg .extension{fill:transparent!important;stroke:#333333!important;stroke-width:1;}#my-svg #aggregationStart,#my-svg .aggregation{fill:transparent!important;stroke:#333333!important;stroke-width:1;}#my-svg #aggregationEnd,#my-svg .aggregation{fill:transparent!important;stroke:#333333!important;stroke-width:1;}#my-svg #lollipopStart,#my-svg .lollipop{fill:#ECECFF!important;stroke:#333333!important;stroke-width:1;}#my-svg #lollipopEnd,#my-svg .lollipop{fill:#ECECFF!important;stroke:#333333!important;stroke-width:1;}#my-svg .edgeTerminals{font-size:11px;line-height:initial;}#my-svg .classTitleText{text-anchor:middle;font-size:18px;fill:#333;}#my-svg .label-icon{display:inline-block;height:1em;overflow:visible;vertical-align:-0.125em;}#my-svg .node .label-icon path{fill:currentColor;stroke:revert;stroke-width:revert;}#my-svg :root{--mermaid-font-family:"trebuchet ms",verdana,arial,sans-serif;}</style><g><defs><marker id="my-svg_class-aggregationStart" class="marker aggregation class" refX="18" refY="7" markerWidth="190" markerHeight="240" orient="auto"><path d="M 18,7 L9,13 L1,7 L9,1 Z"/></marker></defs><defs><marker id="my-svg_class-aggregationEnd" class="marker aggregation class" refX="1" refY="7" markerWidth="20" markerHeight="28" orient="auto"><path d="M 18,7 L9,13 L1,7 L9,1 Z"/></marker></defs><defs><marker id="my-svg_class-extensionStart" class="marker extension class" refX="18" refY="7" markerWidth="190" markerHeight="240" orient="auto"><path d="M 1,7 L18,13 V 1 Z"/></marker></defs><defs><marker id="my-svg_class-extensionEnd" class="marker extension class" refX="1" refY="7" markerWidth="20" markerHeight="28" orient="auto"><path d="M 1,1 V 13 L18,7 Z"/></marker></defs><defs><marker id="my-svg_class-compositionStart" class="marker composition class" refX="18" refY="7" markerWidth="190" markerHeight="240" orient="auto"><path d="M 18,7 L9,13 L1,7 L9,1 Z"/></marker></defs><defs><marker id="my-svg_class-compositionEnd" class="marker composition class" refX="1" refY="7" markerWidth="20" markerHeight="28" orient="auto"><path d="M 18,7 L9,13 L1,7 L9,1 Z"/></marker></defs><defs><marker id="my-svg_class-dependencyStart" class="marker dependency class" refX="6" refY="7" markerWidth="190" markerHeight="240" orient="auto"><path d="M 5,7 L9,13 L1,7 L9,1 Z"/></marker></defs><defs><marker id="my-svg_class-dependencyEnd" class="marker dependency class" refX="13" refY="7" markerWidth="20" markerHeight="28" orient="auto"><path d="M 18,7 L9,13 L14,7 L9,1 Z"/></marker></defs><defs><marker id="my-svg_class-lollipopStart" class="marker lollipop class" refX="13" refY="7" markerWidth="190" markerHeight="240" orient="auto"><circle fill="transparent" cx="7" cy="7" r="6"/></marker></defs><defs><marker id="my-svg_class-lollipopEnd" class="marker lollipop class" refX="1" refY="7" markerWidth="190" markerHeight="240" orient="auto"><circle fill="transparent" cx="7" cy="7" r="6"/></marker></defs><g class="root"><g class="clusters"/><g class="edgePaths"><path d="M91.012,158L91.012,164.167C91.012,170.333,91.012,182.667,95.976,194.264C100.94,205.861,110.868,216.722,115.832,222.152L120.796,227.583" id="id_Miner_BlockchainApp_1" class="edge-thickness-normal edge-pattern-solid relation" style=";;;" data-edge="true" data-et="edge" data-id="id_Miner_BlockchainApp_1" data-points="W3sieCI6OTEuMDExNzE4NzUsInkiOjE1OH0seyJ4Ijo5MS4wMTE3MTg3NSwieSI6MTk1fSx7IngiOjEyNC44NDM3NSwieSI6MjMyLjAxMTUxMzMzMjE1NjA4fV0=" marker-end="url(#my-svg_class-dependencyEnd)"/><path d="M312.223,146L312.223,154.167C312.223,162.333,312.223,178.667,307.259,192.264C302.295,205.861,292.367,216.722,287.403,222.152L282.439,227.583" id="id_User_BlockchainApp_2" class="edge-thickness-normal edge-pattern-solid relation" style=";;;" data-edge="true" data-et="edge" data-id="id_User_BlockchainApp_2" data-points="W3sieCI6MzEyLjIyMjY1NjI1LCJ5IjoxNDZ9LHsieCI6MzEyLjIyMjY1NjI1LCJ5IjoxOTV9LHsieCI6Mjc4LjM5MDYyNSwieSI6MjMyLjAxMTUxMzMzMjE1NjA4fV0=" marker-end="url(#my-svg_class-dependencyEnd)"/><path d="M201.617,400L201.617,406.167C201.617,412.333,201.617,424.667,201.617,436C201.617,447.333,201.617,457.667,201.617,462.833L201.617,468" id="id_BlockchainApp_BlockchainModule_3" class="edge-thickness-normal edge-pattern-solid relation" style=";;;" data-edge="true" data-et="edge" data-id="id_BlockchainApp_BlockchainModule_3" data-points="W3sieCI6MjAxLjYxNzE4NzUsInkiOjQwMH0seyJ4IjoyMDEuNjE3MTg3NSwieSI6NDM3fSx7IngiOjIwMS42MTcxODc1LCJ5Ijo0NzR9XQ==" marker-end="url(#my-svg_class-dependencyEnd)"/><path d="M201.617,642L201.617,648.167C201.617,654.333,201.617,666.667,203.957,678.087C206.297,689.506,210.977,700.013,213.317,705.266L215.657,710.519" id="id_BlockchainModule_BlockModule_4" class="edge-thickness-normal edge-pattern-solid relation" style=";;;" data-edge="true" data-et="edge" data-id="id_BlockchainModule_BlockModule_4" data-points="W3sieCI6MjAxLjYxNzE4NzUsInkiOjY0Mn0seyJ4IjoyMDEuNjE3MTg3NSwieSI6Njc5fSx7IngiOjIxOC4wOTgwOTY4MDQ1MTEyNywieSI6NzE2fV0=" marker-end="url(#my-svg_class-dependencyEnd)"/><path d="M260.859,908L260.859,914.167C260.859,920.333,260.859,932.667,265.098,944.214C269.336,955.762,277.812,966.524,282.05,971.905L286.289,977.286" id="id_BlockModule_HashModule_5" class="edge-thickness-normal edge-pattern-solid relation" style=";;;" data-edge="true" data-et="edge" data-id="id_BlockModule_HashModule_5" data-points="W3sieCI6MjYwLjg1OTM3NSwieSI6OTA4fSx7IngiOjI2MC44NTkzNzUsInkiOjk0NX0seyJ4IjoyOTAuMDAxMTMzNTEwMDQ0NjcsInkiOjk4Mn1d" marker-end="url(#my-svg_class-dependencyEnd)"/><path d="M349.072,1132L349.072,1138.167C349.072,1144.333,349.072,1156.667,349.072,1168C349.072,1179.333,349.072,1189.667,349.072,1194.833L349.072,1200" id="id_HashModule_Sha2Crate_6" class="edge-thickness-normal edge-pattern-solid relation" style=";;;" data-edge="true" data-et="edge" data-id="id_HashModule_Sha2Crate_6" data-points="W3sieCI6MzQ5LjA3MjI2NTYyNSwieSI6MTEzMn0seyJ4IjozNDkuMDcyMjY1NjI1LCJ5IjoxMTY5fSx7IngiOjM0OS4wNzIyNjU2MjUsInkiOjEyMDZ9XQ==" marker-end="url(#my-svg_class-dependencyEnd)"/><path d="M503.984,633L506.292,640.667C508.6,648.333,513.216,663.667,515.524,693.5C517.832,723.333,517.832,767.667,517.832,812C517.832,856.333,517.832,900.667,509.373,928.447C500.915,956.227,483.998,967.455,475.539,973.068L467.08,978.682" id="id_MinerWorker_HashModule_7" class="edge-thickness-normal edge-pattern-solid relation" style=";;;" data-edge="true" data-et="edge" data-id="id_MinerWorker_HashModule_7" data-points="W3sieCI6NTAzLjk4NDIxMzU4NDcxMDc0LCJ5Ijo2MzN9LHsieCI6NTE3LjgzMjAzMTI1LCJ5Ijo2Nzl9LHsieCI6NTE3LjgzMjAzMTI1LCJ5Ijo4MTJ9LHsieCI6NTE3LjgzMjAzMTI1LCJ5Ijo5NDV9LHsieCI6NDYyLjA4MTAzNzI0ODg4Mzk0LCJ5Ijo5ODJ9XQ==" marker-end="url(#my-svg_class-dependencyEnd)"/><path d="M426.729,633L421.14,640.667C415.55,648.333,404.372,663.667,393.352,676.791C382.332,689.916,371.472,700.831,366.041,706.289L360.611,711.747" id="id_MinerWorker_BlockModule_8" class="edge-thickness-normal edge-pattern-solid relation" style=";;;" data-edge="true" data-et="edge" data-id="id_MinerWorker_BlockModule_8" data-points="W3sieCI6NDI2LjcyODgzODQ1NTU3ODUsInkiOjYzM30seyJ4IjozOTMuMTkzMzU5Mzc1LCJ5Ijo2Nzl9LHsieCI6MzU2LjM3ODY0MTkxNzI5MzI0LCJ5Ijo3MTZ9XQ==" marker-end="url(#my-svg_class-dependencyEnd)"/></g><g class="edgeLabels"><g class="edgeLabel" transform="translate(91.01171875, 195)"><g class="label" data-id="id_Miner_BlockchainApp_1" transform="translate(-29.5, -12)"><foreignObject width="59" height="24"><div xmlns="http://www.w3.org/1999/xhtml" class="labelBkg" style="display: table-cell; white-space: nowrap; line-height: 1.5; max-width: 200px; text-align: center;"><span class="edgeLabel"><p>Uses CLI</p></span></div></foreignObject></g></g><g class="edgeLabel" transform="translate(312.22265625, 195)"><g class="label" data-id="id_User_BlockchainApp_2" transform="translate(-41.625, -12)"><foreignObject width="83.25" height="24"><div xmlns="http://www.w3.org/1999/xhtml" class="labelBkg" style="display: table-cell; white-space: nowrap; line-height: 1.5; max-width: 200px; text-align: center;"><span class="edgeLabel"><p>Adds blocks</p></span></div></foreignObject></g></g><g class="edgeLabel" transform="translate(201.6171875, 437)"><g class="label" data-id="id_BlockchainApp_BlockchainModule_3" transform="translate(-30.0703125, -12)"><foreignObject width="60.140625" height="24"><div xmlns="http://www.w3.org/1999/xhtml" class="labelBkg" style="display: table-cell; white-space: nowrap; line-height: 1.5; max-width: 200px; text-align: center;"><span class="edgeLabel"><p>Manages</p></span></div></foreignObject></g></g><g class="edgeLabel" transform="translate(201.6171875, 679)"><g class="label" data-id="id_BlockchainModule_BlockModule_4" transform="translate(-45.6328125, -12)"><foreignObject width="91.265625" height="24"><div xmlns="http://www.w3.org/1999/xhtml" class="labelBkg" style="display: table-cell; white-space: nowrap; line-height: 1.5; max-width: 200px; text-align: center;"><span class="edgeLabel"><p>Contains Vec</p></span></div></foreignObject></g></g><g class="edgeLabel" transform="translate(260.859375, 945)"><g class="label" data-id="id_BlockModule_HashModule_5" transform="translate(-16.03125, -12)"><foreignObject width="32.0625" height="24"><div xmlns="http://www.w3.org/1999/xhtml" class="labelBkg" style="display: table-cell; white-space: nowrap; line-height: 1.5; max-width: 200px; text-align: center;"><span class="edgeLabel"><p>Uses</p></span></div></foreignObject></g></g><g class="edgeLabel" transform="translate(349.072265625, 1169)"><g class="label" data-id="id_HashModule_Sha2Crate_6" transform="translate(-27.140625, -12)"><foreignObject width="54.28125" height="24"><div xmlns="http://www.w3.org/1999/xhtml" class="labelBkg" style="display: table-cell; white-space: nowrap; line-height: 1.5; max-width: 200px; text-align: center;"><span class="edgeLabel"><p>Imports</p></span></div></foreignObject></g></g><g class="edgeLabel" transform="translate(517.83203125, 812)"><g class="label" data-id="id_MinerWorker_HashModule_7" transform="translate(-40.640625, -12)"><foreignObject width="81.28125" height="24"><div xmlns="http://www.w3.org/1999/xhtml" class="labelBkg" style="display: table-cell; white-space: nowrap; line-height: 1.5; max-width: 200px; text-align: center;"><span class="edgeLabel"><p>Brute force</p></span></div></foreignObject></g></g><g class="edgeLabel" transform="translate(393.193359375, 679)"><g class="label" data-id="id_MinerWorker_BlockModule_8" transform="translate(-52.8515625, -12)"><foreignObject width="105.703125" height="24"><div xmlns="http://www.w3.org/1999/xhtml" class="labelBkg" style="display: table-cell; white-space: nowrap; line-height: 1.5; max-width: 200px; text-align: center;"><span class="edgeLabel"><p>Updates nonce</p></span></div></foreignObject></g></g></g><g class="nodes"><g class="node default" id="classId-Miner-0" transform="translate(91.01171875, 83)"><g class="basic label-container"><path d="M-83.01171875 -75 L83.01171875 -75 L83.01171875 75 L-83.01171875 75" stroke="none" stroke-width="0" fill="#ECECFF" style=""/><path d="M-83.01171875 -75 C-21.166090753663156 -75, 40.67953724267369 -75, 83.01171875 -75 M-83.01171875 -75 C-30.408823500553865 -75, 22.19407174889227 -75, 83.01171875 -75 M83.01171875 -75 C83.01171875 -29.004888233172267, 83.01171875 16.990223533655467, 83.01171875 75 M83.01171875 -75 C83.01171875 -33.349290674106975, 83.01171875 8.30141865178605, 83.01171875 75 M83.01171875 75 C39.76567975646987 75, -3.480359237060256 75, -83.01171875 75 M83.01171875 75 C19.17536415920113 75, -44.66099043159774 75, -83.01171875 75 M-83.01171875 75 C-83.01171875 26.79394423768278, -83.01171875 -21.41211152463444, -83.01171875 -75 M-83.01171875 75 C-83.01171875 18.042457124995714, -83.01171875 -38.91508575000857, -83.01171875 -75" stroke="#9370DB" stroke-width="1.3" fill="none" stroke-dasharray="0 0" style=""/></g><g class="annotation-group text" transform="translate(0, -51)"/><g class="label-group text" transform="translate(-21.0859375, -51)"><g class="label" style="font-weight: bolder" transform="translate(0,-12)"><foreignObject width="42.171875" height="24"><div xmlns="http://www.w3.org/1999/xhtml" style="display: table-cell; white-space: nowrap; line-height: 1.5; max-width: 90px; text-align: center;"><span class="nodeLabel markdown-node-label" style=""><p>Miner</p></span></div></foreignObject></g></g><g class="members-group text" transform="translate(-71.01171875, -3)"/><g class="methods-group text" transform="translate(-71.01171875, 27)"><g class="label" style="" transform="translate(0,-12)"><foreignObject width="113.09375" height="24"><div xmlns="http://www.w3.org/1999/xhtml" style="display: table-cell; white-space: nowrap; line-height: 1.5; max-width: 156px; text-align: center;"><span class="nodeLabel markdown-node-label" style=""><p>+create_block()</p></span></div></foreignObject></g><g class="label" style="" transform="translate(0,12)"><foreignObject width="120.9375" height="24"><div xmlns="http://www.w3.org/1999/xhtml" style="display: table-cell; white-space: nowrap; line-height: 1.5; max-width: 165px; text-align: center;"><span class="nodeLabel markdown-node-label" style=""><p>+mine(difficulty)</p></span></div></foreignObject></g></g><g class="divider" style=""><path d="M-83.01171875 -27 C-45.247069138116885 -27, -7.48241952623377 -27, 83.01171875 -27 M-83.01171875 -27 C-44.97704489830842 -27, -6.942371046616842 -27, 83.01171875 -27" stroke="#9370DB" stroke-width="1.3" fill="none" stroke-dasharray="0 0" style=""/></g><g class="divider" style=""><path d="M-83.01171875 -3 C-49.39512287050442 -3, -15.778526991008846 -3, 83.01171875 -3 M-83.01171875 -3 C-48.70313401175699 -3, -14.394549273513974 -3, 83.01171875 -3" stroke="#9370DB" stroke-width="1.3" fill="none" stroke-dasharray="0 0" style=""/></g></g><g class="node default" id="classId-User-1" transform="translate(312.22265625, 83)"><g class="basic label-container"><path d="M-88.19921875 -63 L88.19921875 -63 L88.19921875 63 L-88.19921875 63" stroke="none" stroke-width="0" fill="#ECECFF" style=""/><path d="M-88.19921875 -63 C-19.59979931789738 -63, 48.99962011420524 -63, 88.19921875 -63 M-88.19921875 -63 C-19.843488232961406 -63, 48.51224228407719 -63, 88.19921875 -63 M88.19921875 -63 C88.19921875 -34.157519345351716, 88.19921875 -5.315038690703432, 88.19921875 63 M88.19921875 -63 C88.19921875 -35.46665437246446, 88.19921875 -7.9333087449289295, 88.19921875 63 M88.19921875 63 C25.996277592753344 63, -36.20666356449331 63, -88.19921875 63 M88.19921875 63 C48.46740165942983 63, 8.735584568859665 63, -88.19921875 63 M-88.19921875 63 C-88.19921875 37.045289353823506, -88.19921875 11.090578707647019, -88.19921875 -63 M-88.19921875 63 C-88.19921875 20.780379586718325, -88.19921875 -21.43924082656335, -88.19921875 -63" stroke="#9370DB" stroke-width="1.3" fill="none" stroke-dasharray="0 0" style=""/></g><g class="annotation-group text" transform="translate(0, -39)"/><g class="label-group text" transform="translate(-16.8828125, -39)"><g class="label" style="font-weight: bolder" transform="translate(0,-12)"><foreignObject width="33.765625" height="24"><div xmlns="http://www.w3.org/1999/xhtml" style="display: table-cell; white-space: nowrap; line-height: 1.5; max-width: 81px; text-align: center;"><span class="nodeLabel markdown-node-label" style=""><p>User</p></span></div></foreignObject></g></g><g class="members-group text" transform="translate(-76.19921875, 9)"/><g class="methods-group text" transform="translate(-76.19921875, 39)"><g class="label" style="" transform="translate(0,-12)"><foreignObject width="135.515625" height="24"><div xmlns="http://www.w3.org/1999/xhtml" style="display: table-cell; white-space: nowrap; line-height: 1.5; max-width: 175px; text-align: center;"><span class="nodeLabel markdown-node-label" style=""><p>+add_transaction()</p></span></div></foreignObject></g></g><g class="divider" style=""><path d="M-88.19921875 -15 C-19.538973331131032 -15, 49.121272087737935 -15, 88.19921875 -15 M-88.19921875 -15 C-33.97809351087979 -15, 20.243031728240425 -15, 88.19921875 -15" stroke="#9370DB" stroke-width="1.3" fill="none" stroke-dasharray="0 0" style=""/></g><g class="divider" style=""><path d="M-88.19921875 9 C-33.033597017720766 9, 22.13202471455847 9, 88.19921875 9 M-88.19921875 9 C-20.535972414935387 9, 47.12727392012923 9, 88.19921875 9" stroke="#9370DB" stroke-width="1.3" fill="none" stroke-dasharray="0 0" style=""/></g></g><g class="node default" id="classId-BlockchainApp-2" transform="translate(201.6171875, 316)"><g class="basic label-container"><path d="M-76.7734375 -84 L76.7734375 -84 L76.7734375 84 L-76.7734375 84" stroke="none" stroke-width="0" fill="#ECECFF" style=""/><path d="M-76.7734375 -84 C-42.64269919771249 -84, -8.511960895424977 -84, 76.7734375 -84 M-76.7734375 -84 C-31.548768048828784 -84, 13.675901402342433 -84, 76.7734375 -84 M76.7734375 -84 C76.7734375 -38.99792094018318, 76.7734375 6.004158119633644, 76.7734375 84 M76.7734375 -84 C76.7734375 -26.975611344958253, 76.7734375 30.048777310083494, 76.7734375 84 M76.7734375 84 C32.22521553427072 84, -12.323006431458566 84, -76.7734375 84 M76.7734375 84 C34.66738650453709 84, -7.438664490925817 84, -76.7734375 84 M-76.7734375 84 C-76.7734375 39.28324562378903, -76.7734375 -5.433508752421943, -76.7734375 -84 M-76.7734375 84 C-76.7734375 17.90833919369129, -76.7734375 -48.18332161261742, -76.7734375 -84" stroke="#9370DB" stroke-width="1.3" fill="none" stroke-dasharray="0 0" style=""/></g><g class="annotation-group text" transform="translate(0, -60)"/><g class="label-group text" transform="translate(-54.71875, -60)"><g class="label" style="font-weight: bolder" transform="translate(0,-12)"><foreignObject width="109.4375" height="24"><div xmlns="http://www.w3.org/1999/xhtml" style="display: table-cell; white-space: nowrap; line-height: 1.5; max-width: 150px; text-align: center;"><span class="nodeLabel markdown-node-label" style=""><p>BlockchainApp</p></span></div></foreignObject></g></g><g class="members-group text" transform="translate(-64.7734375, -12)"><g class="label" style="" transform="translate(0,-12)"><foreignObject width="61.953125" height="24"><div xmlns="http://www.w3.org/1999/xhtml" style="display: table-cell; white-space: nowrap; line-height: 1.5; max-width: 111px; text-align: center;"><span class="nodeLabel markdown-node-label" style=""><p>+main.rs</p></span></div></foreignObject></g><g class="label" style="" transform="translate(0,12)"><foreignObject width="74.828125" height="24"><div xmlns="http://www.w3.org/1999/xhtml" style="display: table-cell; white-space: nowrap; line-height: 1.5; max-width: 129px; text-align: center;"><span class="nodeLabel markdown-node-label" style=""><p>+CLI menu</p></span></div></foreignObject></g></g><g class="methods-group text" transform="translate(-64.7734375, 60)"><g class="label" style="" transform="translate(0,-12)"><foreignObject width="43.84375" height="24"><div xmlns="http://www.w3.org/1999/xhtml" style="display: table-cell; white-space: nowrap; line-height: 1.5; max-width: 95px; text-align: center;"><span class="nodeLabel markdown-node-label" style=""><p>+run()</p></span></div></foreignObject></g></g><g class="divider" style=""><path d="M-76.7734375 -36 C-39.94133013303022 -36, -3.109222766060441 -36, 76.7734375 -36 M-76.7734375 -36 C-34.46112749601635 -36, 7.8511825079672946 -36, 76.7734375 -36" stroke="#9370DB" stroke-width="1.3" fill="none" stroke-dasharray="0 0" style=""/></g><g class="divider" style=""><path d="M-76.7734375 36 C-17.24142437595276 36, 42.29058874809448 36, 76.7734375 36 M-76.7734375 36 C-42.14647521082642 36, -7.519512921652833 36, 76.7734375 36" stroke="#9370DB" stroke-width="1.3" fill="none" stroke-dasharray="0 0" style=""/></g></g><g class="node default" id="classId-BlockchainModule-3" transform="translate(201.6171875, 558)"><g class="basic label-container"><path d="M-116.27734375 -84 L116.27734375 -84 L116.27734375 84 L-116.27734375 84" stroke="none" stroke-width="0" fill="#ECECFF" style=""/><path d="M-116.27734375 -84 C-44.73861994220245 -84, 26.800103865595105 -84, 116.27734375 -84 M-116.27734375 -84 C-39.17975688731029 -84, 37.91782997537942 -84, 116.27734375 -84 M116.27734375 -84 C116.27734375 -36.127559675570545, 116.27734375 11.74488064885891, 116.27734375 84 M116.27734375 -84 C116.27734375 -23.211548485198918, 116.27734375 37.576903029602164, 116.27734375 84 M116.27734375 84 C49.62222044658769 84, -17.03290285682462 84, -116.27734375 84 M116.27734375 84 C47.51434554995271 84, -21.248652650094584 84, -116.27734375 84 M-116.27734375 84 C-116.27734375 29.091104740388374, -116.27734375 -25.81779051922325, -116.27734375 -84 M-116.27734375 84 C-116.27734375 37.18791628129738, -116.27734375 -9.624167437405234, -116.27734375 -84" stroke="#9370DB" stroke-width="1.3" fill="none" stroke-dasharray="0 0" style=""/></g><g class="annotation-group text" transform="translate(0, -60)"/><g class="label-group text" transform="translate(-67.1484375, -60)"><g class="label" style="font-weight: bolder" transform="translate(0,-12)"><foreignObject width="134.296875" height="24"><div xmlns="http://www.w3.org/1999/xhtml" style="display: table-cell; white-space: nowrap; line-height: 1.5; max-width: 173px; text-align: center;"><span class="nodeLabel markdown-node-label" style=""><p>BlockchainModule</p></span></div></foreignObject></g></g><g class="members-group text" transform="translate(-104.27734375, -12)"><g class="label" style="" transform="translate(0,-12)"><foreignObject width="141.40625" height="24"><div xmlns="http://www.w3.org/1999/xhtml" style="display: table-cell; white-space: nowrap; line-height: 1.5; max-width: 227px; text-align: center;"><span class="nodeLabel markdown-node-label" style=""><p>-blocks: Vec&lt;Block&gt;</p></span></div></foreignObject></g></g><g class="methods-group text" transform="translate(-104.27734375, 36)"><g class="label" style="" transform="translate(0,-12)"><foreignObject width="92.984375" height="24"><div xmlns="http://www.w3.org/1999/xhtml" style="display: table-cell; white-space: nowrap; line-height: 1.5; max-width: 141px; text-align: center;"><span class="nodeLabel markdown-node-label" style=""><p>+add_block()</p></span></div></foreignObject></g><g class="label" style="" transform="translate(0,12)"><foreignObject width="61.296875" height="24"><div xmlns="http://www.w3.org/1999/xhtml" style="display: table-cell; white-space: nowrap; line-height: 1.5; max-width: 112px; text-align: center;"><span class="nodeLabel markdown-node-label" style=""><p>+verify()</p></span></div></foreignObject></g></g><g class="divider" style=""><path d="M-116.27734375 -36 C-68.14533520237943 -36, -20.013326654758856 -36, 116.27734375 -36 M-116.27734375 -36 C-69.45536335414823 -36, -22.63338295829645 -36, 116.27734375 -36" stroke="#9370DB" stroke-width="1.3" fill="none" stroke-dasharray="0 0" style=""/></g><g class="divider" style=""><path d="M-116.27734375 12 C-23.35838682392496 12, 69.56057010215008 12, 116.27734375 12 M-116.27734375 12 C-58.461038050565534 12, -0.6447323511310685 12, 116.27734375 12" stroke="#9370DB" stroke-width="1.3" fill="none" stroke-dasharray="0 0" style=""/></g></g><g class="node default" id="classId-BlockModule-4" transform="translate(260.859375, 812)"><g class="basic label-container"><path d="M-100.78515625 -96 L100.78515625 -96 L100.78515625 96 L-100.78515625 96" stroke="none" stroke-width="0" fill="#ECECFF" style=""/><path d="M-100.78515625 -96 C-40.40905774835319 -96, 19.967040753293617 -96, 100.78515625 -96 M-100.78515625 -96 C-37.95174871634487 -96, 24.881658817310253 -96, 100.78515625 -96 M100.78515625 -96 C100.78515625 -51.45899246615222, 100.78515625 -6.917984932304435, 100.78515625 96 M100.78515625 -96 C100.78515625 -36.905820391652725, 100.78515625 22.18835921669455, 100.78515625 96 M100.78515625 96 C39.912826467895464 96, -20.959503314209073 96, -100.78515625 96 M100.78515625 96 C50.95543038975095 96, 1.1257045295019026 96, -100.78515625 96 M-100.78515625 96 C-100.78515625 53.31404645227533, -100.78515625 10.628092904550655, -100.78515625 -96 M-100.78515625 96 C-100.78515625 35.00727292080414, -100.78515625 -25.98545415839172, -100.78515625 -96" stroke="#9370DB" stroke-width="1.3" fill="none" stroke-dasharray="0 0" style=""/></g><g class="annotation-group text" transform="translate(0, -72)"/><g class="label-group text" transform="translate(-46.9453125, -72)"><g class="label" style="font-weight: bolder" transform="translate(0,-12)"><foreignObject width="93.890625" height="24"><div xmlns="http://www.w3.org/1999/xhtml" style="display: table-cell; white-space: nowrap; line-height: 1.5; max-width: 138px; text-align: center;"><span class="nodeLabel markdown-node-label" style=""><p>BlockModule</p></span></div></foreignObject></g></g><g class="members-group text" transform="translate(-88.78515625, -24)"><g class="label" style="" transform="translate(0,-12)"><foreignObject width="81.0625" height="24"><div xmlns="http://www.w3.org/1999/xhtml" style="display: table-cell; white-space: nowrap; line-height: 1.5; max-width: 128px; text-align: center;"><span class="nodeLabel markdown-node-label" style=""><p>-index: u64</p></span></div></foreignObject></g><g class="label" style="" transform="translate(0,12)"><foreignObject width="90.53125" height="24"><div xmlns="http://www.w3.org/1999/xhtml" style="display: table-cell; white-space: nowrap; line-height: 1.5; max-width: 137px; text-align: center;"><span class="nodeLabel markdown-node-label" style=""><p>-hash: String</p></span></div></foreignObject></g><g class="label" style="" transform="translate(0,36)"><foreignObject width="130.625" height="24"><div xmlns="http://www.w3.org/1999/xhtml" style="display: table-cell; white-space: nowrap; line-height: 1.5; max-width: 173px; text-align: center;"><span class="nodeLabel markdown-node-label" style=""><p>-prev_hash: String</p></span></div></foreignObject></g></g><g class="methods-group text" transform="translate(-88.78515625, 72)"><g class="label" style="" transform="translate(0,-12)"><foreignObject width="126.8125" height="24"><div xmlns="http://www.w3.org/1999/xhtml" style="display: table-cell; white-space: nowrap; line-height: 1.5; max-width: 168px; text-align: center;"><span class="nodeLabel markdown-node-label" style=""><p>+calculate_hash()</p></span></div></foreignObject></g></g><g class="divider" style=""><path d="M-100.78515625 -48 C-58.453156782427136 -48, -16.121157314854273 -48, 100.78515625 -48 M-100.78515625 -48 C-33.016138359765066 -48, 34.75287953046987 -48, 100.78515625 -48" stroke="#9370DB" stroke-width="1.3" fill="none" stroke-dasharray="0 0" style=""/></g><g class="divider" style=""><path d="M-100.78515625 48 C-47.393919711438116 48, 5.997316827123768 48, 100.78515625 48 M-100.78515625 48 C-44.02219358447874 48, 12.740769081042515 48, 100.78515625 48" stroke="#9370DB" stroke-width="1.3" fill="none" stroke-dasharray="0 0" style=""/></g></g><g class="node default" id="classId-HashModule-5" transform="translate(349.072265625, 1057)"><g class="basic label-container"><path d="M-113.4296875 -75 L113.4296875 -75 L113.4296875 75 L-113.4296875 75" stroke="none" stroke-width="0" fill="#ECECFF" style=""/><path d="M-113.4296875 -75 C-67.0383264816721 -75, -20.646965463344216 -75, 113.4296875 -75 M-113.4296875 -75 C-49.52342569071574 -75, 14.38283611856852 -75, 113.4296875 -75 M113.4296875 -75 C113.4296875 -21.66839066689068, 113.4296875 31.66321866621864, 113.4296875 75 M113.4296875 -75 C113.4296875 -33.5090052976646, 113.4296875 7.981989404670799, 113.4296875 75 M113.4296875 75 C62.11761960212825 75, 10.805551704256501 75, -113.4296875 75 M113.4296875 75 C67.72294189607473 75, 22.016196292149445 75, -113.4296875 75 M-113.4296875 75 C-113.4296875 19.53843155292273, -113.4296875 -35.92313689415454, -113.4296875 -75 M-113.4296875 75 C-113.4296875 15.952427368850998, -113.4296875 -43.095145262298004, -113.4296875 -75" stroke="#9370DB" stroke-width="1.3" fill="none" stroke-dasharray="0 0" style=""/></g><g class="annotation-group text" transform="translate(0, -51)"/><g class="label-group text" transform="translate(-44.734375, -51)"><g class="label" style="font-weight: bolder" transform="translate(0,-12)"><foreignObject width="89.46875" height="24"><div xmlns="http://www.w3.org/1999/xhtml" style="display: table-cell; white-space: nowrap; line-height: 1.5; max-width: 133px; text-align: center;"><span class="nodeLabel markdown-node-label" style=""><p>HashModule</p></span></div></foreignObject></g></g><g class="members-group text" transform="translate(-101.4296875, -3)"/><g class="methods-group text" transform="translate(-101.4296875, 27)"><g class="label" style="" transform="translate(0,-12)"><foreignObject width="158.125" height="24"><div xmlns="http://www.w3.org/1999/xhtml" style="display: table-cell; white-space: nowrap; line-height: 1.5; max-width: 198px; text-align: center;"><span class="nodeLabel markdown-node-label" style=""><p>+sha256(data) : String</p></span></div></foreignObject></g><g class="label" style="" transform="translate(0,12)"><foreignObject width="107.609375" height="24"><div xmlns="http://www.w3.org/1999/xhtml" style="display: table-cell; white-space: nowrap; line-height: 1.5; max-width: 154px; text-align: center;"><span class="nodeLabel markdown-node-label" style=""><p>+verify() : bool</p></span></div></foreignObject></g></g><g class="divider" style=""><path d="M-113.4296875 -27 C-45.27641361178301 -27, 22.876860276433973 -27, 113.4296875 -27 M-113.4296875 -27 C-51.001748458856575 -27, 11.42619058228685 -27, 113.4296875 -27" stroke="#9370DB" stroke-width="1.3" fill="none" stroke-dasharray="0 0" style=""/></g><g class="divider" style=""><path d="M-113.4296875 -3 C-33.64638558438436 -3, 46.136916331231276 -3, 113.4296875 -3 M-113.4296875 -3 C-40.52556281781801 -3, 32.378561864363974 -3, 113.4296875 -3" stroke="#9370DB" stroke-width="1.3" fill="none" stroke-dasharray="0 0" style=""/></g></g><g class="node default" id="classId-Sha2Crate-6" transform="translate(349.072265625, 1281)"><g class="basic label-container"><path d="M-93.65625 -75 L93.65625 -75 L93.65625 75 L-93.65625 75" stroke="none" stroke-width="0" fill="#ECECFF" style=""/><path d="M-93.65625 -75 C-34.01034813157517 -75, 25.63555373684966 -75, 93.65625 -75 M-93.65625 -75 C-22.46896706387625 -75, 48.7183158722475 -75, 93.65625 -75 M93.65625 -75 C93.65625 -15.759368981293186, 93.65625 43.48126203741363, 93.65625 75 M93.65625 -75 C93.65625 -29.018641345353807, 93.65625 16.962717309292387, 93.65625 75 M93.65625 75 C41.32669689054199 75, -11.002856218916023 75, -93.65625 75 M93.65625 75 C45.697677237596295 75, -2.2608955248074096 75, -93.65625 75 M-93.65625 75 C-93.65625 33.402940300512704, -93.65625 -8.194119398974593, -93.65625 -75 M-93.65625 75 C-93.65625 26.932769049425318, -93.65625 -21.134461901149365, -93.65625 -75" stroke="#9370DB" stroke-width="1.3" fill="none" stroke-dasharray="0 0" style=""/></g><g class="annotation-group text" transform="translate(-38.34375, -51)"><g class="label" style="" transform="translate(0,-12)"><foreignObject width="76.6875" height="24"><div xmlns="http://www.w3.org/1999/xhtml" style="display: table-cell; white-space: nowrap; line-height: 1.5; max-width: 118px; text-align: center;"><span class="nodeLabel markdown-node-label" style=""><p>«external»</p></span></div></foreignObject></g></g><g class="label-group text" transform="translate(-37.875, -27)"><g class="label" style="font-weight: bolder" transform="translate(0,-12)"><foreignObject width="75.75" height="24"><div xmlns="http://www.w3.org/1999/xhtml" style="display: table-cell; white-space: nowrap; line-height: 1.5; max-width: 117px; text-align: center;"><span class="nodeLabel markdown-node-label" style=""><p>Sha2Crate</p></span></div></foreignObject></g></g><g class="members-group text" transform="translate(-81.65625, 21)"/><g class="methods-group text" transform="translate(-81.65625, 51)"><g class="label" style="" transform="translate(0,-12)"><foreignObject width="124.96875" height="24"><div xmlns="http://www.w3.org/1999/xhtml" style="display: table-cell; white-space: nowrap; line-height: 1.5; max-width: 169px; text-align: center;"><span class="nodeLabel markdown-node-label" style=""><p>+Sha256::digest()</p></span></div></foreignObject></g></g><g class="divider" style=""><path d="M-93.65625 -3 C-19.048110188316286 -3, 55.56002962336743 -3, 93.65625 -3 M-93.65625 -3 C-39.33213487435809 -3, 14.99198025128382 -3, 93.65625 -3" stroke="#9370DB" stroke-width="1.3" fill="none" stroke-dasharray="0 0" style=""/></g><g class="divider" style=""><path d="M-93.65625 21 C-36.86386328100719 21, 19.928523437985618 21, 93.65625 21 M-93.65625 21 C-49.93636104506076 21, -6.216472090121513 21, 93.65625 21" stroke="#9370DB" stroke-width="1.3" fill="none" stroke-dasharray="0 0" style=""/></g></g><g class="node default" id="classId-MinerWorker-7" transform="translate(481.40625, 558)"><g class="basic label-container"><path d="M-98.390625 -75 L98.390625 -75 L98.390625 75 L-98.390625 75" stroke="none" stroke-width="0" fill="#ECECFF" style=""/><path d="M-98.390625 -75 C-20.404865707852267 -75, 57.58089358429547 -75, 98.390625 -75 M-98.390625 -75 C-48.84741197682829 -75, 0.6958010463434192 -75, 98.390625 -75 M98.390625 -75 C98.390625 -25.119625354492946, 98.390625 24.760749291014108, 98.390625 75 M98.390625 -75 C98.390625 -16.928448401618496, 98.390625 41.14310319676301, 98.390625 75 M98.390625 75 C49.59427243026611 75, 0.7979198605322182 75, -98.390625 75 M98.390625 75 C33.762051209417905 75, -30.86652258116419 75, -98.390625 75 M-98.390625 75 C-98.390625 41.36605966661173, -98.390625 7.732119333223466, -98.390625 -75 M-98.390625 75 C-98.390625 36.63386724714278, -98.390625 -1.7322655057144374, -98.390625 -75" stroke="#9370DB" stroke-width="1.3" fill="none" stroke-dasharray="0 0" style=""/></g><g class="annotation-group text" transform="translate(0, -51)"/><g class="label-group text" transform="translate(-48.359375, -51)"><g class="label" style="font-weight: bolder" transform="translate(0,-12)"><foreignObject width="96.71875" height="24"><div xmlns="http://www.w3.org/1999/xhtml" style="display: table-cell; white-space: nowrap; line-height: 1.5; max-width: 137px; text-align: center;"><span class="nodeLabel markdown-node-label" style=""><p>MinerWorker</p></span></div></foreignObject></g></g><g class="members-group text" transform="translate(-86.390625, -3)"/><g class="methods-group text" transform="translate(-86.390625, 27)"><g class="label" style="" transform="translate(0,-12)"><foreignObject width="124.421875" height="24"><div xmlns="http://www.w3.org/1999/xhtml" style="display: table-cell; white-space: nowrap; line-height: 1.5; max-width: 171px; text-align: center;"><span class="nodeLabel markdown-node-label" style=""><p>+proof_of_work()</p></span></div></foreignObject></g><g class="label" style="" transform="translate(0,12)"><foreignObject width="99.390625" height="24"><div xmlns="http://www.w3.org/1999/xhtml" style="display: table-cell; white-space: nowrap; line-height: 1.5; max-width: 146px; text-align: center;"><span class="nodeLabel markdown-node-label" style=""><p>+find_nonce()</p></span></div></foreignObject></g></g><g class="divider" style=""><path d="M-98.390625 -27 C-34.2621251084052 -27, 29.8663747831896 -27, 98.390625 -27 M-98.390625 -27 C-39.17650471011178 -27, 20.037615579776443 -27, 98.390625 -27" stroke="#9370DB" stroke-width="1.3" fill="none" stroke-dasharray="0 0" style=""/></g><g class="divider" style=""><path d="M-98.390625 -3 C-41.9007796350883 -3, 14.589065729823403 -3, 98.390625 -3 M-98.390625 -3 C-42.92403641237862 -3, 12.542552175242761 -3, 98.390625 -3" stroke="#9370DB" stroke-width="1.3" fill="none" stroke-dasharray="0 0" style=""/></g></g></g></g></g></svg>