<svg id="my-svg" width="100%" xmlns="http://www.w3.org/2000/svg" xmlns:xlink="http://www.w3.org/1999/xlink" style="max-width: 804.547px; background-color: white;" viewBox="-196.546875 -19 804.546875 288.1747131347656" role="graphics-document document" aria-roledescription="gitGraph"><style>#my-svg{font-family:"trebuchet ms",verdana,arial,sans-serif;font-size:16px;fill:#333;}@keyframes edge-animation-frame{from{stroke-dashoffset:0;}}@keyframes dash{to{stroke-dashoffset:0;}}#my-svg .edge-animation-slow{stroke-dasharray:9,5!important;stroke-dashoffset:900;animation:dash 50s linear infinite;stroke-linecap:round;}#my-svg .edge-animation-fast{stroke-dasharray:9,5!important;stroke-dashoffset:900;animation:dash 20s linear infinite;stroke-linecap:round;}#my-svg .error-icon{fill:#552222;}#my-svg .error-text{fill:#552222;stroke:#552222;}#my-svg .edge-thickness-normal{stroke-width:1px;}#my-svg .edge-thickness-thick{stroke-width:3.5px;}#my-svg .edge-pattern-solid{stroke-dasharray:0;}#my-svg .edge-thickness-invisible{stroke-width:0;fill:none;}#my-svg .edge-pattern-dashed{stroke-dasharray:3;}#my-svg .edge-pattern-dotted{stroke-dasharray:2;}#my-svg .marker{fill:#333333;stroke:#333333;}#my-svg .marker.cross{stroke:#333333;}#my-svg svg{font-family:"trebuchet ms",verdana,arial,sans-serif;font-size:16px;}#my-svg p{margin:0;}#my-svg .commit-id,#my-svg .commit-msg,#my-svg .branch-label{fill:lightgrey;color:lightgrey;font-family:'trebuchet ms',verdana,arial,sans-serif;font-family:var(--mermaid-font-family);}#my-svg .branch-label0{fill:#ffffff;}#my-svg .commit0{stroke:hsl(240, 100%, 46.2745098039%);fill:hsl(240, 100%, 46.2745098039%);}#my-svg .commit-highlight0{stroke:hsl(60, 100%, 3.7254901961%);fill:hsl(60, 100%, 3.7254901961%);}#my-svg .label0{fill:hsl(240, 100%, 46.2745098039%);}#my-svg .arrow0{stroke:hsl(240, 100%, 46.2745098039%);}#my-svg .branch-label1{fill:black;}#my-svg .commit1{stroke:hsl(60, 100%, 43.5294117647%);fill:hsl(60, 100%, 43.5294117647%);}#my-svg .commit-highlight1{stroke:rgb(0, 0, 160.5);fill:rgb(0, 0, 160.5);}#my-svg .label1{fill:hsl(60, 100%, 43.5294117647%);}#my-svg .arrow1{stroke:hsl(60, 100%, 43.5294117647%);}#my-svg .branch-label2{fill:black;}#my-svg .commit2{stroke:hsl(80, 100%, 46.2745098039%);fill:hsl(80, 100%, 46.2745098039%);}#my-svg .commit-highlight2{stroke:rgb(48.8333333334, 0, 146.5000000001);fill:rgb(48.8333333334, 0, 146.5000000001);}#my-svg .label2{fill:hsl(80, 100%, 46.2745098039%);}#my-svg .arrow2{stroke:hsl(80, 100%, 46.2745098039%);}#my-svg .branch-label3{fill:#ffffff;}#my-svg .commit3{stroke:hsl(210, 100%, 46.2745098039%);fill:hsl(210, 100%, 46.2745098039%);}#my-svg .commit-highlight3{stroke:rgb(146.5000000001, 73.2500000001, 0);fill:rgb(146.5000000001, 73.2500000001, 0);}#my-svg .label3{fill:hsl(210, 100%, 46.2745098039%);}#my-svg .arrow3{stroke:hsl(210, 100%, 46.2745098039%);}#my-svg .branch-label4{fill:black;}#my-svg .commit4{stroke:hsl(180, 100%, 46.2745098039%);fill:hsl(180, 100%, 46.2745098039%);}#my-svg .commit-highlight4{stroke:rgb(146.5000000001, 0, 0);fill:rgb(146.5000000001, 0, 0);}#my-svg .label4{fill:hsl(180, 100%, 46.2745098039%);}#my-svg .arrow4{stroke:hsl(180, 100%, 46.2745098039%);}#my-svg .branch-label5{fill:black;}#my-svg .commit5{stroke:hsl(150, 100%, 46.2745098039%);fill:hsl(150, 100%, 46.2745098039%);}#my-svg .commit-highlight5{stroke:rgb(146.5000000001, 0, 73.2500000001);fill:rgb(146.5000000001, 0, 73.2500000001);}#my-svg .label5{fill:hsl(150, 100%, 46.2745098039%);}#my-svg .arrow5{stroke:hsl(150, 100%, 46.2745098039%);}#my-svg .branch-label6{fill:black;}#my-svg .commit6{stroke:hsl(300, 100%, 46.2745098039%);fill:hsl(300, 100%, 46.2745098039%);}#my-svg .commit-highlight6{stroke:rgb(0, 146.5000000001, 0);fill:rgb(0, 146.5000000001, 0);}#my-svg .label6{fill:hsl(300, 100%, 46.2745098039%);}#my-svg .arrow6{stroke:hsl(300, 100%, 46.2745098039%);}#my-svg .branch-label7{fill:black;}#my-svg .commit7{stroke:hsl(0, 100%, 46.2745098039%);fill:hsl(0, 100%, 46.2745098039%);}#my-svg .commit-highlight7{stroke:rgb(0, 146.5000000001, 146.5000000001);fill:rgb(0, 146.5000000001, 146.5000000001);}#my-svg .label7{fill:hsl(0, 100%, 46.2745098039%);}#my-svg .arrow7{stroke:hsl(0, 100%, 46.2745098039%);}#my-svg .branch{stroke-width:1;stroke:#333333;stroke-dasharray:2;}#my-svg .commit-label{font-size:10px;fill:#000021;}#my-svg .commit-label-bkg{font-size:10px;fill:#ffffde;opacity:0.5;}#my-svg .tag-label{font-size:10px;fill:#131300;}#my-svg .tag-label-bkg{fill:#ECECFF;stroke:hsl(240, 60%, 86.2745098039%);}#my-svg .tag-hole{fill:#333;}#my-svg .commit-merge{stroke:#ECECFF;fill:#ECECFF;}#my-svg .commit-reverse{stroke:#ECECFF;fill:#ECECFF;stroke-width:3;}#my-svg .commit-highlight-inner{stroke:#ECECFF;fill:#ECECFF;}#my-svg .arrow{stroke-width:8;stroke-linecap:round;fill:none;}#my-svg .gitTitleText{text-anchor:middle;font-size:18px;fill:#333;}#my-svg :root{--mermaid-font-family:"trebuchet ms",verdana,arial,sans-serif;}</style><g/><g class="commit-bullets"/><g class="commit-labels"/><g><line x1="0" y1="0" x2="600" y2="0" class="branch branch0"/><rect class="branchLabelBkg label0" rx="4" ry="4" x="-69" y="-1.5" width="53" height="23" transform="translate(-19, -9.5)"/><g class="branchLabel"><g class="label branch-label0" transform="translate(-79, -10.5)"><text><tspan xml:space="preserve" dy="1em" x="0" class="row">main</tspan></text></g></g><line x1="0" y1="90" x2="600" y2="90" class="branch branch1"/><rect class="branchLabelBkg label1" rx="4" ry="4" x="-169.546875" y="-1.5" width="153.546875" height="23" transform="translate(-19, 80.5)"/><g class="branchLabel"><g class="label branch-label1" transform="translate(-179.546875, 79.5)"><text><tspan xml:space="preserve" dy="1em" x="0" class="row">feature-blockchain</tspan></text></g></g><line x1="0" y1="180" x2="600" y2="180" class="branch branch2"/><rect class="branchLabelBkg label2" rx="4" ry="4" x="-140.875" y="-1.5" width="124.875" height="23" transform="translate(-19, 170.5)"/><g class="branchLabel"><g class="label branch-label2" transform="translate(-150.875, 169.5)"><text><tspan xml:space="preserve" dy="1em" x="0" class="row">feature-mining</tspan></text></g></g></g><g class="commit-arrows"><path d="M 10 0 L 60 0" class="arrow arrow0"/><path d="M 60 0 L 110 0" class="arrow arrow0"/><path d="M 110 0 L 110 70 A 20 20, 0, 0, 0, 130 90 L 160 90" class="arrow arrow1"/><path d="M 160 90 L 210 90" class="arrow arrow1"/><path d="M 210 90 L 210 160 A 20 20, 0, 0, 0, 230 180 L 260 180" class="arrow arrow2"/><path d="M 260 180 L 310 180" class="arrow arrow2"/><path d="M 210 90 L 360 90" class="arrow arrow1"/><path d="M 310 180 L 340 180 A 20 20, 0, 0, 0, 360 160 L 360 90" class="arrow arrow2"/><path d="M 360 90 L 410 90" class="arrow arrow1"/><path d="M 110 0 L 460 0" class="arrow arrow0"/><path d="M 410 90 L 440 90 A 20 20, 0, 0, 0, 460 70 L 460 0" class="arrow arrow1"/><path d="M 460 0 L 510 0" class="arrow arrow0"/><path d="M 510 0 L 560 0" class="arrow arrow0"/></g><g class="commit-bullets"><circle cx="10" cy="0" r="10" class="commit Initial commit commit0"/><circle cx="60" cy="0" r="10" class="commit Add Block struct commit0"/><circle cx="110" cy="0" r="10" class="commit Add hash calculation commit0"/><circle cx="160" cy="90" r="10" class="commit Add Blockchain struct commit1"/><circle cx="210" cy="90" r="10" class="commit Add verify chain commit1"/><circle cx="260" cy="180" r="10" class="commit Add proof of work commit2"/><circle cx="310" cy="180" r="10" class="commit Add difficulty commit2"/><circle cx="360" cy="90" r="9" class="commit 7-1b7c86a commit1"/><circle cx="360" cy="90" r="6" class="commit commit-merge 7-1b7c86a commit1"/><circle cx="410" cy="90" r="10" class="commit Add CLI interface commit1"/><circle cx="460" cy="0" r="9" class="commit 9-3a75ce7 commit0"/><circle cx="460" cy="0" r="6" class="commit commit-merge 9-3a75ce7 commit0"/><circle cx="510" cy="0" r="10" class="commit Add tests commit0"/><circle cx="560" cy="0" r="10" class="commit Update README commit0"/></g><g class="commit-labels"><g transform="translate(-35.202519531250005, 31.38646484375) rotate(-45, 0, 0)"><rect class="commit-label-bkg" x="-23.45068359375" y="13.5" width="66.9013671875" height="15"/><text x="-21.45068359375" y="25" class="commit-label">Initial commit</text></g><g transform="translate(-39.173222656250005, 34.939199218750005) rotate(-45, 50, 0)"><rect class="commit-label-bkg" x="21.32470703125" y="13.5" width="77.3505859375" height="15"/><text x="23.32470703125" y="25" class="commit-label">Add Block struct</text></g><g transform="translate(-46.533125, 41.524375000000006) rotate(-45, 100, 0)"><rect class="commit-label-bkg" x="61.640625" y="13.5" width="96.71875" height="15"/><text x="63.640625" y="25" class="commit-label">Add hash calculation</text></g><g transform="translate(-48.28728515624999, 43.09388671875) rotate(-45, 150, 90)"><rect class="commit-label-bkg" x="109.33251953125" y="103.5" width="101.3349609375" height="15"/><text x="111.33251953125" y="115" class="commit-label">Add Blockchain struct</text></g><g transform="translate(-38.956875, 34.745625000000004) rotate(-45, 200, 90)"><rect class="commit-label-bkg" x="171.609375" y="103.5" width="76.78125" height="15"/><text x="173.609375" y="115" class="commit-label">Add verify chain</text></g><g transform="translate(-42.354609375, 37.785703125) rotate(-45, 250, 180)"><rect class="commit-label-bkg" x="217.138671875" y="193.5" width="85.72265625" height="15"/><text x="219.138671875" y="205" class="commit-label">Add proof of work</text></g><g transform="translate(-34.498925781249994, 30.75693359375) rotate(-45, 300, 180)"><rect class="commit-label-bkg" x="277.47509765625" y="193.5" width="65.0498046875" height="15"/><text x="279.47509765625" y="205" class="commit-label">Add difficulty</text></g><g transform="translate(-41.09845703125, 36.66177734375) rotate(-45, 400, 90)"><rect class="commit-label-bkg" x="368.79150390625" y="103.5" width="82.4169921875" height="15"/><text x="370.79150390625" y="115" class="commit-label">Add CLI interface</text></g><g transform="translate(-27.087812500000002, 24.1259375) rotate(-45, 500, 0)"><rect class="commit-label-bkg" x="487.2265625" y="13.5" width="45.546875" height="15"/><text x="489.2265625" y="25" class="commit-label">Add tests</text></g><g transform="translate(-38.2740625, 34.1346875) rotate(-45, 550, 0)"><rect class="commit-label-bkg" x="522.5078125" y="13.5" width="74.984375" height="15"/><text x="524.5078125" y="25" class="commit-label">Update README</text></g></g></svg>