<svg id="my-svg" width="100%" xmlns="http://www.w3.org/2000/svg" xmlns:xlink="http://www.w3.org/1999/xlink" class="classDiagram" style="max-width: 550.102px; background-color: white;" viewBox="0 0 550.1015625 740" role="graphics-document document" aria-roledescription="class"><style>#my-svg{font-family:"trebuchet ms",verdana,arial,sans-serif;font-size:16px;fill:#333;}@keyframes edge-animation-frame{from{stroke-dashoffset:0;}}@keyframes dash{to{stroke-dashoffset:0;}}#my-svg .edge-animation-slow{stroke-dasharray:9,5!important;stroke-dashoffset:900;animation:dash 50s linear infinite;stroke-linecap:round;}#my-svg .edge-animation-fast{stroke-dasharray:9,5!important;stroke-dashoffset:900;animation:dash 20s linear infinite;stroke-linecap:round;}#my-svg .error-icon{fill:#552222;}#my-svg .error-text{fill:#552222;stroke:#552222;}#my-svg .edge-thickness-normal{stroke-width:1px;}#my-svg .edge-thickness-thick{stroke-width:3.5px;}#my-svg .edge-pattern-solid{stroke-dasharray:0;}#my-svg .edge-thickness-invisible{stroke-width:0;fill:none;}#my-svg .edge-pattern-dashed{stroke-dasharray:3;}#my-svg .edge-pattern-dotted{stroke-dasharray:2;}#my-svg .marker{fill:#333333;stroke:#333333;}#my-svg .marker.cross{stroke:#333333;}#my-svg svg{font-family:"trebuchet ms",verdana,arial,sans-serif;font-size:16px;}#my-svg p{margin:0;}#my-svg g.classGroup text{fill:#9370DB;stroke:none;font-family:"trebuchet ms",verdana,arial,sans-serif;font-size:10px;}#my-svg g.classGroup text .title{font-weight:bolder;}#my-svg .cluster-label text{fill:#333;}#my-svg .cluster-label span{color:#333;}#my-svg .cluster-label span p{background-color:transparent;}#my-svg .cluster rect{fill:#ffffde;stroke:#aaaa33;stroke-width:1px;}#my-svg .cluster text{fill:#333;}#my-svg .cluster span{color:#333;}#my-svg .nodeLabel,#my-svg .edgeLabel{color:#131300;}#my-svg .edgeLabel .label rect{fill:#ECECFF;}#my-svg .label text{fill:#131300;}#my-svg .labelBkg{background:#ECECFF;}#my-svg .edgeLabel .label span{background:#ECECFF;}#my-svg .classTitle{font-weight:bolder;}#my-svg .node rect,#my-svg .node circle,#my-svg .node ellipse,#my-svg .node polygon,#my-svg .node path{fill:#ECECFF;stroke:#9370DB;stroke-width:1px;}#my-svg .divider{stroke:#9370DB;stroke-width:1;}#my-svg g.clickable{cursor:pointer;}#my-svg g.classGroup rect{fill:#ECECFF;stroke:#9370DB;}#my-svg g.classGroup line{stroke:#9370DB;stroke-width:1;}#my-svg .classLabel .box{stroke:none;stroke-width:0;fill:#ECECFF;opacity:0.5;}#my-svg .classLabel .label{fill:#9370DB;font-size:10px;}#my-svg .relation{stroke:#333333;stroke-width:1;fill:none;}#my-svg .dashed-line{stroke-dasharray:3;}#my-svg .dotted-line{stroke-dasharray:1 2;}#my-svg #compositionStart,#my-svg .composition{fill:#333333!important;stroke:#333333!important;stroke-width:1;}#my-svg #compositionEnd,#my-svg .composition{fill:#333333!important;stroke:#333333!important;stroke-width:1;}#my-svg #dependencyStart,#my-svg .dependency{fill:#333333!important;stroke:#333333!important;stroke-width:1;}#my-svg #dependencyStart,#my-svg .dependency{fill:#333333!important;stroke:#333333!important;stroke-width:1;}#my-svg #extensionStart,#my-svg .extension{fill:transparent!important;stroke:#333333!important;stroke-width:1;}#my-svg #extensionEnd,#my-svg .extension{fill:transparent!important;stroke:#333333!important;stroke-width:1;}#my-svg #aggregationStart,#my-svg .aggregation{fill:transparent!important;stroke:#333333!important;stroke-width:1;}#my-svg #aggregationEnd,#my-svg .aggregation{fill:transparent!important;stroke:#333333!important;stroke-width:1;}#my-svg #lollipopStart,#my-svg .lollipop{fill:#ECECFF!important;stroke:#333333!important;stroke-width:1;}#my-svg #lollipopEnd,#my-svg .lollipop{fill:#ECECFF!important;stroke:#333333!important;stroke-width:1;}#my-svg .edgeTerminals{font-size:11px;line-height:initial;}#my-svg .classTitleText{text-anchor:middle;font-size:18px;fill:#333;}#my-svg .label-icon{display:inline-block;height:1em;overflow:visible;vertical-align:-0.125em;}#my-svg .node .label-icon path{fill:currentColor;stroke:revert;stroke-width:revert;}#my-svg :root{--mermaid-font-family:"trebuchet ms",verdana,arial,sans-serif;}</style><g><defs><marker id="my-svg_class-aggregationStart" class="marker aggregation class" refX="18" refY="7" markerWidth="190" markerHeight="240" orient="auto"><path d="M 18,7 L9,13 L1,7 L9,1 Z"/></marker></defs><defs><marker id="my-svg_class-aggregationEnd" class="marker aggregation class" refX="1" refY="7" markerWidth="20" markerHeight="28" orient="auto"><path d="M 18,7 L9,13 L1,7 L9,1 Z"/></marker></defs><defs><marker id="my-svg_class-extensionStart" class="marker extension class" refX="18" refY="7" markerWidth="190" markerHeight="240" orient="auto"><path d="M 1,7 L18,13 V 1 Z"/></marker></defs><defs><marker id="my-svg_class-extensionEnd" class="marker extension class" refX="1" refY="7" markerWidth="20" markerHeight="28" orient="auto"><path d="M 1,1 V 13 L18,7 Z"/></marker></defs><defs><marker id="my-svg_class-compositionStart" class="marker composition class" refX="18" refY="7" markerWidth="190" markerHeight="240" orient="auto"><path d="M 18,7 L9,13 L1,7 L9,1 Z"/></marker></defs><defs><marker id="my-svg_class-compositionEnd" class="marker composition class" refX="1" refY="7" markerWidth="20" markerHeight="28" orient="auto"><path d="M 18,7 L9,13 L1,7 L9,1 Z"/></marker></defs><defs><marker id="my-svg_class-dependencyStart" class="marker dependency class" refX="6" refY="7" markerWidth="190" markerHeight="240" orient="auto"><path d="M 5,7 L9,13 L1,7 L9,1 Z"/></marker></defs><defs><marker id="my-svg_class-dependencyEnd" class="marker dependency class" refX="13" refY="7" markerWidth="20" markerHeight="28" orient="auto"><path d="M 18,7 L9,13 L14,7 L9,1 Z"/></marker></defs><defs><marker id="my-svg_class-lollipopStart" class="marker lollipop class" refX="13" refY="7" markerWidth="190" markerHeight="240" orient="auto"><circle fill="transparent" cx="7" cy="7" r="6"/></marker></defs><defs><marker id="my-svg_class-lollipopEnd" class="marker lollipop class" refX="1" refY="7" markerWidth="190" markerHeight="240" orient="auto"><circle fill="transparent" cx="7" cy="7" r="6"/></marker></defs><g class="root"><g class="clusters"/><g class="edgePaths"><path d="M133.078,442L133.078,450.167C133.078,458.333,133.078,474.667,141.606,491.302C150.135,507.937,167.192,524.874,175.72,533.342L184.248,541.811" id="id_OrphanRule_TraitObjects_1" class="edge-thickness-normal edge-pattern-solid relation" style=";;;" data-edge="true" data-et="edge" data-id="id_OrphanRule_TraitObjects_1" data-points="W3sieCI6MTMzLjA3ODEyNSwieSI6NDQyfSx7IngiOjEzMy4wNzgxMjUsInkiOjQ5MX0seyJ4IjoxODguNTA1ODU5Mzc1LCJ5Ijo1NDYuMDM4NTIwNjk4MTg3N31d" marker-end="url(#my-svg_class-dependencyEnd)"/><path d="M133.078,176L133.078,182.167C133.078,188.333,133.078,200.667,133.078,212C133.078,223.333,133.078,233.667,133.078,238.833L133.078,244" id="id_SealedTraits_OrphanRule_2" class="edge-thickness-normal edge-pattern-solid relation" style=";;;" data-edge="true" data-et="edge" data-id="id_SealedTraits_OrphanRule_2" data-points="W3sieCI6MTMzLjA3ODEyNSwieSI6MTc2fSx7IngiOjEzMy4wNzgxMjUsInkiOjIxM30seyJ4IjoxMzMuMDc4MTI1LCJ5IjoyNTB9XQ==" marker-end="url(#my-svg_class-dependencyEnd)"/><path d="M425.129,442L425.129,450.167C425.129,458.333,425.129,474.667,416.601,491.302C408.072,507.937,391.015,524.874,382.487,533.342L373.959,541.811" id="id_OperatorOverloading_TraitObjects_3" class="edge-thickness-normal edge-pattern-solid relation" style=";;;" data-edge="true" data-et="edge" data-id="id_OperatorOverloading_TraitObjects_3" data-points="W3sieCI6NDI1LjEyODkwNjI1LCJ5Ijo0NDJ9LHsieCI6NDI1LjEyODkwNjI1LCJ5Ijo0OTF9LHsieCI6MzY5LjcwMTE3MTg3NSwieSI6NTQ2LjAzODUyMDY5ODE4Nzd9XQ==" marker-end="url(#my-svg_class-dependencyEnd)"/></g><g class="edgeLabels"><g class="edgeLabel" transform="translate(133.078125, 491)"><g class="label" data-id="id_OrphanRule_TraitObjects_1" transform="translate(-100, -24)"><foreignObject width="200" height="48"><div xmlns="http://www.w3.org/1999/xhtml" class="labelBkg" style="display: table; white-space: break-spaces; line-height: 1.5; max-width: 200px; text-align: center; width: 200px;"><span class="edgeLabel"><p>Workaround for foreign types</p></span></div></foreignObject></g></g><g class="edgeLabel" transform="translate(133.078125, 213)"><g class="label" data-id="id_SealedTraits_OrphanRule_2" transform="translate(-99.4140625, -12)"><foreignObject width="198.828125" height="24"><div xmlns="http://www.w3.org/1999/xhtml" class="labelBkg" style="display: table-cell; white-space: nowrap; line-height: 1.5; max-width: 200px; text-align: center;"><span class="edgeLabel"><p>Control who can implement</p></span></div></foreignObject></g></g><g class="edgeLabel" transform="translate(425.12890625, 491)"><g class="label" data-id="id_OperatorOverloading_TraitObjects_3" transform="translate(-69.1875, -12)"><foreignObject width="138.375" height="24"><div xmlns="http://www.w3.org/1999/xhtml" class="labelBkg" style="display: table-cell; white-space: nowrap; line-height: 1.5; max-width: 200px; text-align: center;"><span class="edgeLabel"><p>Traits for operators</p></span></div></foreignObject></g></g></g><g class="nodes"><g class="node default" id="classId-OrphanRule-0" transform="translate(133.078125, 346)"><g class="basic label-container"><path d="M-125.078125 -96 L125.078125 -96 L125.078125 96 L-125.078125 96" stroke="none" stroke-width="0" fill="#ECECFF" style=""/><path d="M-125.078125 -96 C-71.65976597097284 -96, -18.241406941945698 -96, 125.078125 -96 M-125.078125 -96 C-57.72398654905204 -96, 9.630151901895914 -96, 125.078125 -96 M125.078125 -96 C125.078125 -24.221049117730843, 125.078125 47.557901764538315, 125.078125 96 M125.078125 -96 C125.078125 -50.10667302776375, 125.078125 -4.213346055527495, 125.078125 96 M125.078125 96 C30.389105601394547 96, -64.2999137972109 96, -125.078125 96 M125.078125 96 C61.15879900552024 96, -2.7605269889595263 96, -125.078125 96 M-125.078125 96 C-125.078125 20.321170493879364, -125.078125 -55.35765901224127, -125.078125 -96 M-125.078125 96 C-125.078125 51.75717995457702, -125.078125 7.514359909154038, -125.078125 -96" stroke="#9370DB" stroke-width="1.3" fill="none" stroke-dasharray="0 0" style=""/></g><g class="annotation-group text" transform="translate(0, -72)"/><g class="label-group text" transform="translate(-44, -72)"><g class="label" style="font-weight: bolder" transform="translate(0,-12)"><foreignObject width="88" height="24"><div xmlns="http://www.w3.org/1999/xhtml" style="display: table-cell; white-space: nowrap; line-height: 1.5; max-width: 128px; text-align: center;"><span class="nodeLabel markdown-node-label" style=""><p>OrphanRule</p></span></div></foreignObject></g></g><g class="members-group text" transform="translate(-113.078125, -24)"><g class="label" style="" transform="translate(0,-12)"><foreignObject width="182.15625" height="24"><div xmlns="http://www.w3.org/1999/xhtml" style="display: table-cell; white-space: nowrap; line-height: 1.5; max-width: 213px; text-align: center;"><span class="nodeLabel markdown-node-label" style=""><p>Implement for your types</p></span></div></foreignObject></g><g class="label" style="" transform="translate(0,12)"><foreignObject width="138.875" height="24"><div xmlns="http://www.w3.org/1999/xhtml" style="display: table-cell; white-space: nowrap; line-height: 1.5; max-width: 173px; text-align: center;"><span class="nodeLabel markdown-node-label" style=""><p>Foreign crate types</p></span></div></foreignObject></g><g class="label" style="" transform="translate(0,36)"><foreignObject width="121.234375" height="24"><div xmlns="http://www.w3.org/1999/xhtml" style="display: table-cell; white-space: nowrap; line-height: 1.5; max-width: 157px; text-align: center;"><span class="nodeLabel markdown-node-label" style=""><p>Newtype pattern</p></span></div></foreignObject></g><g class="label" style="" transform="translate(0,60)"><foreignObject width="103.40625" height="24"><div xmlns="http://www.w3.org/1999/xhtml" style="display: table-cell; white-space: nowrap; line-height: 1.5; max-width: 143px; text-align: center;"><span class="nodeLabel markdown-node-label" style=""><p>Wrapper types</p></span></div></foreignObject></g></g><g class="methods-group text" transform="translate(-113.078125, 96)"/><g class="divider" style=""><path d="M-125.078125 -48 C-53.00735632983047 -48, 19.063412340339056 -48, 125.078125 -48 M-125.078125 -48 C-33.259328742345474 -48, 58.55946751530905 -48, 125.078125 -48" stroke="#9370DB" stroke-width="1.3" fill="none" stroke-dasharray="0 0" style=""/></g><g class="divider" style=""><path d="M-125.078125 72 C-38.80113728823426 72, 47.47585042353148 72, 125.078125 72 M-125.078125 72 C-68.56695618617269 72, -12.055787372345378 72, 125.078125 72" stroke="#9370DB" stroke-width="1.3" fill="none" stroke-dasharray="0 0" style=""/></g></g><g class="node default" id="classId-TraitObjects-1" transform="translate(279.103515625, 636)"><g class="basic label-container"><path d="M-90.59765625 -96 L90.59765625 -96 L90.59765625 96 L-90.59765625 96" stroke="none" stroke-width="0" fill="#ECECFF" style=""/><path d="M-90.59765625 -96 C-52.50320536437367 -96, -14.40875447874734 -96, 90.59765625 -96 M-90.59765625 -96 C-52.41559079771573 -96, -14.23352534543146 -96, 90.59765625 -96 M90.59765625 -96 C90.59765625 -20.487787462898922, 90.59765625 55.024425074202156, 90.59765625 96 M90.59765625 -96 C90.59765625 -45.81216776155742, 90.59765625 4.375664476885163, 90.59765625 96 M90.59765625 96 C39.397653290868995 96, -11.80234966826201 96, -90.59765625 96 M90.59765625 96 C50.59724576096062 96, 10.596835271921236 96, -90.59765625 96 M-90.59765625 96 C-90.59765625 43.96291140083986, -90.59765625 -8.074177198320285, -90.59765625 -96 M-90.59765625 96 C-90.59765625 29.248710811675124, -90.59765625 -37.50257837664975, -90.59765625 -96" stroke="#9370DB" stroke-width="1.3" fill="none" stroke-dasharray="0 0" style=""/></g><g class="annotation-group text" transform="translate(0, -72)"/><g class="label-group text" transform="translate(-45.5859375, -72)"><g class="label" style="font-weight: bolder" transform="translate(0,-12)"><foreignObject width="91.171875" height="24"><div xmlns="http://www.w3.org/1999/xhtml" style="display: table-cell; white-space: nowrap; line-height: 1.5; max-width: 129px; text-align: center;"><span class="nodeLabel markdown-node-label" style=""><p>TraitObjects</p></span></div></foreignObject></g></g><g class="members-group text" transform="translate(-78.59765625, -24)"><g class="label" style="" transform="translate(0,-12)"><foreignObject width="105.578125" height="24"><div xmlns="http://www.w3.org/1999/xhtml" style="display: table-cell; white-space: nowrap; line-height: 1.5; max-width: 190px; text-align: center;"><span class="nodeLabel markdown-node-label" style=""><p>Box&lt;dyn Trait&gt;</p></span></div></foreignObject></g><g class="label" style="" transform="translate(0,12)"><foreignObject width="74.4375" height="24"><div xmlns="http://www.w3.org/1999/xhtml" style="display: table-cell; white-space: nowrap; line-height: 1.5; max-width: 121px; text-align: center;"><span class="nodeLabel markdown-node-label" style=""><p>&amp;dyn Trait</p></span></div></foreignObject></g><g class="label" style="" transform="translate(0,36)"><foreignObject width="97.15625" height="24"><div xmlns="http://www.w3.org/1999/xhtml" style="display: table-cell; white-space: nowrap; line-height: 1.5; max-width: 181px; text-align: center;"><span class="nodeLabel markdown-node-label" style=""><p>Rc&lt;dyn Trait&gt;</p></span></div></foreignObject></g><g class="label" style="" transform="translate(0,60)"><foreignObject width="111.609375" height="24"><div xmlns="http://www.w3.org/1999/xhtml" style="display: table-cell; white-space: nowrap; line-height: 1.5; max-width: 150px; text-align: center;"><span class="nodeLabel markdown-node-label" style=""><p>Vtable dispatch</p></span></div></foreignObject></g></g><g class="methods-group text" transform="translate(-78.59765625, 96)"/><g class="divider" style=""><path d="M-90.59765625 -48 C-22.266264120894377 -48, 46.065128008211246 -48, 90.59765625 -48 M-90.59765625 -48 C-52.16245960226882 -48, -13.727262954537636 -48, 90.59765625 -48" stroke="#9370DB" stroke-width="1.3" fill="none" stroke-dasharray="0 0" style=""/></g><g class="divider" style=""><path d="M-90.59765625 72 C-26.645150008038208 72, 37.307356233923585 72, 90.59765625 72 M-90.59765625 72 C-45.0052783992454 72, 0.5870994515092036 72, 90.59765625 72" stroke="#9370DB" stroke-width="1.3" fill="none" stroke-dasharray="0 0" style=""/></g></g><g class="node default" id="classId-SealedTraits-2" transform="translate(133.078125, 92)"><g class="basic label-container"><path d="M-97.5546875 -84 L97.5546875 -84 L97.5546875 84 L-97.5546875 84" stroke="none" stroke-width="0" fill="#ECECFF" style=""/><path d="M-97.5546875 -84 C-39.95504324303032 -84, 17.644601013939365 -84, 97.5546875 -84 M-97.5546875 -84 C-30.02332376173389 -84, 37.50803997653222 -84, 97.5546875 -84 M97.5546875 -84 C97.5546875 -25.613171268171342, 97.5546875 32.773657463657315, 97.5546875 84 M97.5546875 -84 C97.5546875 -17.667025737899877, 97.5546875 48.665948524200246, 97.5546875 84 M97.5546875 84 C51.66266544495722 84, 5.77064338991444 84, -97.5546875 84 M97.5546875 84 C55.943787415445215 84, 14.33288733089043 84, -97.5546875 84 M-97.5546875 84 C-97.5546875 49.52670368523068, -97.5546875 15.053407370461358, -97.5546875 -84 M-97.5546875 84 C-97.5546875 19.479148595884425, -97.5546875 -45.04170280823115, -97.5546875 -84" stroke="#9370DB" stroke-width="1.3" fill="none" stroke-dasharray="0 0" style=""/></g><g class="annotation-group text" transform="translate(0, -60)"/><g class="label-group text" transform="translate(-45.0625, -60)"><g class="label" style="font-weight: bolder" transform="translate(0,-12)"><foreignObject width="90.125" height="24"><div xmlns="http://www.w3.org/1999/xhtml" style="display: table-cell; white-space: nowrap; line-height: 1.5; max-width: 129px; text-align: center;"><span class="nodeLabel markdown-node-label" style=""><p>SealedTraits</p></span></div></foreignObject></g></g><g class="members-group text" transform="translate(-85.5546875, -12)"><g class="label" style="" transform="translate(0,-12)"><foreignObject width="126.046875" height="24"><div xmlns="http://www.w3.org/1999/xhtml" style="display: table-cell; white-space: nowrap; line-height: 1.5; max-width: 160px; text-align: center;"><span class="nodeLabel markdown-node-label" style=""><p>Private supertrait</p></span></div></foreignObject></g><g class="label" style="" transform="translate(0,12)"><foreignObject width="91.0625" height="24"><div xmlns="http://www.w3.org/1999/xhtml" style="display: table-cell; white-space: nowrap; line-height: 1.5; max-width: 133px; text-align: center;"><span class="nodeLabel markdown-node-label" style=""><p>Prevent impl</p></span></div></foreignObject></g><g class="label" style="" transform="translate(0,36)"><foreignObject width="79.515625" height="24"><div xmlns="http://www.w3.org/1999/xhtml" style="display: table-cell; white-space: nowrap; line-height: 1.5; max-width: 128px; text-align: center;"><span class="nodeLabel markdown-node-label" style=""><p>Control API</p></span></div></foreignObject></g></g><g class="methods-group text" transform="translate(-85.5546875, 84)"/><g class="divider" style=""><path d="M-97.5546875 -36 C-32.57364065802754 -36, 32.407406183944914 -36, 97.5546875 -36 M-97.5546875 -36 C-25.2738845167664 -36, 47.0069184664672 -36, 97.5546875 -36" stroke="#9370DB" stroke-width="1.3" fill="none" stroke-dasharray="0 0" style=""/></g><g class="divider" style=""><path d="M-97.5546875 60 C-25.95686040222482 60, 45.64096669555036 60, 97.5546875 60 M-97.5546875 60 C-36.751828103398836 60, 24.05103129320233 60, 97.5546875 60" stroke="#9370DB" stroke-width="1.3" fill="none" stroke-dasharray="0 0" style=""/></g></g><g class="node default" id="classId-OperatorOverloading-3" transform="translate(425.12890625, 346)"><g class="basic label-container"><path d="M-116.97265625 -96 L116.97265625 -96 L116.97265625 96 L-116.97265625 96" stroke="none" stroke-width="0" fill="#ECECFF" style=""/><path d="M-116.97265625 -96 C-48.35081270464613 -96, 20.271030840707738 -96, 116.97265625 -96 M-116.97265625 -96 C-63.09995824519506 -96, -9.227260240390123 -96, 116.97265625 -96 M116.97265625 -96 C116.97265625 -43.9087019864479, 116.97265625 8.182596027104196, 116.97265625 96 M116.97265625 -96 C116.97265625 -53.962513910990516, 116.97265625 -11.925027821981033, 116.97265625 96 M116.97265625 96 C42.05398785461435 96, -32.8646805407713 96, -116.97265625 96 M116.97265625 96 C39.32574964590978 96, -38.32115695818044 96, -116.97265625 96 M-116.97265625 96 C-116.97265625 33.77405277525982, -116.97265625 -28.451894449480363, -116.97265625 -96 M-116.97265625 96 C-116.97265625 29.67042802253178, -116.97265625 -36.65914395493644, -116.97265625 -96" stroke="#9370DB" stroke-width="1.3" fill="none" stroke-dasharray="0 0" style=""/></g><g class="annotation-group text" transform="translate(0, -72)"/><g class="label-group text" transform="translate(-78.2109375, -72)"><g class="label" style="font-weight: bolder" transform="translate(0,-12)"><foreignObject width="156.421875" height="24"><div xmlns="http://www.w3.org/1999/xhtml" style="display: table-cell; white-space: nowrap; line-height: 1.5; max-width: 187px; text-align: center;"><span class="nodeLabel markdown-node-label" style=""><p>OperatorOverloading</p></span></div></foreignObject></g></g><g class="members-group text" transform="translate(-104.97265625, -24)"><g class="label" style="" transform="translate(0,-12)"><foreignObject width="131.734375" height="24"><div xmlns="http://www.w3.org/1999/xhtml" style="display: table-cell; white-space: nowrap; line-height: 1.5; max-width: 177px; text-align: center;"><span class="nodeLabel markdown-node-label" style=""><p>Add, Sub, Mul, Div</p></span></div></foreignObject></g><g class="label" style="" transform="translate(0,12)"><foreignObject width="92.5" height="24"><div xmlns="http://www.w3.org/1999/xhtml" style="display: table-cell; white-space: nowrap; line-height: 1.5; max-width: 135px; text-align: center;"><span class="nodeLabel markdown-node-label" style=""><p>PartialEq, Eq</p></span></div></foreignObject></g><g class="label" style="" transform="translate(0,36)"><foreignObject width="109.359375" height="24"><div xmlns="http://www.w3.org/1999/xhtml" style="display: table-cell; white-space: nowrap; line-height: 1.5; max-width: 151px; text-align: center;"><span class="nodeLabel markdown-node-label" style=""><p>PartialOrd, Ord</p></span></div></foreignObject></g><g class="label" style="" transform="translate(0,60)"><foreignObject width="103.75" height="24"><div xmlns="http://www.w3.org/1999/xhtml" style="display: table-cell; white-space: nowrap; line-height: 1.5; max-width: 149px; text-align: center;"><span class="nodeLabel markdown-node-label" style=""><p>Display, Debug</p></span></div></foreignObject></g></g><g class="methods-group text" transform="translate(-104.97265625, 96)"/><g class="divider" style=""><path d="M-116.97265625 -48 C-47.567164318983444 -48, 21.838327612033112 -48, 116.97265625 -48 M-116.97265625 -48 C-37.610805867925635 -48, 41.75104451414873 -48, 116.97265625 -48" stroke="#9370DB" stroke-width="1.3" fill="none" stroke-dasharray="0 0" style=""/></g><g class="divider" style=""><path d="M-116.97265625 72 C-68.91860151543858 72, -20.864546780877163 72, 116.97265625 72 M-116.97265625 72 C-42.58937464835917 72, 31.793906953281663 72, 116.97265625 72" stroke="#9370DB" stroke-width="1.3" fill="none" stroke-dasharray="0 0" style=""/></g></g></g></g></g></svg>