<svg id="my-svg" width="100%" xmlns="http://www.w3.org/2000/svg" xmlns:xlink="http://www.w3.org/1999/xlink" class="classDiagram" style="max-width: 786.008px; background-color: white;" viewBox="0 0 786.0078125 716" role="graphics-document document" aria-roledescription="class"><style>#my-svg{font-family:"trebuchet ms",verdana,arial,sans-serif;font-size:16px;fill:#333;}@keyframes edge-animation-frame{from{stroke-dashoffset:0;}}@keyframes dash{to{stroke-dashoffset:0;}}#my-svg .edge-animation-slow{stroke-dasharray:9,5!important;stroke-dashoffset:900;animation:dash 50s linear infinite;stroke-linecap:round;}#my-svg .edge-animation-fast{stroke-dasharray:9,5!important;stroke-dashoffset:900;animation:dash 20s linear infinite;stroke-linecap:round;}#my-svg .error-icon{fill:#552222;}#my-svg .error-text{fill:#552222;stroke:#552222;}#my-svg .edge-thickness-normal{stroke-width:1px;}#my-svg .edge-thickness-thick{stroke-width:3.5px;}#my-svg .edge-pattern-solid{stroke-dasharray:0;}#my-svg .edge-thickness-invisible{stroke-width:0;fill:none;}#my-svg .edge-pattern-dashed{stroke-dasharray:3;}#my-svg .edge-pattern-dotted{stroke-dasharray:2;}#my-svg .marker{fill:#333333;stroke:#333333;}#my-svg .marker.cross{stroke:#333333;}#my-svg svg{font-family:"trebuchet ms",verdana,arial,sans-serif;font-size:16px;}#my-svg p{margin:0;}#my-svg g.classGroup text{fill:#9370DB;stroke:none;font-family:"trebuchet ms",verdana,arial,sans-serif;font-size:10px;}#my-svg g.classGroup text .title{font-weight:bolder;}#my-svg .cluster-label text{fill:#333;}#my-svg .cluster-label span{color:#333;}#my-svg .cluster-label span p{background-color:transparent;}#my-svg .cluster rect{fill:#ffffde;stroke:#aaaa33;stroke-width:1px;}#my-svg .cluster text{fill:#333;}#my-svg .cluster span{color:#333;}#my-svg .nodeLabel,#my-svg .edgeLabel{color:#131300;}#my-svg .edgeLabel .label rect{fill:#ECECFF;}#my-svg .label text{fill:#131300;}#my-svg .labelBkg{background:#ECECFF;}#my-svg .edgeLabel .label span{background:#ECECFF;}#my-svg .classTitle{font-weight:bolder;}#my-svg .node rect,#my-svg .node circle,#my-svg .node ellipse,#my-svg .node polygon,#my-svg .node path{fill:#ECECFF;stroke:#9370DB;stroke-width:1px;}#my-svg .divider{stroke:#9370DB;stroke-width:1;}#my-svg g.clickable{cursor:pointer;}#my-svg g.classGroup rect{fill:#ECECFF;stroke:#9370DB;}#my-svg g.classGroup line{stroke:#9370DB;stroke-width:1;}#my-svg .classLabel .box{stroke:none;stroke-width:0;fill:#ECECFF;opacity:0.5;}#my-svg .classLabel .label{fill:#9370DB;font-size:10px;}#my-svg .relation{stroke:#333333;stroke-width:1;fill:none;}#my-svg .dashed-line{stroke-dasharray:3;}#my-svg .dotted-line{stroke-dasharray:1 2;}#my-svg #compositionStart,#my-svg .composition{fill:#333333!important;stroke:#333333!important;stroke-width:1;}#my-svg #compositionEnd,#my-svg .composition{fill:#333333!important;stroke:#333333!important;stroke-width:1;}#my-svg #dependencyStart,#my-svg .dependency{fill:#333333!important;stroke:#333333!important;stroke-width:1;}#my-svg #dependencyStart,#my-svg .dependency{fill:#333333!important;stroke:#333333!important;stroke-width:1;}#my-svg #extensionStart,#my-svg .extension{fill:transparent!important;stroke:#333333!important;stroke-width:1;}#my-svg #extensionEnd,#my-svg .extension{fill:transparent!important;stroke:#333333!important;stroke-width:1;}#my-svg #aggregationStart,#my-svg .aggregation{fill:transparent!important;stroke:#333333!important;stroke-width:1;}#my-svg #aggregationEnd,#my-svg .aggregation{fill:transparent!important;stroke:#333333!important;stroke-width:1;}#my-svg #lollipopStart,#my-svg .lollipop{fill:#ECECFF!important;stroke:#333333!important;stroke-width:1;}#my-svg #lollipopEnd,#my-svg .lollipop{fill:#ECECFF!important;stroke:#333333!important;stroke-width:1;}#my-svg .edgeTerminals{font-size:11px;line-height:initial;}#my-svg .classTitleText{text-anchor:middle;font-size:18px;fill:#333;}#my-svg .label-icon{display:inline-block;height:1em;overflow:visible;vertical-align:-0.125em;}#my-svg .node .label-icon path{fill:currentColor;stroke:revert;stroke-width:revert;}#my-svg :root{--mermaid-font-family:"trebuchet ms",verdana,arial,sans-serif;}</style><g><defs><marker id="my-svg_class-aggregationStart" class="marker aggregation class" refX="18" refY="7" markerWidth="190" markerHeight="240" orient="auto"><path d="M 18,7 L9,13 L1,7 L9,1 Z"/></marker></defs><defs><marker id="my-svg_class-aggregationEnd" class="marker aggregation class" refX="1" refY="7" markerWidth="20" markerHeight="28" orient="auto"><path d="M 18,7 L9,13 L1,7 L9,1 Z"/></marker></defs><defs><marker id="my-svg_class-extensionStart" class="marker extension class" refX="18" refY="7" markerWidth="190" markerHeight="240" orient="auto"><path d="M 1,7 L18,13 V 1 Z"/></marker></defs><defs><marker id="my-svg_class-extensionEnd" class="marker extension class" refX="1" refY="7" markerWidth="20" markerHeight="28" orient="auto"><path d="M 1,1 V 13 L18,7 Z"/></marker></defs><defs><marker id="my-svg_class-compositionStart" class="marker composition class" refX="18" refY="7" markerWidth="190" markerHeight="240" orient="auto"><path d="M 18,7 L9,13 L1,7 L9,1 Z"/></marker></defs><defs><marker id="my-svg_class-compositionEnd" class="marker composition class" refX="1" refY="7" markerWidth="20" markerHeight="28" orient="auto"><path d="M 18,7 L9,13 L1,7 L9,1 Z"/></marker></defs><defs><marker id="my-svg_class-dependencyStart" class="marker dependency class" refX="6" refY="7" markerWidth="190" markerHeight="240" orient="auto"><path d="M 5,7 L9,13 L1,7 L9,1 Z"/></marker></defs><defs><marker id="my-svg_class-dependencyEnd" class="marker dependency class" refX="13" refY="7" markerWidth="20" markerHeight="28" orient="auto"><path d="M 18,7 L9,13 L14,7 L9,1 Z"/></marker></defs><defs><marker id="my-svg_class-lollipopStart" class="marker lollipop class" refX="13" refY="7" markerWidth="190" markerHeight="240" orient="auto"><circle fill="transparent" cx="7" cy="7" r="6"/></marker></defs><defs><marker id="my-svg_class-lollipopEnd" class="marker lollipop class" refX="1" refY="7" markerWidth="190" markerHeight="240" orient="auto"><circle fill="transparent" cx="7" cy="7" r="6"/></marker></defs><g class="root"><g class="clusters"/><g class="edgePaths"><path d="M103.652,442L103.652,448.167C103.652,454.333,103.652,466.667,103.652,478C103.652,489.333,103.652,499.667,103.652,504.833L103.652,510" id="id_LifetimeAnnotations_LifetimeElision_1" class="edge-thickness-normal edge-pattern-solid relation" style=";;;" data-edge="true" data-et="edge" data-id="id_LifetimeAnnotations_LifetimeElision_1" data-points="W3sieCI6MTAzLjY1MjM0Mzc1LCJ5Ijo0NDJ9LHsieCI6MTAzLjY1MjM0Mzc1LCJ5Ijo0Nzl9LHsieCI6MTAzLjY1MjM0Mzc1LCJ5Ijo1MTZ9XQ==" marker-end="url(#my-svg_class-dependencyEnd)"/><path d="M103.652,176L103.652,182.167C103.652,188.333,103.652,200.667,103.652,212C103.652,223.333,103.652,233.667,103.652,238.833L103.652,244" id="id_LifetimeBounds_LifetimeAnnotations_2" class="edge-thickness-normal edge-pattern-solid relation" style=";;;" data-edge="true" data-et="edge" data-id="id_LifetimeBounds_LifetimeAnnotations_2" data-points="W3sieCI6MTAzLjY1MjM0Mzc1LCJ5IjoxNzZ9LHsieCI6MTAzLjY1MjM0Mzc1LCJ5IjoyMTN9LHsieCI6MTAzLjY1MjM0Mzc1LCJ5IjoyNTB9XQ==" marker-end="url(#my-svg_class-dependencyEnd)"/></g><g class="edgeLabels"><g class="edgeLabel" transform="translate(103.65234375, 479)"><g class="label" data-id="id_LifetimeAnnotations_LifetimeElision_1" transform="translate(-68.796875, -12)"><foreignObject width="137.59375" height="24"><div xmlns="http://www.w3.org/1999/xhtml" class="labelBkg" style="display: table-cell; white-space: nowrap; line-height: 1.5; max-width: 200px; text-align: center;"><span class="edgeLabel"><p>Compiler simplifies</p></span></div></foreignObject></g></g><g class="edgeLabel" transform="translate(103.65234375, 213)"><g class="label" data-id="id_LifetimeBounds_LifetimeAnnotations_2" transform="translate(-71.1328125, -12)"><foreignObject width="142.265625" height="24"><div xmlns="http://www.w3.org/1999/xhtml" class="labelBkg" style="display: table-cell; white-space: nowrap; line-height: 1.5; max-width: 200px; text-align: center;"><span class="edgeLabel"><p>Constrains lifetimes</p></span></div></foreignObject></g></g></g><g class="nodes"><g class="node default" id="classId-LifetimeAnnotations-0" transform="translate(103.65234375, 346)"><g class="basic label-container"><path d="M-95.2578125 -96 L95.2578125 -96 L95.2578125 96 L-95.2578125 96" stroke="none" stroke-width="0" fill="#ECECFF" style=""/><path d="M-95.2578125 -96 C-44.807856100986605 -96, 5.64210029802679 -96, 95.2578125 -96 M-95.2578125 -96 C-22.562320355767284 -96, 50.13317178846543 -96, 95.2578125 -96 M95.2578125 -96 C95.2578125 -20.293091669131343, 95.2578125 55.413816661737314, 95.2578125 96 M95.2578125 -96 C95.2578125 -27.823620030517873, 95.2578125 40.352759938964255, 95.2578125 96 M95.2578125 96 C40.771336075787495 96, -13.71514034842501 96, -95.2578125 96 M95.2578125 96 C26.382123735424003 96, -42.493565029151995 96, -95.2578125 96 M-95.2578125 96 C-95.2578125 55.38153742891404, -95.2578125 14.763074857828073, -95.2578125 -96 M-95.2578125 96 C-95.2578125 35.74094652639723, -95.2578125 -24.51810694720554, -95.2578125 -96" stroke="#9370DB" stroke-width="1.3" fill="none" stroke-dasharray="0 0" style=""/></g><g class="annotation-group text" transform="translate(0, -72)"/><g class="label-group text" transform="translate(-76.125, -72)"><g class="label" style="font-weight: bolder" transform="translate(0,-12)"><foreignObject width="152.25" height="24"><div xmlns="http://www.w3.org/1999/xhtml" style="display: table-cell; white-space: nowrap; line-height: 1.5; max-width: 183px; text-align: center;"><span class="nodeLabel markdown-node-label" style=""><p>LifetimeAnnotations</p></span></div></foreignObject></g></g><g class="members-group text" transform="translate(-83.2578125, -24)"><g class="label" style="" transform="translate(0,-12)"><foreignObject width="36.078125" height="24"><div xmlns="http://www.w3.org/1999/xhtml" style="display: table-cell; white-space: nowrap; line-height: 1.5; max-width: 86px; text-align: center;"><span class="nodeLabel markdown-node-label" style=""><p>&amp;'a T</p></span></div></foreignObject></g><g class="label" style="" transform="translate(0,12)"><foreignObject width="69.265625" height="24"><div xmlns="http://www.w3.org/1999/xhtml" style="display: table-cell; white-space: nowrap; line-height: 1.5; max-width: 115px; text-align: center;"><span class="nodeLabel markdown-node-label" style=""><p>&amp;'a mut T</p></span></div></foreignObject></g><g class="label" style="" transform="translate(0,36)"><foreignObject width="71.015625" height="24"><div xmlns="http://www.w3.org/1999/xhtml" style="display: table-cell; white-space: nowrap; line-height: 1.5; max-width: 153px; text-align: center;"><span class="nodeLabel markdown-node-label" style=""><p>Struct&lt;'a&gt;</p></span></div></foreignObject></g></g><g class="methods-group text" transform="translate(-83.2578125, 72)"><g class="label" style="" transform="translate(0,-12)"><foreignObject width="90.390625" height="24"><div xmlns="http://www.w3.org/1999/xhtml" style="display: table-cell; white-space: nowrap; line-height: 1.5; max-width: 135px; text-align: center;"><span class="nodeLabel markdown-node-label" style=""><p>fn foo(&amp;'a T)</p></span></div></foreignObject></g></g><g class="divider" style=""><path d="M-95.2578125 -48 C-30.712075956847286 -48, 33.83366058630543 -48, 95.2578125 -48 M-95.2578125 -48 C-41.82169216949537 -48, 11.614428161009258 -48, 95.2578125 -48" stroke="#9370DB" stroke-width="1.3" fill="none" stroke-dasharray="0 0" style=""/></g><g class="divider" style=""><path d="M-95.2578125 48 C-52.02365011297886 48, -8.789487725957727 48, 95.2578125 48 M-95.2578125 48 C-25.724767029662857 48, 43.808278440674286 48, 95.2578125 48" stroke="#9370DB" stroke-width="1.3" fill="none" stroke-dasharray="0 0" style=""/></g></g><g class="node default" id="classId-LifetimeElision-1" transform="translate(103.65234375, 612)"><g class="basic label-container"><path d="M-95.65234375 -96 L95.65234375 -96 L95.65234375 96 L-95.65234375 96" stroke="none" stroke-width="0" fill="#ECECFF" style=""/><path d="M-95.65234375 -96 C-41.34147822587506 -96, 12.969387298249885 -96, 95.65234375 -96 M-95.65234375 -96 C-56.66028709453567 -96, -17.668230439071337 -96, 95.65234375 -96 M95.65234375 -96 C95.65234375 -31.628551595698866, 95.65234375 32.74289680860227, 95.65234375 96 M95.65234375 -96 C95.65234375 -44.70451416639345, 95.65234375 6.590971667213097, 95.65234375 96 M95.65234375 96 C41.75403800827586 96, -12.144267733448274 96, -95.65234375 96 M95.65234375 96 C51.53140159445605 96, 7.410459438912099 96, -95.65234375 96 M-95.65234375 96 C-95.65234375 43.17338819465941, -95.65234375 -9.65322361068118, -95.65234375 -96 M-95.65234375 96 C-95.65234375 45.55427977109143, -95.65234375 -4.89144045781714, -95.65234375 -96" stroke="#9370DB" stroke-width="1.3" fill="none" stroke-dasharray="0 0" style=""/></g><g class="annotation-group text" transform="translate(0, -72)"/><g class="label-group text" transform="translate(-55.7734375, -72)"><g class="label" style="font-weight: bolder" transform="translate(0,-12)"><foreignObject width="111.546875" height="24"><div xmlns="http://www.w3.org/1999/xhtml" style="display: table-cell; white-space: nowrap; line-height: 1.5; max-width: 150px; text-align: center;"><span class="nodeLabel markdown-node-label" style=""><p>LifetimeElision</p></span></div></foreignObject></g></g><g class="members-group text" transform="translate(-83.65234375, -24)"><g class="label" style="" transform="translate(0,-12)"><foreignObject width="98.859375" height="24"><div xmlns="http://www.w3.org/1999/xhtml" style="display: table-cell; white-space: nowrap; line-height: 1.5; max-width: 138px; text-align: center;"><span class="nodeLabel markdown-node-label" style=""><p>Input lifetime</p></span></div></foreignObject></g><g class="label" style="" transform="translate(0,12)"><foreignObject width="111.53125" height="24"><div xmlns="http://www.w3.org/1999/xhtml" style="display: table-cell; white-space: nowrap; line-height: 1.5; max-width: 148px; text-align: center;"><span class="nodeLabel markdown-node-label" style=""><p>Output lifetime</p></span></div></foreignObject></g><g class="label" style="" transform="translate(0,36)"><foreignObject width="88.71875" height="24"><div xmlns="http://www.w3.org/1999/xhtml" style="display: table-cell; white-space: nowrap; line-height: 1.5; max-width: 130px; text-align: center;"><span class="nodeLabel markdown-node-label" style=""><p>Self lifetime</p></span></div></foreignObject></g><g class="label" style="" transform="translate(0,60)"><foreignObject width="110.046875" height="24"><div xmlns="http://www.w3.org/1999/xhtml" style="display: table-cell; white-space: nowrap; line-height: 1.5; max-width: 151px; text-align: center;"><span class="nodeLabel markdown-node-label" style=""><p>Compiler infers</p></span></div></foreignObject></g></g><g class="methods-group text" transform="translate(-83.65234375, 96)"/><g class="divider" style=""><path d="M-95.65234375 -48 C-43.99779773355557 -48, 7.656748282888856 -48, 95.65234375 -48 M-95.65234375 -48 C-36.967700275999235 -48, 21.71694319800153 -48, 95.65234375 -48" stroke="#9370DB" stroke-width="1.3" fill="none" stroke-dasharray="0 0" style=""/></g><g class="divider" style=""><path d="M-95.65234375 72 C-55.81939833722997 72, -15.98645292445994 72, 95.65234375 72 M-95.65234375 72 C-44.10160162311436 72, 7.449140503771275 72, 95.65234375 72" stroke="#9370DB" stroke-width="1.3" fill="none" stroke-dasharray="0 0" style=""/></g></g><g class="node default" id="classId-LifetimeBounds-2" transform="translate(103.65234375, 92)"><g class="basic label-container"><path d="M-80.12890625 -84 L80.12890625 -84 L80.12890625 84 L-80.12890625 84" stroke="none" stroke-width="0" fill="#ECECFF" style=""/><path d="M-80.12890625 -84 C-25.387146889666283 -84, 29.354612470667433 -84, 80.12890625 -84 M-80.12890625 -84 C-29.565180940865304 -84, 20.998544368269393 -84, 80.12890625 -84 M80.12890625 -84 C80.12890625 -32.54115754751604, 80.12890625 18.917684904967913, 80.12890625 84 M80.12890625 -84 C80.12890625 -46.57089845875168, 80.12890625 -9.141796917503356, 80.12890625 84 M80.12890625 84 C38.68745213513859 84, -2.7540019797228155 84, -80.12890625 84 M80.12890625 84 C41.00593505520836 84, 1.882963860416723 84, -80.12890625 84 M-80.12890625 84 C-80.12890625 44.45499372766321, -80.12890625 4.909987455326416, -80.12890625 -84 M-80.12890625 84 C-80.12890625 37.83296543877515, -80.12890625 -8.334069122449705, -80.12890625 -84" stroke="#9370DB" stroke-width="1.3" fill="none" stroke-dasharray="0 0" style=""/></g><g class="annotation-group text" transform="translate(0, -60)"/><g class="label-group text" transform="translate(-58.2265625, -60)"><g class="label" style="font-weight: bolder" transform="translate(0,-12)"><foreignObject width="116.453125" height="24"><div xmlns="http://www.w3.org/1999/xhtml" style="display: table-cell; white-space: nowrap; line-height: 1.5; max-width: 154px; text-align: center;"><span class="nodeLabel markdown-node-label" style=""><p>LifetimeBounds</p></span></div></foreignObject></g></g><g class="members-group text" transform="translate(-68.12890625, -12)"><g class="label" style="" transform="translate(0,-12)"><foreignObject width="29.171875" height="24"><div xmlns="http://www.w3.org/1999/xhtml" style="display: table-cell; white-space: nowrap; line-height: 1.5; max-width: 78px; text-align: center;"><span class="nodeLabel markdown-node-label" style=""><p>T: 'a</p></span></div></foreignObject></g><g class="label" style="" transform="translate(0,12)"><foreignObject width="56.46875" height="24"><div xmlns="http://www.w3.org/1999/xhtml" style="display: table-cell; white-space: nowrap; line-height: 1.5; max-width: 104px; text-align: center;"><span class="nodeLabel markdown-node-label" style=""><p>&amp;'a T: 'b</p></span></div></foreignObject></g><g class="label" style="" transform="translate(0,36)"><foreignObject width="78.03125" height="24"><div xmlns="http://www.w3.org/1999/xhtml" style="display: table-cell; white-space: nowrap; line-height: 1.5; max-width: 121px; text-align: center;"><span class="nodeLabel markdown-node-label" style=""><p>where T: 'a</p></span></div></foreignObject></g></g><g class="methods-group text" transform="translate(-68.12890625, 84)"/><g class="divider" style=""><path d="M-80.12890625 -36 C-42.891719727100345 -36, -5.654533204200689 -36, 80.12890625 -36 M-80.12890625 -36 C-31.031038823455823 -36, 18.066828603088354 -36, 80.12890625 -36" stroke="#9370DB" stroke-width="1.3" fill="none" stroke-dasharray="0 0" style=""/></g><g class="divider" style=""><path d="M-80.12890625 60 C-24.861019204893537 60, 30.406867840212925 60, 80.12890625 60 M-80.12890625 60 C-18.67802513719436 60, 42.77285597561128 60, 80.12890625 60" stroke="#9370DB" stroke-width="1.3" fill="none" stroke-dasharray="0 0" style=""/></g></g><g class="node default" id="classId-NoteoverLifetimeAnnotations-3" transform="translate(505.89453125, 92)"><g class="basic label-container"><path d="M-272.11328125 -60 L272.11328125 -60 L272.11328125 60 L-272.11328125 60" stroke="none" stroke-width="0" fill="#ECECFF" style=""/><path d="M-272.11328125 -60 C-130.72375225290628 -60, 10.66577674418744 -60, 272.11328125 -60 M-272.11328125 -60 C-110.10980390480745 -60, 51.8936734403851 -60, 272.11328125 -60 M272.11328125 -60 C272.11328125 -18.323075641507778, 272.11328125 23.353848716984444, 272.11328125 60 M272.11328125 -60 C272.11328125 -33.36138383664209, 272.11328125 -6.7227676732841815, 272.11328125 60 M272.11328125 60 C133.7150003955676 60, -4.683280458864772 60, -272.11328125 60 M272.11328125 60 C147.87972457192654 60, 23.64616789385309 60, -272.11328125 60 M-272.11328125 60 C-272.11328125 30.899386726540563, -272.11328125 1.7987734530811252, -272.11328125 -60 M-272.11328125 60 C-272.11328125 24.405476742347417, -272.11328125 -11.189046515305165, -272.11328125 -60" stroke="#9370DB" stroke-width="1.3" fill="none" stroke-dasharray="0 0" style=""/></g><g class="annotation-group text" transform="translate(0, -36)"/><g class="label-group text" transform="translate(-110.5234375, -36)"><g class="label" style="font-weight: bolder" transform="translate(0,-12)"><foreignObject width="221.046875" height="24"><div xmlns="http://www.w3.org/1999/xhtml" style="display: table-cell; white-space: nowrap; line-height: 1.5; max-width: 244px; text-align: center;"><span class="nodeLabel markdown-node-label" style=""><p>NoteoverLifetimeAnnotations</p></span></div></foreignObject></g></g><g class="members-group text" transform="translate(-260.11328125, 12)"><g class="label" style="" transform="translate(0,-12)"><foreignObject width="409.703125" height="24"><div xmlns="http://www.w3.org/1999/xhtml" style="display: table-cell; white-space: nowrap; line-height: 1.5; max-width: 415px; text-align: center;"><span class="nodeLabel markdown-node-label" style=""><p>Prevents dangling references - Ensures reference validity</p></span></div></foreignObject></g></g><g class="methods-group text" transform="translate(-260.11328125, 60)"/><g class="divider" style=""><path d="M-272.11328125 -12 C-160.6192778949406 -12, -49.12527453988122 -12, 272.11328125 -12 M-272.11328125 -12 C-115.38658456342623 -12, 41.34011212314755 -12, 272.11328125 -12" stroke="#9370DB" stroke-width="1.3" fill="none" stroke-dasharray="0 0" style=""/></g><g class="divider" style=""><path d="M-272.11328125 36 C-93.69201434440882 36, 84.72925256118236 36, 272.11328125 36 M-272.11328125 36 C-114.2754396905483 36, 43.56240186890341 36, 272.11328125 36" stroke="#9370DB" stroke-width="1.3" fill="none" stroke-dasharray="0 0" style=""/></g></g></g></g></g></svg>