<svg id="my-svg" width="100%" xmlns="http://www.w3.org/2000/svg" xmlns:xlink="http://www.w3.org/1999/xlink" class="mindmapDiagram" style="max-width: 893.716px; background-color: white;" viewBox="5 5 893.716064453125 510.76531982421875" role="graphics-document document" aria-roledescription="mindmap"><style>#my-svg{font-family:"trebuchet ms",verdana,arial,sans-serif;font-size:16px;fill:#333;}@keyframes edge-animation-frame{from{stroke-dashoffset:0;}}@keyframes dash{to{stroke-dashoffset:0;}}#my-svg .edge-animation-slow{stroke-dasharray:9,5!important;stroke-dashoffset:900;animation:dash 50s linear infinite;stroke-linecap:round;}#my-svg .edge-animation-fast{stroke-dasharray:9,5!important;stroke-dashoffset:900;animation:dash 20s linear infinite;stroke-linecap:round;}#my-svg .error-icon{fill:#552222;}#my-svg .error-text{fill:#552222;stroke:#552222;}#my-svg .edge-thickness-normal{stroke-width:1px;}#my-svg .edge-thickness-thick{stroke-width:3.5px;}#my-svg .edge-pattern-solid{stroke-dasharray:0;}#my-svg .edge-thickness-invisible{stroke-width:0;fill:none;}#my-svg .edge-pattern-dashed{stroke-dasharray:3;}#my-svg .edge-pattern-dotted{stroke-dasharray:2;}#my-svg .marker{fill:#333333;stroke:#333333;}#my-svg .marker.cross{stroke:#333333;}#my-svg svg{font-family:"trebuchet ms",verdana,arial,sans-serif;font-size:16px;}#my-svg p{margin:0;}#my-svg .edge{stroke-width:3;}#my-svg .section--1 rect,#my-svg .section--1 path,#my-svg .section--1 circle,#my-svg .section--1 polygon,#my-svg .section--1 path{fill:hsl(240, 100%, 76.2745098039%);}#my-svg .section--1 text{fill:#ffffff;}#my-svg .node-icon--1{font-size:40px;color:#ffffff;}#my-svg .section-edge--1{stroke:hsl(240, 100%, 76.2745098039%);}#my-svg .edge-depth--1{stroke-width:17;}#my-svg .section--1 line{stroke:hsl(60, 100%, 86.2745098039%);stroke-width:3;}#my-svg .disabled,#my-svg .disabled circle,#my-svg .disabled text{fill:lightgray;}#my-svg .disabled text{fill:#efefef;}#my-svg .section-0 rect,#my-svg .section-0 path,#my-svg .section-0 circle,#my-svg .section-0 polygon,#my-svg .section-0 path{fill:hsl(60, 100%, 73.5294117647%);}#my-svg .section-0 text{fill:black;}#my-svg .node-icon-0{font-size:40px;color:black;}#my-svg .section-edge-0{stroke:hsl(60, 100%, 73.5294117647%);}#my-svg .edge-depth-0{stroke-width:14;}#my-svg .section-0 line{stroke:hsl(240, 100%, 83.5294117647%);stroke-width:3;}#my-svg .disabled,#my-svg .disabled circle,#my-svg .disabled text{fill:lightgray;}#my-svg .disabled text{fill:#efefef;}#my-svg .section-1 rect,#my-svg .section-1 path,#my-svg .section-1 circle,#my-svg .section-1 polygon,#my-svg .section-1 path{fill:hsl(80, 100%, 76.2745098039%);}#my-svg .section-1 text{fill:black;}#my-svg .node-icon-1{font-size:40px;color:black;}#my-svg .section-edge-1{stroke:hsl(80, 100%, 76.2745098039%);}#my-svg .edge-depth-1{stroke-width:11;}#my-svg .section-1 line{stroke:hsl(260, 100%, 86.2745098039%);stroke-width:3;}#my-svg .disabled,#my-svg .disabled circle,#my-svg .disabled text{fill:lightgray;}#my-svg .disabled text{fill:#efefef;}#my-svg .section-2 rect,#my-svg .section-2 path,#my-svg .section-2 circle,#my-svg .section-2 polygon,#my-svg .section-2 path{fill:hsl(270, 100%, 76.2745098039%);}#my-svg .section-2 text{fill:#ffffff;}#my-svg .node-icon-2{font-size:40px;color:#ffffff;}#my-svg .section-edge-2{stroke:hsl(270, 100%, 76.2745098039%);}#my-svg .edge-depth-2{stroke-width:8;}#my-svg .section-2 line{stroke:hsl(90, 100%, 86.2745098039%);stroke-width:3;}#my-svg .disabled,#my-svg .disabled circle,#my-svg .disabled text{fill:lightgray;}#my-svg .disabled text{fill:#efefef;}#my-svg .section-3 rect,#my-svg .section-3 path,#my-svg .section-3 circle,#my-svg .section-3 polygon,#my-svg .section-3 path{fill:hsl(300, 100%, 76.2745098039%);}#my-svg .section-3 text{fill:black;}#my-svg .node-icon-3{font-size:40px;color:black;}#my-svg .section-edge-3{stroke:hsl(300, 100%, 76.2745098039%);}#my-svg .edge-depth-3{stroke-width:5;}#my-svg .section-3 line{stroke:hsl(120, 100%, 86.2745098039%);stroke-width:3;}#my-svg .disabled,#my-svg .disabled circle,#my-svg .disabled text{fill:lightgray;}#my-svg .disabled text{fill:#efefef;}#my-svg .section-4 rect,#my-svg .section-4 path,#my-svg .section-4 circle,#my-svg .section-4 polygon,#my-svg .section-4 path{fill:hsl(330, 100%, 76.2745098039%);}#my-svg .section-4 text{fill:black;}#my-svg .node-icon-4{font-size:40px;color:black;}#my-svg .section-edge-4{stroke:hsl(330, 100%, 76.2745098039%);}#my-svg .edge-depth-4{stroke-width:2;}#my-svg .section-4 line{stroke:hsl(150, 100%, 86.2745098039%);stroke-width:3;}#my-svg .disabled,#my-svg .disabled circle,#my-svg .disabled text{fill:lightgray;}#my-svg .disabled text{fill:#efefef;}#my-svg .section-5 rect,#my-svg .section-5 path,#my-svg .section-5 circle,#my-svg .section-5 polygon,#my-svg .section-5 path{fill:hsl(0, 100%, 76.2745098039%);}#my-svg .section-5 text{fill:black;}#my-svg .node-icon-5{font-size:40px;color:black;}#my-svg .section-edge-5{stroke:hsl(0, 100%, 76.2745098039%);}#my-svg .edge-depth-5{stroke-width:-1;}#my-svg .section-5 line{stroke:hsl(180, 100%, 86.2745098039%);stroke-width:3;}#my-svg .disabled,#my-svg .disabled circle,#my-svg .disabled text{fill:lightgray;}#my-svg .disabled text{fill:#efefef;}#my-svg .section-6 rect,#my-svg .section-6 path,#my-svg .section-6 circle,#my-svg .section-6 polygon,#my-svg .section-6 path{fill:hsl(30, 100%, 76.2745098039%);}#my-svg .section-6 text{fill:black;}#my-svg .node-icon-6{font-size:40px;color:black;}#my-svg .section-edge-6{stroke:hsl(30, 100%, 76.2745098039%);}#my-svg .edge-depth-6{stroke-width:-4;}#my-svg .section-6 line{stroke:hsl(210, 100%, 86.2745098039%);stroke-width:3;}#my-svg .disabled,#my-svg .disabled circle,#my-svg .disabled text{fill:lightgray;}#my-svg .disabled text{fill:#efefef;}#my-svg .section-7 rect,#my-svg .section-7 path,#my-svg .section-7 circle,#my-svg .section-7 polygon,#my-svg .section-7 path{fill:hsl(90, 100%, 76.2745098039%);}#my-svg .section-7 text{fill:black;}#my-svg .node-icon-7{font-size:40px;color:black;}#my-svg .section-edge-7{stroke:hsl(90, 100%, 76.2745098039%);}#my-svg .edge-depth-7{stroke-width:-7;}#my-svg .section-7 line{stroke:hsl(270, 100%, 86.2745098039%);stroke-width:3;}#my-svg .disabled,#my-svg .disabled circle,#my-svg .disabled text{fill:lightgray;}#my-svg .disabled text{fill:#efefef;}#my-svg .section-8 rect,#my-svg .section-8 path,#my-svg .section-8 circle,#my-svg .section-8 polygon,#my-svg .section-8 path{fill:hsl(150, 100%, 76.2745098039%);}#my-svg .section-8 text{fill:black;}#my-svg .node-icon-8{font-size:40px;color:black;}#my-svg .section-edge-8{stroke:hsl(150, 100%, 76.2745098039%);}#my-svg .edge-depth-8{stroke-width:-10;}#my-svg .section-8 line{stroke:hsl(330, 100%, 86.2745098039%);stroke-width:3;}#my-svg .disabled,#my-svg .disabled circle,#my-svg .disabled text{fill:lightgray;}#my-svg .disabled text{fill:#efefef;}#my-svg .section-9 rect,#my-svg .section-9 path,#my-svg .section-9 circle,#my-svg .section-9 polygon,#my-svg .section-9 path{fill:hsl(180, 100%, 76.2745098039%);}#my-svg .section-9 text{fill:black;}#my-svg .node-icon-9{font-size:40px;color:black;}#my-svg .section-edge-9{stroke:hsl(180, 100%, 76.2745098039%);}#my-svg .edge-depth-9{stroke-width:-13;}#my-svg .section-9 line{stroke:hsl(0, 100%, 86.2745098039%);stroke-width:3;}#my-svg .disabled,#my-svg .disabled circle,#my-svg .disabled text{fill:lightgray;}#my-svg .disabled text{fill:#efefef;}#my-svg .section-10 rect,#my-svg .section-10 path,#my-svg .section-10 circle,#my-svg .section-10 polygon,#my-svg .section-10 path{fill:hsl(210, 100%, 76.2745098039%);}#my-svg .section-10 text{fill:black;}#my-svg .node-icon-10{font-size:40px;color:black;}#my-svg .section-edge-10{stroke:hsl(210, 100%, 76.2745098039%);}#my-svg .edge-depth-10{stroke-width:-16;}#my-svg .section-10 line{stroke:hsl(30, 100%, 86.2745098039%);stroke-width:3;}#my-svg .disabled,#my-svg .disabled circle,#my-svg .disabled text{fill:lightgray;}#my-svg .disabled text{fill:#efefef;}#my-svg .section-root rect,#my-svg .section-root path,#my-svg .section-root circle,#my-svg .section-root polygon{fill:hsl(240, 100%, 46.2745098039%);}#my-svg .section-root text{fill:#ffffff;}#my-svg .section-root span{color:#ffffff;}#my-svg .section-2 span{color:#ffffff;}#my-svg .icon-container{height:100%;display:flex;justify-content:center;align-items:center;}#my-svg .edge{fill:none;}#my-svg .mindmap-node-label{dy:1em;alignment-baseline:middle;text-anchor:middle;dominant-baseline:middle;text-align:center;}#my-svg :root{--mermaid-font-family:"trebuchet ms",verdana,arial,sans-serif;}</style><g><marker id="my-svg_mindmap-pointEnd" class="marker mindmap" viewBox="0 0 10 10" refX="5" refY="5" markerUnits="userSpaceOnUse" markerWidth="8" markerHeight="8" orient="auto"><path d="M 0 0 L 10 5 L 0 10 z" class="arrowMarkerPath" style="stroke-width: 1; stroke-dasharray: 1, 0;"/></marker><marker id="my-svg_mindmap-pointStart" class="marker mindmap" viewBox="0 0 10 10" refX="4.5" refY="5" markerUnits="userSpaceOnUse" markerWidth="8" markerHeight="8" orient="auto"><path d="M 0 5 L 10 10 L 10 0 z" class="arrowMarkerPath" style="stroke-width: 1; stroke-dasharray: 1, 0;"/></marker><g class="subgraphs"/><g class="edgePaths"><path d="M487.076,249.478L481.231,238.982C475.387,228.485,463.697,207.491,452.008,186.497C440.319,165.504,428.63,144.51,422.785,134.013L416.94,123.516" id="edge_0_1" class="edge-thickness-normal edge-pattern-solid edge section-edge-0 edge-depth-1" style="undefined;;;undefined" data-edge="true" data-et="edge" data-id="edge_0_1" data-points="W3sieCI6NDg3LjA3NTkzMDQyNzI1NjEsInkiOjI0OS40Nzg0ODcwNTM3OTE1OH0seyJ4Ijo0NTIuMDA4MDg5NDI2MTM3MzYsInkiOjE4Ni40OTczMDY3Mjg0MzkzNn0seyJ4Ijo0MTYuOTQwMjQ4NDI1MDE4NjQsInkiOjEyMy41MTYxMjY0MDMwODcxM31d"/><path d="M421.442,101.149L426.699,97.023C431.955,92.897,442.467,84.646,452.98,76.394C463.492,68.143,474.005,59.891,479.261,55.765L484.517,51.639" id="edge_1_2" class="edge-thickness-normal edge-pattern-solid edge section-edge-0 edge-depth-3" style="undefined;;;undefined" data-edge="true" data-et="edge" data-id="edge_1_2" data-points="W3sieCI6NDIxLjQ0MjQwMTgzNDA5MTM2LCJ5IjoxMDEuMTQ5MDU2ODA1MTAyMDZ9LHsieCI6NDUyLjk3OTg2OTM4MzQxODUsInkiOjc2LjM5NDIxMjI5NTIwMzY2fSx7IngiOjQ4NC41MTczMzY5MzI3NDU2LCJ5Ijo1MS42MzkzNjc3ODUzMDUyNTR9XQ=="/><path d="M397.758,119.562L392.831,123.356C387.904,127.15,378.05,134.739,368.195,142.327C358.341,149.915,348.487,157.503,343.56,161.297L338.633,165.091" id="edge_1_3" class="edge-thickness-normal edge-pattern-solid edge section-edge-0 edge-depth-3" style="undefined;;;undefined" data-edge="true" data-et="edge" data-id="edge_1_3" data-points="W3sieCI6Mzk3Ljc1ODM5MzE5Njk0MzcsInkiOjExOS41NjIzMjE2MTE0NTU3M30seyJ4IjozNjguMTk1NDQ5ODc1MjkwNSwieSI6MTQyLjMyNjY5MDk4NDMwNjc3fSx7IngiOjMzOC42MzI1MDY1NTM2MzcyNiwieSI6MTY1LjA5MTA2MDM1NzE1Nzh9XQ=="/><path d="M400.612,98.434L397.19,93.896C393.769,89.358,386.925,80.282,380.081,71.205C373.237,62.129,366.394,53.053,362.972,48.515L359.55,43.977" id="edge_1_4" class="edge-thickness-normal edge-pattern-solid edge section-edge-0 edge-depth-3" style="undefined;;;undefined" data-edge="true" data-et="edge" data-id="edge_1_4" data-points="W3sieCI6NDAwLjYxMjI5ODkzNzI0MDUsInkiOjk4LjQzMzg5NjEwMTk5OTM4fSx7IngiOjM4MC4wODExNjA0ODU5NTcxLCJ5Ijo3MS4yMDUzNDQ4NTY3MzU2OH0seyJ4IjozNTkuNTUwMDIyMDM0NjczNzYsInkiOjQzLjk3Njc5MzYxMTQ3MTk3Nn1d"/><path d="M394.771,108.454L382.829,106.883C370.887,105.312,347.002,102.169,323.117,99.027C299.233,95.884,275.348,92.742,263.405,91.171L251.463,89.599" id="edge_1_5" class="edge-thickness-normal edge-pattern-solid edge section-edge-0 edge-depth-3" style="undefined;;;undefined" data-edge="true" data-et="edge" data-id="edge_1_5" data-points="W3sieCI6Mzk0Ljc3MTMyMjA0MTk0NCwieSI6MTA4LjQ1NDAzNTM1ODk3MTk4fSx7IngiOjMyMy4xMTcyMjAwNTMwMTE4NiwieSI6OTkuMDI2NjY0NjI5ODIzMjR9LHsieCI6MjUxLjQ2MzExODA2NDA3OTc0LCJ5Ijo4OS41OTkyOTM5MDA2NzQ1MX1d"/><path d="M508.188,256.74L521.192,251.238C534.197,245.736,560.206,234.733,586.215,223.73C612.224,212.727,638.233,201.723,651.237,196.222L664.241,190.72" id="edge_0_6" class="edge-thickness-normal edge-pattern-solid edge section-edge-1 edge-depth-1" style="undefined;;;undefined" data-edge="true" data-et="edge" data-id="edge_0_6" data-points="W3sieCI6NTA4LjE4NzYzOTgyNzc5MzksInkiOjI1Ni43Mzk1ODQzMDEyOTk2fSx7IngiOjU4Ni4yMTQ1NjUxMTc4OTEzLCJ5IjoyMjMuNzI5OTI2OTk3OTQ0NDZ9LHsieCI6NjY0LjI0MTQ5MDQwNzk4ODcsInkiOjE5MC43MjAyNjk2OTQ1ODkzMn1d"/><path d="M691.132,177.526L698.332,173.478C705.532,169.431,719.932,161.336,734.332,153.241C748.733,145.146,763.133,137.051,770.333,133.004L777.533,128.956" id="edge_6_7" class="edge-thickness-normal edge-pattern-solid edge section-edge-1 edge-depth-3" style="undefined;;;undefined" data-edge="true" data-et="edge" data-id="edge_6_7" data-points="W3sieCI6NjkxLjEzMTc2NjIwNDU2MDcsInkiOjE3Ny41MjU2MTA2ODE0OTAwNH0seyJ4Ijo3MzQuMzMyNDAwMTUyMjcxMiwieSI6MTUzLjI0MDkwNjAwNTI0ODM1fSx7IngiOjc3Ny41MzMwMzQwOTk5ODE4LCJ5IjoxMjguOTU2MjAxMzI5MDA2NjZ9XQ=="/><path d="M693.053,185.201L705.072,185.462C717.092,185.722,741.132,186.244,765.171,186.765C789.211,187.286,813.25,187.807,825.27,188.068L837.29,188.329" id="edge_6_8" class="edge-thickness-normal edge-pattern-solid edge section-edge-1 edge-depth-3" style="undefined;;;undefined" data-edge="true" data-et="edge" data-id="edge_6_8" data-points="W3sieCI6NjkzLjA1MjU4NDExMDMyMTgsInkiOjE4NS4yMDExMTQ0MDUxMTAwMn0seyJ4Ijo3NjUuMTcxMjE2OTQ1NDU2NCwieSI6MTg2Ljc2NDkzNzY5NTYxNDcyfSx7IngiOjgzNy4yODk4NDk3ODA1OTEsInkiOjE4OC4zMjg3NjA5ODYxMTk0Mn1d"/><path d="M690.579,193.134L696.585,197.094C702.591,201.055,714.603,208.976,726.615,216.897C738.628,224.818,750.64,232.739,756.646,236.7L762.652,240.66" id="edge_6_9" class="edge-thickness-normal edge-pattern-solid edge section-edge-1 edge-depth-3" style="undefined;;;undefined" data-edge="true" data-et="edge" data-id="edge_6_9" data-points="W3sieCI6NjkwLjU3ODU3NzIyNzkzNDEsInkiOjE5My4xMzM1MjA1OTIzNTI2OH0seyJ4Ijo3MjYuNjE1MzQ3MTE0MTYxMSwieSI6MjE2Ljg5Njk1ODEwMDgxMTIyfSx7IngiOjc2Mi42NTIxMTcwMDAzODc4LCJ5IjoyNDAuNjYwMzk1NjA5MjY5NzZ9XQ=="/><path d="M667.125,174.604L662.543,170.298C657.961,165.991,648.797,157.379,639.633,148.767C630.469,140.155,621.304,131.543,616.722,127.236L612.14,122.93" id="edge_6_10" class="edge-thickness-normal edge-pattern-solid edge section-edge-1 edge-depth-3" style="undefined;;;undefined" data-edge="true" data-et="edge" data-id="edge_6_10" data-points="W3sieCI6NjY3LjEyNTQyNzM1NjUxNzEsInkiOjE3NC42MDM2MjgxMTYxOTUzOH0seyJ4Ijo2MzkuNjMyODE4MjEwMjcyNSwieSI6MTQ4Ljc2Njk2MTM5NTkzMDc2fSx7IngiOjYxMi4xNDAyMDkwNjQwMjc5LCJ5IjoxMjIuOTMwMjk0Njc1NjY2MTV9XQ=="/><path d="M506.236,271.763L517.248,280.284C528.26,288.804,550.283,305.845,572.307,322.886C594.331,339.928,616.354,356.969,627.366,365.489L638.378,374.01" id="edge_0_11" class="edge-thickness-normal edge-pattern-solid edge section-edge-2 edge-depth-1" style="undefined;;;undefined" data-edge="true" data-et="edge" data-id="edge_0_11" data-points="W3sieCI6NTA2LjIzNjMzNjM4NTg5MzksInkiOjI3MS43NjMzNDM0MDc0NDI4fSx7IngiOjU3Mi4zMDY5NjczMDc0OTQxLCJ5IjozMjIuODg2NDkyNjQzNjExNn0seyJ4Ijo2MzguMzc3NTk4MjI5MDk0NCwieSI6Mzc0LjAwOTY0MTg3OTc4MDM2fV0="/><path d="M665.074,380.959L676.284,379.274C687.493,377.589,709.912,374.218,732.331,370.848C754.749,367.478,777.168,364.107,788.378,362.422L799.587,360.737" id="edge_11_12" class="edge-thickness-normal edge-pattern-solid edge section-edge-2 edge-depth-3" style="undefined;;;undefined" data-edge="true" data-et="edge" data-id="edge_11_12" data-points="W3sieCI6NjY1LjA3NDIyODI3NjMxNjcsInkiOjM4MC45NTkwODg1NTgxMzI0Nn0seyJ4Ijo3MzIuMzMwNjQ2NDM5MDg5OCwieSI6MzcwLjg0ODA2NDgxMjg3NDN9LHsieCI6Nzk5LjU4NzA2NDYwMTg2MjcsInkiOjM2MC43MzcwNDEwNjc2MTYyfV0="/><path d="M663.941,389.296L671.869,392.83C679.796,396.364,695.651,403.432,711.506,410.5C727.361,417.568,743.216,424.636,751.144,428.17L759.071,431.704" id="edge_11_13" class="edge-thickness-normal edge-pattern-solid edge section-edge-2 edge-depth-3" style="undefined;;;undefined" data-edge="true" data-et="edge" data-id="edge_11_13" data-points="W3sieCI6NjYzLjk0MTI2NTExMDM3OCwieSI6Mzg5LjI5NjQ2NDU5Mjk5MTY0fSx7IngiOjcxMS41MDYxNjg3ODc1MDI3LCJ5Ijo0MTAuNTAwMTU3MDg1ODM0ODd9LHsieCI6NzU5LjA3MTA3MjQ2NDYyNzQsInkiOjQzMS43MDM4NDk1Nzg2NzgxfV0="/><path d="M651.255,398.155L651.603,403.282C651.951,408.41,652.646,418.665,653.341,428.921C654.036,439.176,654.732,449.431,655.079,454.559L655.427,459.687" id="edge_11_14" class="edge-thickness-normal edge-pattern-solid edge section-edge-2 edge-depth-3" style="undefined;;;undefined" data-edge="true" data-et="edge" data-id="edge_11_14" data-points="W3sieCI6NjUxLjI1NTQ4NDc5MDEyNTMsInkiOjM5OC4xNTQ3MTAzOTU3ODA4fSx7IngiOjY1My4zNDEyMTkwODE3Mzk4LCJ5Ijo0MjguOTIwNzgzMDUyOTYxNTV9LHsieCI6NjU1LjQyNjk1MzM3MzM1NDQsInkiOjQ1OS42ODY4NTU3MTAxNDIzfV0="/><path d="M652.918,368.43L653.72,364.008C654.522,359.586,656.126,350.743,657.73,341.899C659.335,333.056,660.939,324.212,661.741,319.791L662.543,315.369" id="edge_11_15" class="edge-thickness-normal edge-pattern-solid edge section-edge-2 edge-depth-3" style="undefined;;;undefined" data-edge="true" data-et="edge" data-id="edge_11_15" data-points="W3sieCI6NjUyLjkxODA2MjYzNTA3NTcsInkiOjM2OC40Mjk4OTkxNzgzNDA2M30seyJ4Ijo2NTcuNzMwMzk4NDE2MjcwNiwieSI6MzQxLjg5OTQxOTMxOTg0M30seyJ4Ijo2NjIuNTQyNzM0MTk3NDY1NiwieSI6MzE1LjM2ODkzOTQ2MTM0NTM1fV0="/><path d="M484.217,273.622L475.015,283.624C465.813,293.625,447.409,313.627,429.006,333.629C410.602,353.631,392.198,373.633,382.996,383.635L373.794,393.636" id="edge_0_16" class="edge-thickness-normal edge-pattern-solid edge section-edge-3 edge-depth-1" style="undefined;;;undefined" data-edge="true" data-et="edge" data-id="edge_0_16" data-points="W3sieCI6NDg0LjIxNjY3MjkxNzUyNTA1LCJ5IjoyNzMuNjIyNDI4ODkyNTM5MzV9LHsieCI6NDI5LjAwNTU4MzUwODExMjQ3LCJ5IjozMzMuNjI5MDI3Mzg0NDI4OH0seyJ4IjozNzMuNzk0NDk0MDk4Njk5OSwieSI6MzkzLjYzNTYyNTg3NjMxODN9XQ=="/><path d="M378.337,407.665L389.22,409.88C400.104,412.095,421.871,416.524,443.638,420.954C465.406,425.384,487.173,429.813,498.056,432.028L508.94,434.243" id="edge_16_17" class="edge-thickness-normal edge-pattern-solid edge section-edge-3 edge-depth-3" style="undefined;;;undefined" data-edge="true" data-et="edge" data-id="edge_16_17" data-points="W3sieCI6Mzc4LjMzNjg4NTI5ODg3NTcsInkiOjQwNy42NjUyOTU4MjAxNDkyNX0seyJ4Ijo0NDMuNjM4NDY5NTc3MzIsInkiOjQyMC45NTQwNDEwNDM4Mn0seyJ4Ijo1MDguOTQwMDUzODU1NzY0MywieSI6NDM0LjI0Mjc4NjI2NzQ5MDd9XQ=="/><path d="M348.801,402.473L338.503,400.945C328.205,399.417,307.61,396.361,287.014,393.305C266.419,390.249,245.823,387.193,235.526,385.665L225.228,384.137" id="edge_16_18" class="edge-thickness-normal edge-pattern-solid edge section-edge-3 edge-depth-3" style="undefined;;;undefined" data-edge="true" data-et="edge" data-id="edge_16_18" data-points="W3sieCI6MzQ4LjgwMDU5MTcxMjUwOSwieSI6NDAyLjQ3MjU0NTQ3NzYwOTh9LHsieCI6Mjg3LjAxNDE3ODMyODk3MSwieSI6MzkzLjMwNDcyMjMzNTM1MjA0fSx7IngiOjIyNS4yMjc3NjQ5NDU0MzMwNSwieSI6Mzg0LjEzNjg5OTE5MzA5NDN9XQ=="/><path d="M350.062,411.053L341.877,414.9C333.692,418.746,317.322,426.438,300.952,434.13C284.582,441.822,268.212,449.515,260.027,453.361L251.841,457.207" id="edge_16_19" class="edge-thickness-normal edge-pattern-solid edge section-edge-3 edge-depth-3" style="undefined;;;undefined" data-edge="true" data-et="edge" data-id="edge_16_19" data-points="W3sieCI6MzUwLjA2MjI0ODkyMTkxNTUsInkiOjQxMS4wNTMzOTU0ODIzMTI5fSx7IngiOjMwMC45NTE4NTE4NDk0NDM3LCJ5Ijo0MzQuMTMwMTkxNDkyMDE0fSx7IngiOjI1MS44NDE0NTQ3NzY5NzE5LCJ5Ijo0NTcuMjA2OTg3NTAxNzE1MTZ9XQ=="/><path d="M370.723,417.895L373.298,422.699C375.872,427.503,381.021,437.112,386.17,446.72C391.319,456.328,396.468,465.936,399.043,470.74L401.617,475.544" id="edge_16_20" class="edge-thickness-normal edge-pattern-solid edge section-edge-3 edge-depth-3" style="undefined;;;undefined" data-edge="true" data-et="edge" data-id="edge_16_20" data-points="W3sieCI6MzcwLjcyMzM5MDE2MTU4NzgsInkiOjQxNy44OTUzMDAzMDA3MDY3fSx7IngiOjM4Ni4xNzA0NDMwOTk3NTIzMywieSI6NDQ2LjcxOTcyNzYyNzgxNDJ9LHsieCI6NDAxLjYxNzQ5NjAzNzkxNjg1LCJ5Ijo0NzUuNTQ0MTU0OTU0OTIxNzR9XQ=="/><path d="M479.383,262.027L463.936,261.454C448.489,260.88,417.595,259.733,386.701,258.586C355.807,257.439,324.913,256.292,309.466,255.718L294.019,255.145" id="edge_0_21" class="edge-thickness-normal edge-pattern-solid edge section-edge-4 edge-depth-1" style="undefined;;;undefined" data-edge="true" data-et="edge" data-id="edge_0_21" data-points="W3sieCI6NDc5LjM4MzM1MDQyMjc3MzIsInkiOjI2Mi4wMjczNDU0NjQ1NTY5Nn0seyJ4IjozODYuNzAxMjMwMTcyNDM5MywieSI6MjU4LjU4NTk4NTI4OTY5NX0seyJ4IjoyOTQuMDE5MTA5OTIyMTA1NCwieSI6MjU1LjE0NDYyNTExNDgzM31d"/><path d="M266.644,246.127L260.706,242.07C254.769,238.014,242.894,229.901,231.018,221.789C219.143,213.676,207.268,205.564,201.331,201.507L195.393,197.451" id="edge_21_22" class="edge-thickness-normal edge-pattern-solid edge section-edge-4 edge-depth-3" style="undefined;;;undefined" data-edge="true" data-et="edge" data-id="edge_21_22" data-points="W3sieCI6MjY2LjY0Mzc2NDYzODMzODksInkiOjI0Ni4xMjY2NjA0Njg1Mzg1N30seyJ4IjoyMzEuMDE4MzczODU3ODQzNTksInkiOjIyMS43ODg4NTA4Mzk5NDc0M30seyJ4IjoxOTUuMzkyOTgzMDc3MzQ4MjUsInkiOjE5Ny40NTEwNDEyMTEzNTYyOH1d"/><path d="M265.424,260.905L257.578,264.548C249.732,268.191,234.039,275.477,218.346,282.763C202.653,290.05,186.96,297.336,179.114,300.979L171.268,304.622" id="edge_21_23" class="edge-thickness-normal edge-pattern-solid edge section-edge-4 edge-depth-3" style="undefined;;;undefined" data-edge="true" data-et="edge" data-id="edge_21_23" data-points="W3sieCI6MjY1LjQyNDM3OTQ1MzkyOTksInkiOjI2MC45MDQ4NzY5MTc4MzI1NX0seyJ4IjoyMTguMzQ1OTY4MDIxNjcwOSwieSI6MjgyLjc2MzM4NTg0MzkxNDN9LHsieCI6MTcxLjI2NzU1NjU4OTQxMTkyLCJ5IjozMDQuNjIxODk0NzY5OTk2MDZ9XQ=="/><path d="M264.047,253.869L250.096,253.2C236.145,252.531,208.244,251.192,180.343,249.854C152.442,248.515,124.54,247.177,110.59,246.508L96.639,245.838" id="edge_21_24" class="edge-thickness-normal edge-pattern-solid edge section-edge-4 edge-depth-3" style="undefined;;;undefined" data-edge="true" data-et="edge" data-id="edge_21_24" data-points="W3sieCI6MjY0LjA0NjY2OTk0MTQ2OTUzLCJ5IjoyNTMuODY5Mjg1NjcxNTAxOTN9LHsieCI6MTgwLjM0Mjg0NDcyOTA0OTM4LCJ5IjoyNDkuODUzODAyNDk4MzU0OTJ9LHsieCI6OTYuNjM5MDE5NTE2NjI5MjUsInkiOjI0NS44MzgzMTkzMjUyMDc5Mn1d"/></g><g class="edgeLabels"><g class="edgeLabel"><g class="label" data-id="edge_0_1" transform="translate(0, 0)"><foreignObject width="0" height="0"><div xmlns="http://www.w3.org/1999/xhtml" class="labelBkg" style="display: table-cell; white-space: nowrap; line-height: 1.5; max-width: 200px; text-align: center;"><span class="edgeLabel"></span></div></foreignObject></g></g><g class="edgeLabel"><g class="label" data-id="edge_1_2" transform="translate(0, 0)"><foreignObject width="0" height="0"><div xmlns="http://www.w3.org/1999/xhtml" class="labelBkg" style="display: table-cell; white-space: nowrap; line-height: 1.5; max-width: 200px; text-align: center;"><span class="edgeLabel"></span></div></foreignObject></g></g><g class="edgeLabel"><g class="label" data-id="edge_1_3" transform="translate(0, 0)"><foreignObject width="0" height="0"><div xmlns="http://www.w3.org/1999/xhtml" class="labelBkg" style="display: table-cell; white-space: nowrap; line-height: 1.5; max-width: 200px; text-align: center;"><span class="edgeLabel"></span></div></foreignObject></g></g><g class="edgeLabel"><g class="label" data-id="edge_1_4" transform="translate(0, 0)"><foreignObject width="0" height="0"><div xmlns="http://www.w3.org/1999/xhtml" class="labelBkg" style="display: table-cell; white-space: nowrap; line-height: 1.5; max-width: 200px; text-align: center;"><span class="edgeLabel"></span></div></foreignObject></g></g><g class="edgeLabel"><g class="label" data-id="edge_1_5" transform="translate(0, 0)"><foreignObject width="0" height="0"><div xmlns="http://www.w3.org/1999/xhtml" class="labelBkg" style="display: table-cell; white-space: nowrap; line-height: 1.5; max-width: 200px; text-align: center;"><span class="edgeLabel"></span></div></foreignObject></g></g><g class="edgeLabel"><g class="label" data-id="edge_0_6" transform="translate(0, 0)"><foreignObject width="0" height="0"><div xmlns="http://www.w3.org/1999/xhtml" class="labelBkg" style="display: table-cell; white-space: nowrap; line-height: 1.5; max-width: 200px; text-align: center;"><span class="edgeLabel"></span></div></foreignObject></g></g><g class="edgeLabel"><g class="label" data-id="edge_6_7" transform="translate(0, 0)"><foreignObject width="0" height="0"><div xmlns="http://www.w3.org/1999/xhtml" class="labelBkg" style="display: table-cell; white-space: nowrap; line-height: 1.5; max-width: 200px; text-align: center;"><span class="edgeLabel"></span></div></foreignObject></g></g><g class="edgeLabel"><g class="label" data-id="edge_6_8" transform="translate(0, 0)"><foreignObject width="0" height="0"><div xmlns="http://www.w3.org/1999/xhtml" class="labelBkg" style="display: table-cell; white-space: nowrap; line-height: 1.5; max-width: 200px; text-align: center;"><span class="edgeLabel"></span></div></foreignObject></g></g><g class="edgeLabel"><g class="label" data-id="edge_6_9" transform="translate(0, 0)"><foreignObject width="0" height="0"><div xmlns="http://www.w3.org/1999/xhtml" class="labelBkg" style="display: table-cell; white-space: nowrap; line-height: 1.5; max-width: 200px; text-align: center;"><span class="edgeLabel"></span></div></foreignObject></g></g><g class="edgeLabel"><g class="label" data-id="edge_6_10" transform="translate(0, 0)"><foreignObject width="0" height="0"><div xmlns="http://www.w3.org/1999/xhtml" class="labelBkg" style="display: table-cell; white-space: nowrap; line-height: 1.5; max-width: 200px; text-align: center;"><span class="edgeLabel"></span></div></foreignObject></g></g><g class="edgeLabel"><g class="label" data-id="edge_0_11" transform="translate(0, 0)"><foreignObject width="0" height="0"><div xmlns="http://www.w3.org/1999/xhtml" class="labelBkg" style="display: table-cell; white-space: nowrap; line-height: 1.5; max-width: 200px; text-align: center;"><span class="edgeLabel"></span></div></foreignObject></g></g><g class="edgeLabel"><g class="label" data-id="edge_11_12" transform="translate(0, 0)"><foreignObject width="0" height="0"><div xmlns="http://www.w3.org/1999/xhtml" class="labelBkg" style="display: table-cell; white-space: nowrap; line-height: 1.5; max-width: 200px; text-align: center;"><span class="edgeLabel"></span></div></foreignObject></g></g><g class="edgeLabel"><g class="label" data-id="edge_11_13" transform="translate(0, 0)"><foreignObject width="0" height="0"><div xmlns="http://www.w3.org/1999/xhtml" class="labelBkg" style="display: table-cell; white-space: nowrap; line-height: 1.5; max-width: 200px; text-align: center;"><span class="edgeLabel"></span></div></foreignObject></g></g><g class="edgeLabel"><g class="label" data-id="edge_11_14" transform="translate(0, 0)"><foreignObject width="0" height="0"><div xmlns="http://www.w3.org/1999/xhtml" class="labelBkg" style="display: table-cell; white-space: nowrap; line-height: 1.5; max-width: 200px; text-align: center;"><span class="edgeLabel"></span></div></foreignObject></g></g><g class="edgeLabel"><g class="label" data-id="edge_11_15" transform="translate(0, 0)"><foreignObject width="0" height="0"><div xmlns="http://www.w3.org/1999/xhtml" class="labelBkg" style="display: table-cell; white-space: nowrap; line-height: 1.5; max-width: 200px; text-align: center;"><span class="edgeLabel"></span></div></foreignObject></g></g><g class="edgeLabel"><g class="label" data-id="edge_0_16" transform="translate(0, 0)"><foreignObject width="0" height="0"><div xmlns="http://www.w3.org/1999/xhtml" class="labelBkg" style="display: table-cell; white-space: nowrap; line-height: 1.5; max-width: 200px; text-align: center;"><span class="edgeLabel"></span></div></foreignObject></g></g><g class="edgeLabel"><g class="label" data-id="edge_16_17" transform="translate(0, 0)"><foreignObject width="0" height="0"><div xmlns="http://www.w3.org/1999/xhtml" class="labelBkg" style="display: table-cell; white-space: nowrap; line-height: 1.5; max-width: 200px; text-align: center;"><span class="edgeLabel"></span></div></foreignObject></g></g><g class="edgeLabel"><g class="label" data-id="edge_16_18" transform="translate(0, 0)"><foreignObject width="0" height="0"><div xmlns="http://www.w3.org/1999/xhtml" class="labelBkg" style="display: table-cell; white-space: nowrap; line-height: 1.5; max-width: 200px; text-align: center;"><span class="edgeLabel"></span></div></foreignObject></g></g><g class="edgeLabel"><g class="label" data-id="edge_16_19" transform="translate(0, 0)"><foreignObject width="0" height="0"><div xmlns="http://www.w3.org/1999/xhtml" class="labelBkg" style="display: table-cell; white-space: nowrap; line-height: 1.5; max-width: 200px; text-align: center;"><span class="edgeLabel"></span></div></foreignObject></g></g><g class="edgeLabel"><g class="label" data-id="edge_16_20" transform="translate(0, 0)"><foreignObject width="0" height="0"><div xmlns="http://www.w3.org/1999/xhtml" class="labelBkg" style="display: table-cell; white-space: nowrap; line-height: 1.5; max-width: 200px; text-align: center;"><span class="edgeLabel"></span></div></foreignObject></g></g><g class="edgeLabel"><g class="label" data-id="edge_0_21" transform="translate(0, 0)"><foreignObject width="0" height="0"><div xmlns="http://www.w3.org/1999/xhtml" class="labelBkg" style="display: table-cell; white-space: nowrap; line-height: 1.5; max-width: 200px; text-align: center;"><span class="edgeLabel"></span></div></foreignObject></g></g><g class="edgeLabel"><g class="label" data-id="edge_21_22" transform="translate(0, 0)"><foreignObject width="0" height="0"><div xmlns="http://www.w3.org/1999/xhtml" class="labelBkg" style="display: table-cell; white-space: nowrap; line-height: 1.5; max-width: 200px; text-align: center;"><span class="edgeLabel"></span></div></foreignObject></g></g><g class="edgeLabel"><g class="label" data-id="edge_21_23" transform="translate(0, 0)"><foreignObject width="0" height="0"><div xmlns="http://www.w3.org/1999/xhtml" class="labelBkg" style="display: table-cell; white-space: nowrap; line-height: 1.5; max-width: 200px; text-align: center;"><span class="edgeLabel"></span></div></foreignObject></g></g><g class="edgeLabel"><g class="label" data-id="edge_21_24" transform="translate(0, 0)"><foreignObject width="0" height="0"><div xmlns="http://www.w3.org/1999/xhtml" class="labelBkg" style="display: table-cell; white-space: nowrap; line-height: 1.5; max-width: 200px; text-align: center;"><span class="edgeLabel"></span></div></foreignObject></g></g></g><g class="nodes"><g class="node mindmap-node section-root section--1" id="node_0" transform="translate(494.37302088677984, 262.58392374340735)"><circle class="basic label-container" style="" r="81.3203125" cx="0" cy="0"/><g class="label" style="" transform="translate(-71.3203125, -12)"><rect/><foreignObject width="142.640625" height="24"><div xmlns="http://www.w3.org/1999/xhtml" style="display: table-cell; white-space: nowrap; line-height: 1.5; max-width: 200px; text-align: center;"><span class="nodeLabel"><p>Concurrency in Rust</p></span></div></foreignObject></g></g><g class="node mindmap-node section-0" id="node_1" transform="translate(409.6431579654949, 110.41068971347136)"><path id="node-1" class="node-bkg node-0" style="" d="M-48.390625 12&#10;    v-24&#10;    q0,-5 5,-5&#10;    h86.78125&#10;    q5,0 5,5&#10;    v24&#10;    q0,5 -5,5&#10;    h-86.78125&#10;    q-5,0 -5,-5&#10;    Z"/><line class="node-line-" x1="-48.390625" y1="17" x2="48.390625" y2="17"/><g class="label" style="" transform="translate(-28.390625, -12)"><rect/><foreignObject width="56.78125" height="24"><div xmlns="http://www.w3.org/1999/xhtml" style="display: table-cell; white-space: nowrap; line-height: 1.5; max-width: 200px; text-align: center;"><span class="nodeLabel"><p>Threads</p></span></div></foreignObject></g></g><g class="node mindmap-node section-0" id="node_2" transform="translate(496.31658080134207, 42.37773487693596)"><path id="node-2" class="node-bkg node-0" style="" d="M-60.421875 12&#10;    v-24&#10;    q0,-5 5,-5&#10;    h110.84375&#10;    q5,0 5,5&#10;    v24&#10;    q0,5 -5,5&#10;    h-110.84375&#10;    q-5,0 -5,-5&#10;    Z"/><line class="node-line-" x1="-60.421875" y1="17" x2="60.421875" y2="17"/><g class="label" style="" transform="translate(-40.421875, -12)"><rect/><foreignObject width="80.84375" height="24"><div xmlns="http://www.w3.org/1999/xhtml" style="display: table-cell; white-space: nowrap; line-height: 1.5; max-width: 200px; text-align: center;"><span class="nodeLabel"><p>std::thread</p></span></div></foreignObject></g></g><g class="node mindmap-node section-0" id="node_3" transform="translate(326.7477417850861, 174.24269225514217)"><path id="node-3" class="node-bkg node-0" style="" d="M-42.2265625 12&#10;    v-24&#10;    q0,-5 5,-5&#10;    h74.453125&#10;    q5,0 5,5&#10;    v24&#10;    q0,5 -5,5&#10;    h-74.453125&#10;    q-5,0 -5,-5&#10;    Z"/><line class="node-line-" x1="-42.2265625" y1="17" x2="42.2265625" y2="17"/><g class="label" style="" transform="translate(-22.2265625, -12)"><rect/><foreignObject width="44.453125" height="24"><div xmlns="http://www.w3.org/1999/xhtml" style="display: table-cell; white-space: nowrap; line-height: 1.5; max-width: 200px; text-align: center;"><span class="nodeLabel"><p>spawn</p></span></div></foreignObject></g></g><g class="node mindmap-node section-0" id="node_4" transform="translate(350.5191630064194, 32)"><path id="node-4" class="node-bkg node-0" style="" d="M-33.8828125 12&#10;    v-24&#10;    q0,-5 5,-5&#10;    h57.765625&#10;    q5,0 5,5&#10;    v24&#10;    q0,5 -5,5&#10;    h-57.765625&#10;    q-5,0 -5,-5&#10;    Z"/><line class="node-line-" x1="-33.8828125" y1="17" x2="33.8828125" y2="17"/><g class="label" style="" transform="translate(-13.8828125, -12)"><rect/><foreignObject width="27.765625" height="24"><div xmlns="http://www.w3.org/1999/xhtml" style="display: table-cell; white-space: nowrap; line-height: 1.5; max-width: 200px; text-align: center;"><span class="nodeLabel"><p>join</p></span></div></foreignObject></g></g><g class="node mindmap-node section-0" id="node_5" transform="translate(236.59128214052885, 87.64263954617513)"><path id="node-5" class="node-bkg node-0" style="" d="M-67.3203125 12&#10;    v-24&#10;    q0,-5 5,-5&#10;    h124.640625&#10;    q5,0 5,5&#10;    v24&#10;    q0,5 -5,5&#10;    h-124.640625&#10;    q-5,0 -5,-5&#10;    Z"/><line class="node-line-" x1="-67.3203125" y1="17" x2="67.3203125" y2="17"/><g class="label" style="" transform="translate(-47.3203125, -12)"><rect/><foreignObject width="94.640625" height="24"><div xmlns="http://www.w3.org/1999/xhtml" style="display: table-cell; white-space: nowrap; line-height: 1.5; max-width: 200px; text-align: center;"><span class="nodeLabel"><p>move closure</p></span></div></foreignObject></g></g><g class="node mindmap-node section-1" id="node_6" transform="translate(678.0561093490028, 184.87593025248157)"><path id="node-6" class="node-bkg node-0" style="" d="M-76.9453125 12&#10;    v-24&#10;    q0,-5 5,-5&#10;    h143.890625&#10;    q5,0 5,5&#10;    v24&#10;    q0,5 -5,5&#10;    h-143.890625&#10;    q-5,0 -5,-5&#10;    Z"/><line class="node-line-" x1="-76.9453125" y1="17" x2="76.9453125" y2="17"/><g class="label" style="" transform="translate(-56.9453125, -12)"><rect/><foreignObject width="113.890625" height="24"><div xmlns="http://www.w3.org/1999/xhtml" style="display: table-cell; white-space: nowrap; line-height: 1.5; max-width: 200px; text-align: center;"><span class="nodeLabel"><p>Message Passing</p></span></div></foreignObject></g></g><g class="node mindmap-node section-1" id="node_7" transform="translate(790.6086909555397, 121.60588175801513)"><path id="node-7" class="node-bkg node-0" style="" d="M-68.7109375 12&#10;    v-24&#10;    q0,-5 5,-5&#10;    h127.421875&#10;    q5,0 5,5&#10;    v24&#10;    q0,5 -5,5&#10;    h-127.421875&#10;    q-5,0 -5,-5&#10;    Z"/><line class="node-line-" x1="-68.7109375" y1="17" x2="68.7109375" y2="17"/><g class="label" style="" transform="translate(-48.7109375, -12)"><rect/><foreignObject width="97.421875" height="24"><div xmlns="http://www.w3.org/1999/xhtml" style="display: table-cell; white-space: nowrap; line-height: 1.5; max-width: 200px; text-align: center;"><span class="nodeLabel"><p>mpsc channel</p></span></div></foreignObject></g></g><g class="node mindmap-node section-1" id="node_8" transform="translate(852.2863245419101, 188.65394513874787)"><path id="node-8" class="node-bkg node-0" style="" d="M-36.4296875 12&#10;    v-24&#10;    q0,-5 5,-5&#10;    h62.859375&#10;    q5,0 5,5&#10;    v24&#10;    q0,5 -5,5&#10;    h-62.859375&#10;    q-5,0 -5,-5&#10;    Z"/><line class="node-line-" x1="-36.4296875" y1="17" x2="36.4296875" y2="17"/><g class="label" style="" transform="translate(-16.4296875, -12)"><rect/><foreignObject width="32.859375" height="24"><div xmlns="http://www.w3.org/1999/xhtml" style="display: table-cell; white-space: nowrap; line-height: 1.5; max-width: 200px; text-align: center;"><span class="nodeLabel"><p>send</p></span></div></foreignObject></g></g><g class="node mindmap-node section-1" id="node_9" transform="translate(775.1745848793191, 248.91798594914087)"><path id="node-9" class="node-bkg node-0" style="" d="M-35.3515625 12&#10;    v-24&#10;    q0,-5 5,-5&#10;    h60.703125&#10;    q5,0 5,5&#10;    v24&#10;    q0,5 -5,5&#10;    h-60.703125&#10;    q-5,0 -5,-5&#10;    Z"/><line class="node-line-" x1="-35.3515625" y1="17" x2="35.3515625" y2="17"/><g class="label" style="" transform="translate(-15.3515625, -12)"><rect/><foreignObject width="30.703125" height="24"><div xmlns="http://www.w3.org/1999/xhtml" style="display: table-cell; white-space: nowrap; line-height: 1.5; max-width: 200px; text-align: center;"><span class="nodeLabel"><p>recv</p></span></div></foreignObject></g></g><g class="node mindmap-node section-1" id="node_10" transform="translate(601.2095270715422, 112.65799253937996)"><path id="node-10" class="node-bkg node-0" style="" d="M-87.7734375 12&#10;    v-24&#10;    q0,-5 5,-5&#10;    h165.546875&#10;    q5,0 5,5&#10;    v24&#10;    q0,5 -5,5&#10;    h-165.546875&#10;    q-5,0 -5,-5&#10;    Z"/><line class="node-line-" x1="-87.7734375" y1="17" x2="87.7734375" y2="17"/><g class="label" style="" transform="translate(-67.7734375, -12)"><rect/><foreignObject width="135.546875" height="24"><div xmlns="http://www.w3.org/1999/xhtml" style="display: table-cell; white-space: nowrap; line-height: 1.5; max-width: 200px; text-align: center;"><span class="nodeLabel"><p>multiple producers</p></span></div></foreignObject></g></g><g class="node mindmap-node section-2" id="node_11" transform="translate(650.2409137282084, 383.1890615438158)"><path id="node-11" class="node-bkg node-0" style="" d="M-65.5234375 12&#10;    v-24&#10;    q0,-5 5,-5&#10;    h121.046875&#10;    q5,0 5,5&#10;    v24&#10;    q0,5 -5,5&#10;    h-121.046875&#10;    q-5,0 -5,-5&#10;    Z"/><line class="node-line-" x1="-65.5234375" y1="17" x2="65.5234375" y2="17"/><g class="label" style="" transform="translate(-45.5234375, -12)"><rect/><foreignObject width="91.046875" height="24"><div xmlns="http://www.w3.org/1999/xhtml" style="display: table-cell; white-space: nowrap; line-height: 1.5; max-width: 200px; text-align: center;"><span class="nodeLabel"><p>Shared State</p></span></div></foreignObject></g></g><g class="node mindmap-node section-2" id="node_12" transform="translate(814.420379149971, 358.50706808193286)"><path id="node-12" class="node-bkg node-0" style="" d="M-41.59375 12&#10;    v-24&#10;    q0,-5 5,-5&#10;    h73.1875&#10;    q5,0 5,5&#10;    v24&#10;    q0,5 -5,5&#10;    h-73.1875&#10;    q-5,0 -5,-5&#10;    Z"/><line class="node-line-" x1="-41.59375" y1="17" x2="41.59375" y2="17"/><g class="label" style="" transform="translate(-21.59375, -12)"><rect/><foreignObject width="43.1875" height="24"><div xmlns="http://www.w3.org/1999/xhtml" style="display: table-cell; white-space: nowrap; line-height: 1.5; max-width: 200px; text-align: center;"><span class="nodeLabel"><p>Mutex</p></span></div></foreignObject></g></g><g class="node mindmap-node section-2" id="node_13" transform="translate(772.771423846797, 437.81125262785395)"><path id="node-13" class="node-bkg node-0" style="" d="M-31.7890625 12&#10;    v-24&#10;    q0,-5 5,-5&#10;    h53.578125&#10;    q5,0 5,5&#10;    v24&#10;    q0,5 -5,5&#10;    h-53.578125&#10;    q-5,0 -5,-5&#10;    Z"/><line class="node-line-" x1="-31.7890625" y1="17" x2="31.7890625" y2="17"/><g class="label" style="" transform="translate(-11.7890625, -12)"><rect/><foreignObject width="23.578125" height="24"><div xmlns="http://www.w3.org/1999/xhtml" style="display: table-cell; white-space: nowrap; line-height: 1.5; max-width: 200px; text-align: center;"><span class="nodeLabel"><p>Arc</p></span></div></foreignObject></g></g><g class="node mindmap-node section-2" id="node_14" transform="translate(656.4415244352713, 474.6525045621073)"><path id="node-14" class="node-bkg node-0" style="" d="M-46.953125 12&#10;    v-24&#10;    q0,-5 5,-5&#10;    h83.90625&#10;    q5,0 5,5&#10;    v24&#10;    q0,5 -5,5&#10;    h-83.90625&#10;    q-5,0 -5,-5&#10;    Z"/><line class="node-line-" x1="-46.953125" y1="17" x2="46.953125" y2="17"/><g class="label" style="" transform="translate(-26.953125, -12)"><rect/><foreignObject width="53.90625" height="24"><div xmlns="http://www.w3.org/1999/xhtml" style="display: table-cell; white-space: nowrap; line-height: 1.5; max-width: 200px; text-align: center;"><span class="nodeLabel"><p>RwLock</p></span></div></foreignObject></g></g><g class="node mindmap-node section-2" id="node_15" transform="translate(665.2198831043329, 300.6097770958702)"><path id="node-15" class="node-bkg node-0" style="" d="M-49.140625 12&#10;    v-24&#10;    q0,-5 5,-5&#10;    h88.28125&#10;    q5,0 5,5&#10;    v24&#10;    q0,5 -5,5&#10;    h-88.28125&#10;    q-5,0 -5,-5&#10;    Z"/><line class="node-line-" x1="-49.140625" y1="17" x2="49.140625" y2="17"/><g class="label" style="" transform="translate(-29.140625, -12)"><rect/><foreignObject width="58.28125" height="24"><div xmlns="http://www.w3.org/1999/xhtml" style="display: table-cell; white-space: nowrap; line-height: 1.5; max-width: 200px; text-align: center;"><span class="nodeLabel"><p>Condvar</p></span></div></foreignObject></g></g><g class="node mindmap-node section-3" id="node_16" transform="translate(363.6381461294451, 404.67413102545027)"><path id="node-16" class="node-bkg node-0" style="" d="M-62.1640625 12&#10;    v-24&#10;    q0,-5 5,-5&#10;    h114.328125&#10;    q5,0 5,5&#10;    v24&#10;    q0,5 -5,5&#10;    h-114.328125&#10;    q-5,0 -5,-5&#10;    Z"/><line class="node-line-" x1="-62.1640625" y1="17" x2="62.1640625" y2="17"/><g class="label" style="" transform="translate(-42.1640625, -12)"><rect/><foreignObject width="84.328125" height="24"><div xmlns="http://www.w3.org/1999/xhtml" style="display: table-cell; white-space: nowrap; line-height: 1.5; max-width: 200px; text-align: center;"><span class="nodeLabel"><p>Async Await</p></span></div></foreignObject></g></g><g class="node mindmap-node section-3" id="node_17" transform="translate(523.6387930251949, 437.2339510621897)"><path id="node-17" class="node-bkg node-0" style="" d="M-49.4609375 12&#10;    v-24&#10;    q0,-5 5,-5&#10;    h88.921875&#10;    q5,0 5,5&#10;    v24&#10;    q0,5 -5,5&#10;    h-88.921875&#10;    q-5,0 -5,-5&#10;    Z"/><line class="node-line-" x1="-49.4609375" y1="17" x2="49.4609375" y2="17"/><g class="label" style="" transform="translate(-29.4609375, -12)"><rect/><foreignObject width="58.921875" height="24"><div xmlns="http://www.w3.org/1999/xhtml" style="display: table-cell; white-space: nowrap; line-height: 1.5; max-width: 200px; text-align: center;"><span class="nodeLabel"><p>async fn</p></span></div></foreignObject></g></g><g class="node mindmap-node section-3" id="node_18" transform="translate(210.39021052849694, 381.9353136452538)"><path id="node-18" class="node-bkg node-0" style="" d="M-39.8125 12&#10;    v-24&#10;    q0,-5 5,-5&#10;    h69.625&#10;    q5,0 5,5&#10;    v24&#10;    q0,5 -5,5&#10;    h-69.625&#10;    q-5,0 -5,-5&#10;    Z"/><line class="node-line-" x1="-39.8125" y1="17" x2="39.8125" y2="17"/><g class="label" style="" transform="translate(-19.8125, -12)"><rect/><foreignObject width="39.625" height="24"><div xmlns="http://www.w3.org/1999/xhtml" style="display: table-cell; white-space: nowrap; line-height: 1.5; max-width: 200px; text-align: center;"><span class="nodeLabel"><p>await</p></span></div></foreignObject></g></g><g class="node mindmap-node section-3" id="node_19" transform="translate(238.2655575694423, 463.5862519585778)"><path id="node-19" class="node-bkg node-0" style="" d="M-61.9375 12&#10;    v-24&#10;    q0,-5 5,-5&#10;    h113.875&#10;    q5,0 5,5&#10;    v24&#10;    q0,5 -5,5&#10;    h-113.875&#10;    q-5,0 -5,-5&#10;    Z"/><line class="node-line-" x1="-61.9375" y1="17" x2="61.9375" y2="17"/><g class="label" style="" transform="translate(-41.9375, -12)"><rect/><foreignObject width="83.875" height="24"><div xmlns="http://www.w3.org/1999/xhtml" style="display: table-cell; white-space: nowrap; line-height: 1.5; max-width: 200px; text-align: center;"><span class="nodeLabel"><p>Future trait</p></span></div></foreignObject></g></g><g class="node mindmap-node section-3" id="node_20" transform="translate(408.7027400700596, 488.7653242301782)"><path id="node-20" class="node-bkg node-0" style="" d="M-69.2734375 12&#10;    v-24&#10;    q0,-5 5,-5&#10;    h128.546875&#10;    q5,0 5,5&#10;    v24&#10;    q0,5 -5,5&#10;    h-128.546875&#10;    q-5,0 -5,-5&#10;    Z"/><line class="node-line-" x1="-69.2734375" y1="17" x2="69.2734375" y2="17"/><g class="label" style="" transform="translate(-49.2734375, -12)"><rect/><foreignObject width="98.546875" height="24"><div xmlns="http://www.w3.org/1999/xhtml" style="display: table-cell; white-space: nowrap; line-height: 1.5; max-width: 200px; text-align: center;"><span class="nodeLabel"><p>Tokio runtime</p></span></div></foreignObject></g></g><g class="node mindmap-node section-4" id="node_21" transform="translate(279.02943945809875, 254.5880468359826)"><path id="node-21" class="node-bkg node-0" style="" d="M-70.046875 12&#10;    v-24&#10;    q0,-5 5,-5&#10;    h130.09375&#10;    q5,0 5,5&#10;    v24&#10;    q0,5 -5,5&#10;    h-130.09375&#10;    q-5,0 -5,-5&#10;    Z"/><line class="node-line-" x1="-70.046875" y1="17" x2="70.046875" y2="17"/><g class="label" style="" transform="translate(-50.046875, -12)"><rect/><foreignObject width="100.09375" height="24"><div xmlns="http://www.w3.org/1999/xhtml" style="display: table-cell; white-space: nowrap; line-height: 1.5; max-width: 200px; text-align: center;"><span class="nodeLabel"><p>Thread Safety</p></span></div></foreignObject></g></g><g class="node mindmap-node section-4" id="node_22" transform="translate(183.00730825758842, 188.98965484391226)"><path id="node-22" class="node-bkg node-0" style="" d="M-55.390625 12&#10;    v-24&#10;    q0,-5 5,-5&#10;    h100.78125&#10;    q5,0 5,5&#10;    v24&#10;    q0,5 -5,5&#10;    h-100.78125&#10;    q-5,0 -5,-5&#10;    Z"/><line class="node-line-" x1="-55.390625" y1="17" x2="55.390625" y2="17"/><g class="label" style="" transform="translate(-35.390625, -12)"><rect/><foreignObject width="70.78125" height="24"><div xmlns="http://www.w3.org/1999/xhtml" style="display: table-cell; white-space: nowrap; line-height: 1.5; max-width: 200px; text-align: center;"><span class="nodeLabel"><p>Send trait</p></span></div></foreignObject></g></g><g class="node mindmap-node section-4" id="node_23" transform="translate(157.66249658524305, 310.938724851846)"><path id="node-23" class="node-bkg node-0" style="" d="M-54.4765625 12&#10;    v-24&#10;    q0,-5 5,-5&#10;    h98.953125&#10;    q5,0 5,5&#10;    v24&#10;    q0,5 -5,5&#10;    h-98.953125&#10;    q-5,0 -5,-5&#10;    Z"/><line class="node-line-" x1="-54.4765625" y1="17" x2="54.4765625" y2="17"/><g class="label" style="" transform="translate(-34.4765625, -12)"><rect/><foreignObject width="68.953125" height="24"><div xmlns="http://www.w3.org/1999/xhtml" style="display: table-cell; white-space: nowrap; line-height: 1.5; max-width: 200px; text-align: center;"><span class="nodeLabel"><p>Sync trait</p></span></div></foreignObject></g></g><g class="node mindmap-node section-4" id="node_24" transform="translate(81.65625, 245.11955816072725)"><path id="node-24" class="node-bkg node-0" style="" d="M-66.65625 12&#10;    v-24&#10;    q0,-5 5,-5&#10;    h123.3125&#10;    q5,0 5,5&#10;    v24&#10;    q0,5 -5,5&#10;    h-123.3125&#10;    q-5,0 -5,-5&#10;    Z"/><line class="node-line-" x1="-66.65625" y1="17" x2="66.65625" y2="17"/><g class="label" style="" transform="translate(-46.65625, -12)"><rect/><foreignObject width="93.3125" height="24"><div xmlns="http://www.w3.org/1999/xhtml" style="display: table-cell; white-space: nowrap; line-height: 1.5; max-width: 200px; text-align: center;"><span class="nodeLabel"><p>Atomic types</p></span></div></foreignObject></g></g></g></g></svg>